<?xml version="1.0" standalone="no"?>
<!DOCTYPE svg PUBLIC "-//W3C//DTD SVG 1.1//EN" "http://www.w3.org/Graphics/SVG/1.1/DTD/svg11.dtd" >
<svg>
<metadata>
Created by FontForge 20090914 at Fri Feb 24 04:39:10 2012
 By root
Copyright (c) 2009 by Peter Wiegel,  Open Font under Terms of following Free Software Licenses:
GPL (General Public License) with font-exception and OFL (Open Font License
</metadata>
<defs>
<font id="PaneuropaHighway" horiz-adv-x="938" >
  <font-face 
    font-family="Paneuropa Highway"
    font-weight="900"
    font-stretch="normal"
    units-per-em="2048"
    panose-1="2 11 6 3 5 3 2 2 2 4"
    ascent="1638"
    descent="-410"
    x-height="919"
    cap-height="1234"
    bbox="-41 -536 2056 1901"
    underline-thickness="0"
    underline-position="0"
    unicode-range="U+0020-U+FB02"
  />
<missing-glyph horiz-adv-x="890" 
d="M97 1234h684v-1225h-684v1225zM220 1092v-944h437v944h-437z" />
    <glyph glyph-name=".notdef" horiz-adv-x="890" 
d="M97 1234h684v-1225h-684v1225zM220 1092v-944h437v944h-437z" />
    <glyph glyph-name="space" unicode=" " horiz-adv-x="627" 
 />
    <glyph glyph-name="exclam" unicode="!" horiz-adv-x="418" 
d="M201 243q30 0 57 -10t47.5 -27t33 -40t12.5 -48q0 -27 -12.5 -50t-33.5 -40t-48 -26.5t-56 -9.5q-32 0 -59.5 10t-47.5 27t-32 40t-12 49q0 25 12 47.5t32 40t47.5 27.5t59.5 10zM86 1255h245v-822h-245v822z" />
    <glyph glyph-name="quotedbl" unicode="&#x22;" horiz-adv-x="712" 
d="M352 1255h263l-23 -331h-223zM97 1255h247l-24 -331h-223v331z" />
    <glyph glyph-name="numbersign" unicode="#" horiz-adv-x="1046" 
d="M36 313l29 162h121l25.5 140.5l26.5 140.5h-121l30 163h120l28.5 152.5l27.5 152.5h225l-56 -305h157l28 152.5l28 152.5h223l-55 -305h121l-29 -163h-121l-25.5 -140l-25.5 -141h121l-30 -162h-121l-28 -152.5l-28 -151.5h-224l55 304h-156l-28.5 -152.5l-27.5 -151.5
h-225l55 304h-120zM567 475q13 75 26 140.5t26 140.5h-157l-25.5 -140l-26.5 -141h157z" />
    <glyph glyph-name="dollar" unicode="$" horiz-adv-x="887" 
d="M763 1000q-158 77 -307 77q-83 0 -125 -39t-42 -100q0 -33 12 -59.5t34 -47.5t53 -38t68 -31q89 -33 161.5 -72t122.5 -81q115 -98 115 -260q0 -288 -299 -348v-259h-227v249q-78 8 -159.5 30.5t-161.5 58.5l81 169q79 -31 154.5 -53.5t145.5 -22.5q208 0 208 175
q0 40 -16.5 73t-46.5 60.5t-72 50t-93 42.5q-66 24 -125 54.5t-105 65.5q-54 42 -82.5 101.5t-28.5 136.5q0 54 19.5 103.5t58 90t94.5 70.5t129 45v256h227v-248q78 -8 148.5 -30t132.5 -53z" />
    <glyph glyph-name="uni0025" unicode="%" horiz-adv-x="1470" 
d="M398 1240q83 0 146 -22t105 -61t63.5 -93.5t21.5 -120.5t-22 -120.5t-64.5 -93.5t-105 -60.5t-144.5 -21.5t-144.5 21.5t-105 60.5t-64 93.5t-21.5 120.5t21 120.5t62.5 93.5t104.5 61t147 22zM1048 585q83 0 146 -21.5t105 -60.5t63.5 -93.5t21.5 -120.5t-22 -121
t-64.5 -94t-105 -60.5t-144.5 -21.5q-83 0 -145.5 21t-104.5 60t-63.5 93.5t-21.5 122.5q0 66 21 120.5t62.5 93.5t104.5 60.5t147 21.5zM1048 442q-109 0 -109 -153q0 -154 109 -154q107 0 107 154q0 153 -107 153zM184 9l830 1215h248l-831 -1215h-247zM398 1097
q-107 0 -107 -154t107 -154q108 0 108 154t-108 154z" />
    <glyph glyph-name="ampersand" unicode="&#x26;" horiz-adv-x="1388" 
d="M241 719q-113 98 -113 230q0 114 80 205q78 86 284 86q98 0 168 -19t114.5 -54t65.5 -84.5t21 -109.5q0 -61 -19.5 -108.5t-55 -83.5t-84 -62.5t-105.5 -45.5l308 -264q12 49 17.5 113t5.5 146h235q0 -128 -20 -229t-63 -179l71.5 -61.5l75.5 -65l75 -64.5l70 -60h-310
l-113 98q-74 -61 -169 -88t-221 -27q-128 0 -219 26t-149 74.5t-85 117t-27 153.5q0 63 14.5 111.5t41 86t63.5 68t82 57.5zM417 567q-80 -78 -80 -212q0 -55 14 -92t41 -59t68 -31.5t95 -9.5q81 0 143.5 16t107.5 51zM469 784l47 27.5l55 33.5q46 29 46 112q0 53 -22 88
q-23 36 -96 36q-37 0 -62.5 -11t-41.5 -29t-23 -40.5t-7 -46.5q0 -41 19.5 -79.5t48.5 -61.5z" />
    <glyph glyph-name="quotesingle" unicode="'" horiz-adv-x="418" 
d="M95 1255h246l-23 -331h-223v331z" />
    <glyph glyph-name="parenleft" unicode="(" horiz-adv-x="582" 
d="M534 1383q-65 -68 -114 -155.5t-81.5 -186.5t-49 -206.5t-16.5 -215.5q0 -107 16.5 -214t49.5 -207.5t82 -192t114 -166.5l-165 -96q-356 439 -356 875q0 430 360 871z" />
    <glyph glyph-name="parenright" unicode=")" horiz-adv-x="583" 
d="M199 1490q184 -224 272.5 -443t88.5 -437q-5 -434 -358 -867l-164 96q65 76 114 168.5t82 194.5t49.5 210t16.5 215q0 108 -17 214t-50 204t-82 184t-112 154z" />
    <glyph glyph-name="asterisk" unicode="*" horiz-adv-x="786" 
d="M38 1058l232 -40l-79 79l-75 77l202 108l67 -169l32 89l30 82l204 -105l-148 -157l120.5 23.5t112.5 21.5v-197l-232 39l78 -78.5l76 -76.5l-202 -108l-67 168l-33 -89l-29 -83l-205 107l149 156l-120.5 -23t-112.5 -21v197z" />
    <glyph glyph-name="plus" unicode="+" horiz-adv-x="761" 
d="M1 633h257v252h233v-252h257v-175h-257v-252h-233v252h-257v175z" />
    <glyph glyph-name="comma" unicode="," horiz-adv-x="409" 
d="M230 243q31 0 58.5 -10t48 -27.5t32 -40t11.5 -47.5q0 -6 -2.5 -19t-6 -27.5t-7.5 -28t-7 -20.5l-146 -247h-182l107 244q-29 20 -42.5 46t-13.5 52q0 25 12 47.5t32 39.5t47.5 27.5t58.5 10.5z" />
    <glyph glyph-name="hyphen" unicode="-" horiz-adv-x="961" 
d="M99 633h747v-175h-747v175z" />
    <glyph glyph-name="period" unicode="." horiz-adv-x="419" 
d="M208 243q30 0 57 -10t48 -27t33 -40t12 -48q0 -27 -12.5 -50t-33 -40t-47.5 -26.5t-57 -9.5q-31 0 -58.5 10t-48 27t-32.5 40t-12 49q0 25 12 47.5t32 40t47.5 27.5t59.5 10z" />
    <glyph glyph-name="slash" unicode="/" horiz-adv-x="650" 
d="M-12 -173l420 1590h245l-420 -1590h-245z" />
    <glyph glyph-name="zero" unicode="0" horiz-adv-x="981" 
d="M483 1240q193 0 300 -133q111 -138 111 -491q0 -176 -28.5 -299.5t-82.5 -192.5q-53 -63 -128.5 -97.5t-171.5 -34.5q-197 0 -303 132q-108 135 -108 492q0 356 108 491q107 133 303 133zM483 1075q-71 0 -116 -85q-24 -45 -34.5 -140t-10.5 -247q0 -136 12 -227t33 -135
q47 -85 116 -85q68 0 114 85q23 45 35.5 138.5t12.5 236.5q0 144 -12.5 237t-35.5 137q-45 85 -114 85z" />
    <glyph glyph-name="one" unicode="1" horiz-adv-x="677" 
d="M567 1224v-1215h-249v979l-110.5 -73.5l-105.5 -70.5l-127 151l340 229h252z" />
    <glyph glyph-name="two" unicode="2" horiz-adv-x="936" 
d="M848 189v-180h-757v45q0 200 70 320q31 51 99.5 118.5t162.5 139.5q51 40 86 73t57 64t32 63.5t11 71.5q0 160 -177 160q-92 0 -258 -95l-100 149l90 53t83 38t88 23t105 8q98 0 176.5 -20t133 -59.5t84 -99t29.5 -137.5q0 -67 -23 -126.5t-62.5 -112.5t-92 -100.5
t-111.5 -91.5q-56 -43 -98 -80.5t-69.5 -73.5t-42.5 -73t-17 -77h501z" />
    <glyph glyph-name="three" unicode="3" horiz-adv-x="944" 
d="M66 109l19.5 29.5l19.5 29.5q5 8 12.5 19l15.5 23l15.5 23t12.5 19q61 -39 117.5 -60t122.5 -21q48 0 87.5 15t68 43t44 67t15.5 87q0 129 -60 161q-73 40 -213 40v165q246 0 246 171q0 145 -151 145q-116 0 -254 -86l-10.5 15.5l-13.5 20l-13.5 20l-10.5 15.5
l-25.5 37.5t-24.5 38.5q83 55 169.5 84.5t191.5 29.5q91 0 163 -19t121.5 -56.5t76 -94.5t26.5 -133q0 -183 -203 -260q54 -14 97.5 -38.5t74.5 -61.5t48 -86t17 -111q0 -92 -36.5 -163.5t-99.5 -120t-148 -73.5t-183 -25q-102 0 -181 24.5t-145 65.5z" />
    <glyph glyph-name="four" unicode="4" horiz-adv-x="921" 
d="M879 459v-169h-134v-281h-247v281h-501v170l456 764h246l-448 -765h248l10 119t9 117h227v-236h134z" />
    <glyph glyph-name="five" unicode="5" horiz-adv-x="922" 
d="M802 1224v-167h-440v-283q27 5 53 6.5t56 1.5q90 0 161.5 -28.5t122 -79.5t77 -121t26.5 -153q0 -103 -35 -179.5t-104 -127.5q-63 -45 -146.5 -69.5t-183.5 -24.5q-85 0 -165.5 18.5t-158.5 50.5l70 162q69 -30 131 -44.5t116 -14.5q103 0 162.5 56.5t59.5 166.5
q0 50 -10.5 91t-33.5 70t-59 44.5t-88 15.5q-61 0 -102 -16h-190v625h681z" />
    <glyph glyph-name="six" unicode="6" horiz-adv-x="955" 
d="M751 1034q-81 43 -164 43q-125 0 -199 -120q-29 -46 -47.5 -104.5t-26.5 -122.5q47 35 99 51t115 16q90 0 157 -29t111.5 -80.5t67 -122.5t22.5 -154q0 -215 -120 -320q-114 -99 -277 -99q-102 0 -181 35.5t-134 107.5t-83.5 181t-28.5 256q1 265 116 465
q116 203 394 203q137 0 246 -53zM644 396q0 118 -33.5 175.5t-112.5 57.5q-53 0 -99 -23.5t-91 -75.5q7 -181 52 -274t126 -93q47 0 77.5 18t48.5 49.5t25 74t7 91.5z" />
    <glyph glyph-name="seven" unicode="7" horiz-adv-x="837" 
d="M30 1224h776v-193l-390 -1022h-258l411 1034h-539v181z" />
    <glyph glyph-name="eight" unicode="8" horiz-adv-x="996" 
d="M494 -9q-108 0 -189 23t-134.5 66.5t-80.5 105t-27 138.5q0 111 56 193t164 136q-53 38 -86.5 73t-52.5 70t-26 70.5t-7 75.5q0 63 22.5 117.5t68.5 94.5t116.5 63t166.5 23q81 0 151.5 -17.5t123 -53t83 -89.5t30.5 -128q0 -48 -12.5 -93.5t-36 -86t-58 -74.5t-77.5 -58
q91 -52 150 -112h-1q39 -41 59 -90.5t20 -113.5q0 -81 -29.5 -143t-84.5 -104t-133.5 -64t-175.5 -22zM448 563l-24 8q-112 -82 -112 -232q0 -187 186 -187q78 0 124 44.5t46 134.5q0 36 -10.5 65.5t-36 56.5t-68 53.5t-107.5 56.5h2zM354 938q2 -105 56 -140
q32 -22 65 -42.5t62 -35.5q41 29 66.5 77t25.5 123q0 157 -144 157q-67 0 -99 -38.5t-32 -100.5z" />
    <glyph glyph-name="nine" unicode="9" horiz-adv-x="945" 
d="M464 1240q237 0 329 -131q92 -133 92 -331q0 -236 -133 -425q-60 -87 -140.5 -172.5t-180.5 -171.5h-313q145 118 253 231.5t176 223.5q-27 -10 -56.5 -14.5t-67.5 -4.5q-77 0 -145.5 26t-119.5 75.5t-81 121t-30 161.5q0 94 25 170.5t76.5 129.5t130 82t185.5 29z
M632 673q9 42 9 99q0 70 -9 125.5t-30 93t-55 57.5t-83 20q-46 0 -78.5 -16.5t-53.5 -46.5t-31 -73t-10 -96q0 -116 46 -169.5t138 -53.5q48 0 89 17.5t79 50.5z" />
    <glyph glyph-name="colon" unicode=":" horiz-adv-x="444" 
d="M220 243q30 0 57.5 -10t48 -27t32.5 -40t12 -48q0 -27 -12.5 -50t-33 -40t-47.5 -26.5t-57 -9.5q-32 0 -59.5 10t-47.5 27t-32 40t-12 49q0 25 12 47.5t32 40t47.5 27.5t59.5 10zM220 865q30 0 57 -10t47.5 -27t33 -39.5t12.5 -48.5t-12.5 -49t-33 -40t-47.5 -27t-57 -10
q-33 0 -60.5 10.5t-48 28t-31.5 40t-11 47.5t12 48t32 40t47.5 27t59.5 10z" />
    <glyph glyph-name="semicolon" unicode=";" horiz-adv-x="415" 
d="M225 865q30 0 57 -9.5t48 -26t33.5 -39.5t12.5 -50q0 -26 -12.5 -48.5t-33 -40t-48 -27.5t-57.5 -10q-31 0 -58.5 10t-47.5 27.5t-32 40t-12 48.5q0 25 12 48t32 40t47.5 27t58.5 10zM225 243q31 0 59 -10t48 -27.5t32 -40t12 -47.5q0 -6 -2.5 -19t-6 -27.5t-7.5 -28
t-8 -20.5l-145 -247h-182l106 244q-29 20 -42.5 46t-13.5 52q0 25 12 47.5t32 39.5t47.5 27.5t58.5 10.5z" />
    <glyph glyph-name="less" unicode="&#x3c;" horiz-adv-x="789" 
d="M724 809l-533 -221l267.5 -111l265.5 -111v-212l-738 337v192l738 338v-212z" />
    <glyph glyph-name="equal" unicode="=" horiz-adv-x="888" 
d="M99 806h748v-178h-748v178zM99 475h748v-177h-748v177z" />
    <glyph glyph-name="greater" unicode="&#x3e;" horiz-adv-x="837" 
d="M99 809v212l738 -338v-192l-738 -337v212l534 222z" />
    <glyph glyph-name="question" unicode="?" horiz-adv-x="794" 
d="M377 243q31 0 59 -10t48 -27.5t32 -40t12 -47.5q0 -26 -12 -49t-32 -40t-48 -27t-59 -10t-58 10t-47.5 27t-32 40t-11.5 49q0 25 11.5 47.5t32 39.5t47.5 27.5t58 10.5zM20 1119q73 52 160.5 86.5t198.5 34.5q76 0 141 -16.5t119 -48.5q119 -72 119 -220q0 -42 -9 -74
t-26 -58t-41 -49t-55 -47q-129 -102 -129 -293h-245q0 53 8 105t30 102t59 97t96 91q67 50 67 123q0 30 -10.5 51t-29 34.5t-43.5 20t-55 6.5q-100 0 -253 -94z" />
    <glyph glyph-name="at" unicode="@" horiz-adv-x="1777" 
d="M1043 748q-17 5 -37.5 6.5t-48.5 1.5q-134 0 -193 -119q-61 -118 -61 -289q0 -62 22.5 -100.5t72.5 -38.5q24 0 51.5 13t53 35.5t45.5 54t28 68.5zM1197 369l1 1q-2 -20 -5 -41l-6 -41q-1 -5 -1.5 -9t-0.5 -7q0 -36 19.5 -61.5t52.5 -25.5q43 0 76 33t55.5 89.5t35.5 132
t16 160.5q-2 112 -32 201t-93 151t-159.5 95t-230.5 33q-301 0 -455 -176q-154 -177 -154 -466q0 -144 42 -253t118.5 -182t184 -110t237.5 -37q207 0 431 93l67 -157q-128 -50 -252.5 -74t-247.5 -24q-204 0 -359 53t-259 150t-156.5 234t-52.5 305q0 353 233 586
q225 225 638 225q170 0 308 -45t235.5 -128t150.5 -199.5t53 -260.5q0 -265 -123 -422q-60 -80 -133.5 -116.5t-163.5 -36.5q-98 0 -157.5 27t-87.5 89q-96 -97 -256 -97q-81 0 -138 23.5t-94 64t-54 95t-17 117.5q0 227 120 392q118 162 376 162q176 0 326 -81z" />
    <glyph glyph-name="A" unicode="A" horiz-adv-x="1098" 
d="M682 1234l378 -1225h-264l-76 273h-355l-38.5 -137l-37.5 -136h-264l378 1225h279zM542 921l-64 -233l-66 -236h261z" />
    <glyph glyph-name="B" unicode="B" horiz-adv-x="1035" 
d="M98 1234h346q194 0 320 -61h-1q143 -66 143 -251q0 -48 -13 -89t-36 -74t-54 -57.5t-66 -40.5q111 -30 167.5 -104.5t56.5 -193.5q0 -354 -418 -354h-445v1225zM367 1061v-326h158q56 0 90.5 39.5t34.5 126.5q0 88 -42 124t-133 36h-108zM367 564v-385h181q31 0 58 10.5
t47.5 33.5t32.5 58.5t12 85.5q0 48 -9.5 85t-32.5 61.5t-61 37.5t-94 13h-134z" />
    <glyph glyph-name="C" unicode="C" 
d="M545 1247q46 0 82 -2.5t65 -7t52 -11t44 -14.5h-1q7 -3 17.5 -7t22 -9t22.5 -9t18 -7l-77 -169q-25 12 -54 22.5t-57.5 19t-55.5 13t-47 4.5q-58 0 -105.5 -27t-81.5 -82.5t-52.5 -140.5t-18.5 -201q0 -118 12.5 -203.5t39 -140.5t68.5 -81t101 -26q118 0 243 55l68 -168
q-32 -14 -65 -26t-71.5 -20.5t-83.5 -13.5t-101 -5q-125 0 -213.5 38.5t-144.5 117t-82 196.5t-26 277t33 277t95 196t151.5 116.5t202.5 38.5z" />
    <glyph glyph-name="D" unicode="D" horiz-adv-x="1058" 
d="M98 1234h319q324 0 444 -162q121 -164 121 -451q0 -147 -28.5 -261t-87 -192t-146.5 -118.5t-208 -40.5h-414v1225zM358 1058v-882h89q161 0 217 119q54 118 54 326q0 88 -12 165t-35 144q-42 130 -219 129z" />
    <glyph glyph-name="E" unicode="E" horiz-adv-x="914" 
d="M98 1234h761v-173h-502v-335h446v-172h-446v-375h503v-170h-762v1225z" />
    <glyph glyph-name="F" unicode="F" horiz-adv-x="838" 
d="M97 1234h748v-173h-489v-366h442v-175h-442v-511h-259v1225z" />
    <glyph glyph-name="G" unicode="G" horiz-adv-x="1024" 
d="M562 1247q59 0 102.5 -2.5t76.5 -7.5t58 -12t46 -16h-1q7 -3 17.5 -7t22 -9t22.5 -9t18 -7l-76 -164q-51 26 -110.5 41.5t-144.5 15.5q-57 0 -107.5 -27t-88 -82.5t-59.5 -140.5t-22 -201q0 -237 63 -346t189 -109q30 0 58.5 1.5t55.5 5.5v368h-156v158h402v-643
q-29 -14 -71.5 -25.5t-92 -20t-103.5 -13.5t-107 -5q-492 0 -492 629q0 311 142 471q139 157 358 157z" />
    <glyph glyph-name="H" unicode="H" horiz-adv-x="1162" 
d="M791 9v538h-432v-538h-260v1225h260v-508h432v508h258v-1225h-258z" />
    <glyph glyph-name="I" unicode="I" horiz-adv-x="650" 
d="M65 1234h512v-159h-126v-908h126v-158h-512v158h121v908h-121v159z" />
    <glyph glyph-name="J" unicode="J" horiz-adv-x="839" 
d="M476 1234h262v-907q-1 -134 -89 -237q-87 -100 -332 -100q-100 0 -183.5 36.5t-152.5 92.5l131 158q42 -45 95.5 -75.5t118.5 -30.5q150 0 150 156v907z" />
    <glyph glyph-name="K" unicode="K" horiz-adv-x="1092" 
d="M99 1234h260v-441l168.5 220.5l166.5 220.5h277l-423 -557l121.5 -165l125 -169l124.5 -169.5l121 -164.5h-295l-386 518v-518h-260v1225z" />
    <glyph glyph-name="L" unicode="L" horiz-adv-x="851" 
d="M98 1234h265v-1039h498v-186h-763v1225z" />
    <glyph glyph-name="M" unicode="M" horiz-adv-x="1283" 
d="M923 9v755l-82.5 -229.5l-81.5 -226.5h-233l-183 480v-779h-244v1225h334l211 -602l101.5 301.5l99.5 300.5h322v-1225h-244z" />
    <glyph glyph-name="N" unicode="N" horiz-adv-x="1101" 
d="M98 9v1225h322l325 -789v789h244v-1225h-317l-330 802v-802h-244z" />
    <glyph glyph-name="O" unicode="O" horiz-adv-x="1088" 
d="M539 1247q468 0 468 -628q0 -629 -468 -629q-471 0 -471 629q0 628 471 628zM539 1075q-216 0 -216 -456q0 -458 216 -458q213 0 213 458q0 456 -213 456z" />
    <glyph glyph-name="P" unicode="P" horiz-adv-x="942" 
d="M98 1234h345q120 0 211.5 -22t152.5 -69.5t92 -122t31 -180.5q0 -109 -31.5 -186.5t-87.5 -127t-134.5 -73t-172.5 -23.5h-148v-421h-258v1225zM356 1070v-465h157q151 0 151 230q0 62 -10.5 106.5t-35.5 73t-66.5 42t-103.5 13.5h-92z" />
    <glyph glyph-name="Q" unicode="Q" horiz-adv-x="1062" 
d="M506 1247q470 0 470 -628q0 -363 -168 -523l56.5 -69.5l57.5 -66.5q11 -14 28.5 -33.5t28.5 -33.5l-178 -116l-78.5 115.5l-79.5 113.5q-29 -8 -65 -12t-72 -4q-470 0 -470 629q0 628 470 628zM574 412l29 -42.5l25 -36.5l24 -33.5l25 -33.5q25 57 34.5 144t9.5 209
q0 456 -215 456t-215 -456q0 -116 10 -203.5t35 -146t67.5 -88t107.5 -29.5q6 0 11 0.5t13 1.5l-20 27l-21 27l-35.5 47l-35.5 47z" />
    <glyph glyph-name="R" unicode="R" horiz-adv-x="1062" 
d="M359 9h-261v1225h334q118 0 210 -18t154.5 -59.5t95 -110.5t32.5 -171q0 -71 -15.5 -127t-44.5 -99t-69.5 -73t-91.5 -50l75 -127.5l78 -131.5l77.5 -131.5l74.5 -126.5h-290l-272 480h-87v-480zM359 1070v-413h142q159 0 159 206q0 207 -205 207h-96z" />
    <glyph glyph-name="S" unicode="S" horiz-adv-x="990" 
d="M821 1008q-162 78 -309 78q-85 0 -127 -39.5t-42 -100.5q0 -34 12.5 -60.5t34.5 -48t53 -38.5t69 -31q90 -34 162.5 -72.5t123.5 -81.5q116 -98 116 -263q0 -92 -31 -160.5t-89.5 -114t-143 -68t-192.5 -22.5q-110 0 -207 25t-191 70l82 170q79 -31 154.5 -53.5
t147.5 -22.5q209 0 209 175q0 40 -16 73.5t-46 61.5t-72.5 51t-95.5 43q-67 26 -125.5 55.5t-106.5 65.5q-54 42 -82.5 102t-28.5 137q0 67 29.5 126t86 103.5t139 70.5t189.5 26t200 -25.5t171 -63.5z" />
    <glyph glyph-name="T" unicode="T" horiz-adv-x="960" 
d="M16 1234h916v-181h-327v-1044h-261v1044h-328v181z" />
    <glyph glyph-name="U" unicode="U" horiz-adv-x="1085" 
d="M721 1234h261v-821q0 -114 -31.5 -194.5t-89.5 -132.5t-140.5 -76t-185.5 -24q-104 0 -186.5 25t-140 77t-88.5 133t-31 192v821h262v-821q0 -58 8 -104t28.5 -78.5t56 -49.5t91.5 -17q54 0 90 16.5t57 48.5t30 78.5t9 105.5v821z" />
    <glyph glyph-name="V" unicode="V" horiz-adv-x="1070" 
d="M28 1234h268l233 -914l116 458l115 456h269l-342 -1225h-317z" />
    <glyph glyph-name="W" unicode="W" horiz-adv-x="1445" 
d="M70 1234h243l121 -861l84 356l84 354h236l169 -713l65 433.5l65 430.5h220l-169 -1225h-319l-155 693l-37 -168l-41 -180l-41 -179.5l-37 -165.5h-311z" />
    <glyph glyph-name="X" unicode="X" horiz-adv-x="1154" 
d="M780 1234h271l-339 -585l184 -320l184 -320h-288l-224 431l-114 -216l-113 -215h-280l371 629l-171.5 298.5l-170.5 297.5h285l200 -376z" />
    <glyph glyph-name="Y" unicode="Y" horiz-adv-x="1071" 
d="M400 9v581l-196.5 322l-196.5 322h280l246 -429l126 215l125 214h267l-399 -657l5 8v-576h-257z" />
    <glyph glyph-name="Z" unicode="Z" horiz-adv-x="970" 
d="M107 1234h780v-185l-526 -857h512v-183h-809v179l544 863h-501v183z" />
    <glyph glyph-name="bracketleft" unicode="[" horiz-adv-x="577" 
d="M553 1443v-162h-215v-1326h215v-160h-456v1648h456z" />
    <glyph glyph-name="backslash" unicode="\" horiz-adv-x="651" 
d="M653 -173h-245l-420 1590h245z" />
    <glyph glyph-name="bracketright" unicode="]" horiz-adv-x="578" 
d="M14 1443h456v-1648h-456v160h216v1326h-216v162z" />
    <glyph glyph-name="asciicircum" unicode="^" horiz-adv-x="998" 
d="M20 949l352 512h238l351 -512h-260l-210 326l-106.5 -163l-105.5 -163h-259z" />
    <glyph glyph-name="underscore" unicode="_" horiz-adv-x="1109" 
d="M101 -52h889v-181h-889v181z" />
    <glyph glyph-name="grave" unicode="`" horiz-adv-x="523" 
d="M296 1300l208 -252h-225l-303 252h320z" />
    <glyph glyph-name="a" unicode="a" horiz-adv-x="964" 
d="M122 873q89 30 177 45.5t176 15.5q382 0 382 -306v-619h-203l-11 55q-45 -40 -102.5 -58t-132.5 -18q-168 0 -256.5 74t-88.5 218q1 69 26 124t81 93.5t146.5 59t222.5 20.5h66v76q0 113 -156 113q-60 0 -126.5 -13t-140.5 -40zM605 430h-62q-69 0 -112 -9.5t-67 -27.5
t-33 -44t-9 -58q0 -136 118 -136q37 0 67.5 11t52 30.5t33.5 45.5t12 56v132z" />
    <glyph glyph-name="b" unicode="b" horiz-adv-x="933" 
d="M100 8v1216h245v-347q38 29 90.5 43t116.5 14q81 0 145.5 -23t109.5 -75t68.5 -135t23.5 -204q0 -511 -415 -511q-53 0 -97 13t-82 33q-2 -8 -3 -13t-3 -10zM345 178q26 -11 52.5 -17t55.5 -6q58 0 95.5 19.5t59.5 59.5t30.5 101t8.5 144q0 75 -7.5 129.5t-24.5 89.5
t-44.5 51.5t-68.5 16.5q-157 0 -157 -190v-398z" />
    <glyph glyph-name="c" unicode="c" horiz-adv-x="845" 
d="M684 710q-108 56 -202 56q-49 0 -80 -22t-48.5 -61.5t-24 -94t-6.5 -119.5q0 -87 10 -146.5t31 -97t52.5 -54t73.5 -16.5q83 0 202 56l67 -158q-138 -67 -275 -67q-110 0 -189 27.5t-130 85.5t-75.5 149t-24.5 218q0 94 22.5 178.5t61.5 151.5q86 138 324 138
q169 0 281 -65z" />
    <glyph glyph-name="d" unicode="d" 
d="M575 1224h247v-1215h-199l-12 57q-42 -38 -103 -59t-149 -21q-77 0 -139.5 26t-107 81.5t-69 142t-24.5 208.5q0 236 100.5 363t302.5 127q48 0 84.5 -3.5t68.5 -13.5v307zM575 750q-35 16 -126 16q-54 0 -88.5 -22.5t-55 -65.5t-28 -106t-7.5 -144q0 -72 7 -123.5
t23.5 -85t44.5 -49t70 -15.5q30 0 58.5 9t51 28.5t36.5 49.5t14 71v437z" />
    <glyph glyph-name="e" unicode="e" horiz-adv-x="953" 
d="M636 538q-3 103 -35 167q-31 66 -124 66q-43 0 -72 -16.5t-47 -47t-27.5 -73.5t-12.5 -96h318zM318 395q4 -62 15 -107.5t33.5 -75t59 -43.5t90.5 -14q57 0 123.5 16.5t129.5 41.5l72 -156q-81 -33 -164.5 -52t-170.5 -19q-438 0 -438 469q0 205 90 343q88 136 307 136
q211 0 308.5 -104t97.5 -306v-129h-553z" />
    <glyph glyph-name="f" unicode="f" horiz-adv-x="745" 
d="M31 887h116v33q0 71 17 130t55 101t100.5 65.5t154.5 23.5q138 0 261 -53l-57 -163q-97 44 -177 44q-32 0 -52 -8t-31.5 -25.5t-16 -45.5t-4.5 -69v-33h224v-164h-224v-714h-250v714h-116v164z" />
    <glyph glyph-name="g" unicode="g" horiz-adv-x="974" 
d="M865 917v-894q0 -155 -99.5 -242t-305.5 -87q-90 0 -176 15.5t-169 47.5l54 163q74 -27 142.5 -41t133.5 -14q173 0 173 158v88q-46 -27 -100.5 -40.5t-100.5 -13.5q-237 0 -296 144q-30 72 -44.5 144t-14.5 145q0 84 23 160t68 143q45 63 126.5 99.5t196.5 41.5
q113 0 184 -47q3 9 5 16l4 14h196zM618 736q-31 22 -62.5 27t-59.5 5q-50 0 -85 -22t-57 -60.5t-31.5 -90.5t-9.5 -113q0 -128 32.5 -193t119.5 -65q69 0 107 35t46 100v377z" />
    <glyph glyph-name="h" unicode="h" horiz-adv-x="937" 
d="M100 1224h248v-351q38 26 88 43.5t116 17.5q90 0 154 -21t105 -59.5t60 -92.5t19 -120v-632h-247v632q0 25 -5 48t-19.5 40.5t-40 28t-67.5 10.5q-162 0 -163 -189v-570h-248v1215z" />
    <glyph glyph-name="i" unicode="i" horiz-adv-x="477" 
d="M250 1312q31 0 59 -10.5t48.5 -28.5t32.5 -42t12 -50t-12.5 -49.5t-33.5 -41t-48.5 -27.5t-57.5 -10q-31 0 -58.5 10t-48.5 27.5t-33 41t-12 49.5q0 27 12 50.5t32.5 41.5t48 28.5t59.5 10.5zM125 760h-136v158h383v-909h-247v751z" />
    <glyph glyph-name="j" unicode="j" horiz-adv-x="592" 
d="M242 760h-135v158h382v-974q0 -250 -300 -250q-64 0 -115.5 8.5t-89.5 23.5q2 8 4.5 20.5t4.5 21.5l4 16.5l4 16.5l22 89q38 -11 69.5 -18t54.5 -7q48 0 71.5 17.5t23.5 61.5v816zM367 1312q31 0 59 -10.5t48.5 -28t32.5 -41.5t12 -51q0 -26 -12 -49.5t-33 -41
t-48.5 -27.5t-58.5 -10q-30 0 -57.5 9.5t-48.5 27t-33.5 41t-12.5 50.5t12.5 51t33.5 42t48.5 28t57.5 10z" />
    <glyph glyph-name="k" unicode="k" horiz-adv-x="895" 
d="M100 1224h245v-606l126.5 150.5l126.5 150.5h291l-349 -402l180 -255.5l180 -253.5h-288l-267 370v-369h-245v1215z" />
    <glyph glyph-name="l" unicode="l" horiz-adv-x="507" 
d="M93 1224h248v-1015q0 -38 33 -38q15 0 38 5t51 13l40 -164q-51 -13 -93.5 -20t-77.5 -7q-53 0 -97 15t-75.5 42.5t-49 66.5t-17.5 87v1015z" />
    <glyph glyph-name="m" unicode="m" horiz-adv-x="1487" 
d="M104 919h199l14 -59q40 33 94.5 53.5t129.5 20.5q51 0 90.5 -6t69 -17.5t51.5 -28t39 -37.5q23 22 53 38.5t63.5 28t68.5 17t68 5.5q83 0 143.5 -21t99.5 -59.5t58 -92.5t19 -120v-632h-249v632q0 26 -6 49t-19.5 40.5t-34 27.5t-49.5 10q-30 0 -56.5 -11.5t-47 -33
t-32 -52t-11.5 -67.5v-595h-248v632q0 25 -4.5 48t-17.5 40.5t-37 28t-62 10.5q-139 0 -139 -193v-566h-247v910z" />
    <glyph glyph-name="n" unicode="n" horiz-adv-x="1000" 
d="M100 919h203l15 -61q43 33 103.5 54.5t130.5 21.5q90 0 154 -21t105 -59.5t60 -92.5t19 -120v-632h-247v632q0 25 -5 48t-19.5 40.5t-40 28t-67.5 10.5q-163 0 -163 -193v-566h-248v910z" />
    <glyph glyph-name="o" unicode="o" horiz-adv-x="987" 
d="M486 934q107 0 185.5 -32t130 -93t76.5 -149t25 -200t-25 -200t-76 -149t-129.5 -93t-186.5 -32q-107 0 -185.5 32t-129.5 93t-76 149t-25 200t25 200t76 149t129.5 93t185.5 32zM485 768q-85 0 -124.5 -75.5t-39.5 -231.5q0 -159 39.5 -232.5t124.5 -73.5
q86 0 125.5 74.5t39.5 231.5t-39.5 232t-125.5 75z" />
    <glyph glyph-name="p" unicode="p" horiz-adv-x="926" 
d="M100 919h199l15 -66q92 81 228 81q89 0 156 -22.5t111.5 -71t67 -124t22.5 -181.5q0 -116 -23.5 -207.5t-73 -155.5t-126.5 -98t-184 -34q-87 0 -145 21v-367h-247v1225zM347 226q22 -9 47.5 -15t50.5 -6q56 0 94.5 19t62.5 57.5t34.5 97t10.5 137.5q0 59 -7.5 106
t-24.5 79.5t-46.5 49.5t-72.5 17q-68 0 -108.5 -46t-40.5 -127v-369z" />
    <glyph glyph-name="q" unicode="q" horiz-adv-x="931" 
d="M815 919v-1225h-249v404q-83 -58 -208 -58q-79 0 -143 21.5t-109 72.5t-69 134.5t-24 206.5q0 105 25 189.5t76 144.5t128.5 92.5t182.5 32.5q61 0 107.5 -12t79.5 -32q2 8 4.5 15.5l4.5 13.5h194zM566 741q-25 13 -52.5 20t-56.5 7q-119 0 -155 -83q-38 -83 -38 -229
q0 -68 7.5 -115.5t24.5 -77.5t45.5 -44t69.5 -14q155 0 155 172v364z" />
    <glyph glyph-name="r" unicode="r" horiz-adv-x="866" 
d="M84 161h131v601h-131v157h339l10 -67q37 39 90.5 60.5t132.5 21.5q96 0 160 -29l-48 -201q-88 43 -137 43q-164 0 -164 -241v-345h175v-152h-558v152z" />
    <glyph glyph-name="s" unicode="s" horiz-adv-x="872" 
d="M693 695q-125 72 -238 73q-115 -6 -115 -94q0 -21 11 -36.5t29.5 -26.5t42.5 -19.5l50 -17.5h-1q74 -23 133.5 -50t101 -62.5t64 -82.5t22.5 -110q0 -150 -128 -221q-57 -30 -123 -46t-142 -16q-106 0 -189 24.5t-149 62.5q7 15 17 34.5l20 40.5l20 41.5l18 36.5
l63 -24.5t62.5 -19.5t69 -13t82.5 -5q25 0 47 4.5t38.5 15.5t26.5 29t10 46q0 31 -14.5 53.5t-39 39.5t-57 30t-68.5 25h1q-272 83 -272 264q0 94 75 181q37 36 109.5 59t172.5 23q107 0 188 -21.5t146 -52.5q-5 -8 -11.5 -21.5t-11.5 -21.5q-4 -8 -7.5 -16t-7.5 -16z" />
    <glyph glyph-name="t" unicode="t" horiz-adv-x="727" 
d="M169 1106h249v-223h244v-162h-244v-425q0 -35 2.5 -61t10.5 -43t23 -25.5t39 -8.5q55 0 147 29l59 -154q-63 -25 -120 -36t-114 -11q-152 4 -224 81t-72 229v425h-158l18 162h140v223z" />
    <glyph glyph-name="u" unicode="u" horiz-adv-x="982" 
d="M622 919h244v-910h-200l-9 50q-92 -73 -242 -73q-90 0 -151.5 25.5t-100 71t-55 109.5t-16.5 142v585h250l2 -585q0 -51 3.5 -85t17 -54.5t39 -28.5t70.5 -8q65 0 106.5 45.5t41.5 137.5v578z" />
    <glyph glyph-name="v" unicode="v" horiz-adv-x="1002" 
d="M30 919h265l199 -648l52 166.5l49.5 158l49.5 158l52 165.5h261l-319 -910h-300z" />
    <glyph glyph-name="w" unicode="w" horiz-adv-x="1478" 
d="M64 919h254l145 -617l77 243l77 241h238l148 -480l71.5 307.5l71.5 305.5h243l-220 -910h-312l-130 426l-64.5 -214l-64.5 -212h-303z" />
    <glyph glyph-name="x" unicode="x" horiz-adv-x="1078" 
d="M968 919l-296 -435l80.5 -117l84 -120.5l84 -120.5l80.5 -117h-288l-183 293l-91 -147l-91 -146h-289l330 475l-148.5 218l-147.5 217h278l159 -256l81 129l79 127h278z" />
    <glyph glyph-name="y" unicode="y" horiz-adv-x="1000" 
d="M43 919h264l224 -655l92 329l91 326h255l-317 -1013q-15 -47 -38 -86t-56 -67t-77.5 -43.5t-103.5 -15.5q-45 0 -94 9t-103 26l37 162q42 -13 72 -19.5t50 -6.5q23 0 39.5 8.5t29 26t22 44.5t17.5 65h-57z" />
    <glyph glyph-name="z" unicode="z" horiz-adv-x="920" 
d="M124 919h686v-179l-430 -560h416v-171h-707v171h16l106.5 143.5l104 140l104 139.5l107.5 144h-403v172z" />
    <glyph glyph-name="braceleft" unicode="{" horiz-adv-x="624" 
d="M381 812q0 -141 -137 -195q137 -54 137 -194v-287q0 -55 10.5 -90t33 -55.5t57 -28t83.5 -7.5v-165q-122 0 -203.5 21.5t-131 65t-70.5 108.5t-21 151v286q0 29 -6 49.5t-21 33.5t-41 19t-67 6v175q41 0 67 6t41 19t21 33t6 49v287q0 87 21 152t70.5 108.5t131.5 65
t203 21.5v-167q-50 0 -84.5 -7.5t-57 -27.5t-32.5 -55t-10 -90v-287z" />
    <glyph glyph-name="bar" unicode="|" horiz-adv-x="440" 
d="M95 1421h238v-1594h-238v1594z" />
    <glyph glyph-name="braceright" unicode="}" horiz-adv-x="624" 
d="M232 423q0 140 136 194q-136 54 -136 195v287q0 54 -10 88.5t-32 55t-57 28.5t-84 8v167q120 0 202 -22t131.5 -65.5t71 -108.5t21.5 -151v-287q0 -30 6 -50t21 -33t41.5 -18.5t67.5 -5.5v-175q-41 0 -67.5 -5.5t-41.5 -18.5t-21 -33.5t-6 -50.5v-286q0 -86 -21 -151
t-70.5 -108.5t-131.5 -65t-203 -21.5v165q49 0 83.5 8t56.5 28t32.5 55.5t10.5 89.5v287z" />
    <glyph glyph-name="asciitilde" unicode="~" horiz-adv-x="972" 
d="M62 509q19 39 45 73t60 58.5t77.5 39t97.5 14.5q38 0 67.5 -6t52.5 -15t41.5 -20l35.5 -22q23 -15 45 -27t44 -12q62 0 112 111l155 -93q-21 -35 -47.5 -67.5t-61 -57.5t-78.5 -40t-99 -15q-34 0 -62.5 5.5t-52.5 14.5t-44.5 20t-38.5 22q-25 15 -48 27t-43 12
q-26 0 -53.5 -30t-52.5 -74z" />
    <glyph glyph-name="nonbreakingspace" unicode="&#xa0;" horiz-adv-x="855" 
 />
    <glyph glyph-name="exclamdown" unicode="&#xa1;" horiz-adv-x="418" 
d="M213 683q-32 0 -59.5 10t-48 27t-32 40t-11.5 49q0 25 11 47.5t31 39.5t48 27.5t61 10.5q29 0 56 -10t48 -27t33.5 -39.5t12.5 -48.5t-12.5 -49t-33.5 -40t-48 -27t-56 -10zM327 -328h-245v821h245v-821z" />
    <glyph glyph-name="cent" unicode="&#xa2;" horiz-adv-x="737" 
d="M637 710q-108 56 -204 56q-49 0 -80 -22t-48.5 -61.5t-24 -94t-6.5 -119.5q0 -87 10 -146.5t30.5 -97t52 -54t74.5 -16.5q41 0 91 14t111 43l68 -159q-46 -22 -89.5 -36t-87.5 -22v-250h-225v254q-153 29 -223 142t-70 325q0 171 66 303q30 60 86 99t141 56v267h225v-264
q48 -8 92 -22.5t79 -36.5z" />
    <glyph glyph-name="sterling" unicode="&#xa3;" horiz-adv-x="984" 
d="M891 189v-180h-847v175q40 7 68.5 21t47 38.5t27 61.5t8.5 91v222h-151v133h151v42q0 191 83 319q81 125 315 125q51 0 93.5 -4t80 -11.5t73 -18.5t71.5 -26l-58 -170q-135 60 -252 60q-46 0 -75 -18.5t-45.5 -54t-22.5 -86.5t-6 -115v-42h338v-133h-338v-222
q0 -74 -23.5 -122.5t-70.5 -84.5h533z" />
    <glyph glyph-name="currency" unicode="&#xa4;" horiz-adv-x="882" 
d="M435 947q29 0 53 -2t47 -7q5 7 9 13.5t8 11.5h229l-85 -110q37 -40 53 -83q10 -28 15.5 -58t5.5 -61t-5.5 -60.5t-15.5 -58.5q-14 -37 -47 -75l52.5 -68l50.5 -67h-236l-29 44q-47 -11 -105 -11t-107 11l-14.5 -23t-14.5 -21h-237l105 136q-32 36 -47 74
q-10 29 -15.5 58.5t-5.5 60.5t5.5 61t15.5 58q8 20 20.5 40t31.5 40l-43 57.5l-41 55.5h230l17 -26q22 5 47 7.5t53 2.5zM435 806q-108 0 -108 -155q0 -154 108 -154q107 0 107 154q0 155 -107 155z" />
    <glyph glyph-name="yen" unicode="&#xa5;" horiz-adv-x="1085" 
d="M654 573q-2 -2 -2 -3zM406 9v296h-244v159h244v109h-244v160h154l-74 121.5l-76.5 125l-76 124l-73.5 120.5h277l244 -425l126 213l124 212h265l-298 -491h150v-160h-244v-109h244v-159h-244v-296h-254z" />
    <glyph glyph-name="brokenbar" unicode="&#xa6;" horiz-adv-x="398" 
d="M333 491v-664h-238v664h238zM95 819v602h238v-602h-238z" />
    <glyph glyph-name="section" unicode="&#xa7;" horiz-adv-x="923" 
d="M751 1110q-73 34 -135.5 51.5t-116.5 17.5t-90.5 -27.5t-36.5 -72.5q0 -29 10.5 -51t31 -42t50.5 -40l69 -44q15 -11 32 -21.5l35 -21.5q73 -47 123 -89.5t81 -84.5t44.5 -85.5t13.5 -93.5q0 -41 -11.5 -80.5t-31.5 -76.5t-47 -71.5t-59 -65.5q67 -86 67 -176
q0 -50 -22.5 -97.5t-68.5 -84.5t-116 -59.5t-164 -22.5q-159 0 -326 73l74 160q148 -69 252 -69q56 0 92 27.5t36 72.5q0 27 -10.5 48t-31 40.5t-50 40l-66.5 44.5l-34 22.5l-37 25.5l1 -1q-74 47 -124 89t-81 83.5t-44.5 85t-13.5 93.5q0 42 11.5 82t31.5 77t47 71.5
t59 66.5q-35 45 -51 87.5t-16 87.5q0 51 22.5 98.5t68.5 84t116 58.5t164 22q161 0 328 -72zM349 804q-5 -6 -9 -12t-9 -11q-13 8 -27 20zM450 710q-34 18 -63.5 35.5t-55.5 35.5q-20 -29 -33.5 -61t-13.5 -80q0 -35 8 -66t28.5 -59.5t54 -55.5t84.5 -54l36.5 -20.5
l28.5 -16t25.5 -16l27.5 -19.5q19 27 33 60.5t14 81.5q0 34 -8.5 65t-28.5 60t-53.5 56.5t-83.5 53.5z" />
    <glyph glyph-name="dieresis" unicode="&#xa8;" horiz-adv-x="878" 
d="M638 1282q28 0 54 -9.5t45.5 -25.5t31 -37.5t11.5 -45.5t-11.5 -45.5t-31 -37.5t-45.5 -25.5t-54 -9.5q-29 0 -54.5 9.5t-45 26t-30.5 37.5t-11 45t11.5 45.5t31 37.5t45 25.5t53.5 9.5zM227 1282q28 0 53.5 -9.5t45 -25.5t31 -37.5t11.5 -45.5t-11.5 -45.5t-31 -37.5
t-45 -25.5t-53.5 -9.5q-30 0 -55.5 9.5t-45 26t-30.5 37.5t-11 45t11 45.5t30.5 37.5t45 25.5t55.5 9.5z" />
    <glyph glyph-name="copyright" unicode="&#xa9;" horiz-adv-x="1456" 
d="M716 1475q140 0 258.5 -38.5t205 -114t135 -187.5t48.5 -258t-46.5 -257.5t-131 -187t-204 -114t-265.5 -38.5t-265 38.5t-203.5 114t-131 187t-46.5 257.5q0 283 183 444q175 154 463 154zM907 1057q-85 41 -164 41q-68 0 -94.5 -54t-26.5 -164q0 -47 4 -86.5t16 -69
t34 -46t59 -16.5q42 0 85.5 8.5t90.5 25.5l44 -124q-96 -45 -217 -45q-76 0 -136 19t-101.5 62t-63.5 110.5t-22 165.5q0 79 17 143.5t55 109.5t100.5 69.5t152.5 24.5q63 0 114.5 -13t99.5 -27zM715 1333q-186 0 -313 -107v1q-118 -100 -118 -347q0 -121 29.5 -207
t85.5 -140.5t135.5 -80t180.5 -25.5q100 0 179.5 25.5t135 80t85.5 140.5t30 207q0 248 -118 347v-1q-127 107 -312 107z" />
    <glyph glyph-name="ordfeminine" unicode="&#xaa;" horiz-adv-x="871" 
d="M512 1132v41q0 76 -100 76q-53 0 -108 -15.5t-121 -41.5l-57 144q83 28 152 44t138 16q318 0 318 -223v-480h-180l-5 28q-33 -24 -76 -35.5t-103 -11.5q-283 0 -283 227q0 58 24.5 101.5t71 72.5t114 43t152.5 14h63zM55 575h745v-161h-745v161zM512 1006
q-50 0 -87.5 -3.5t-62.5 -14t-38 -30.5t-13 -54q0 -87 84 -87q24 0 45.5 8t37 20.5t25 28.5t9.5 32v100z" />
    <glyph glyph-name="guillemotleft" unicode="&#xab;" horiz-adv-x="1041" 
d="M46 403v133l299 321h224l-266 -387l65.5 -95l67.5 -99l67.5 -99l65.5 -94h-224zM430 403v133l298 321h225l-267 -387l65 -95l68.5 -99l68.5 -99l65 -94h-225z" />
    <glyph glyph-name="logicalnot" unicode="&#xac;" horiz-adv-x="853" 
d="M-9 639h748v-417h-226v247h-522v170z" />
    <glyph glyph-name="uni00AD" unicode="&#xad;" horiz-adv-x="759" 
d="M98 640h549v-174h-549v174z" />
    <glyph glyph-name="registered" unicode="&#xae;" horiz-adv-x="1456" 
d="M716 1475q140 0 258.5 -38.5t205 -114t135 -187.5t48.5 -258t-46.5 -257.5t-131 -187t-204 -114t-265.5 -38.5t-265 38.5t-203.5 114t-131 187t-46.5 257.5q0 283 183 444q175 154 463 154zM715 1333q-186 0 -313 -107v1q-118 -100 -118 -347q0 -121 29.5 -207
t85.5 -140.5t135.5 -80t180.5 -25.5q100 0 179.5 25.5t135 80t85.5 140.5t30 207q0 248 -118 347v-1q-127 107 -312 107zM453 1224h223q81 0 142.5 -10.5t103 -35.5t63 -65.5t21.5 -100.5q0 -129 -134 -191l46 -69.5l48 -73l47 -72.5l44 -69h-215l-156 259h-34v-259h-199
v687zM652 1100v-181h86q68 0 68 93q0 28 -6.5 45.5t-22 27t-40.5 12.5t-61 3h-24z" />
    <glyph glyph-name="macron" unicode="&#xaf;" horiz-adv-x="772" 
d="M98 1106v159h562v-159h-562z" />
    <glyph glyph-name="degree" unicode="&#xb0;" horiz-adv-x="764" 
d="M377 1278q65 0 122.5 -22t101 -60.5t68.5 -89.5t25 -108t-25 -108t-68.5 -88.5t-101 -59.5t-122.5 -22q-66 0 -124 22t-101.5 59.5t-68.5 88.5t-25 108t25 108t68.5 89.5t101.5 60.5t124 22zM377 1132q-22 0 -41.5 -10.5t-34 -28.5t-23 -42.5t-8.5 -52.5q0 -27 8.5 -51.5
t23 -42.5t34 -28.5t41.5 -10.5q21 0 40.5 10.5t33.5 28.5t22.5 42.5t8.5 51.5q0 28 -8.5 52.5t-22.5 42.5t-33.5 28.5t-40.5 10.5z" />
    <glyph glyph-name="plusminus" unicode="&#xb1;" horiz-adv-x="847" 
d="M44 639h253v252h238v-252h255v-178h-255v-200h-238v200h-253v178zM44 186h746v-177h-746v177z" />
    <glyph glyph-name="twosuperior" unicode="&#xb2;" horiz-adv-x="707" 
d="M71 1140q64 48 129.5 70.5t134.5 22.5q72 0 124.5 -16t87.5 -44t52 -67t17 -85q0 -50 -17 -91t-47 -77t-71.5 -68.5t-89.5 -65.5h1q-60 -44 -69 -85h293v-152h-530v49q0 54 10.5 100.5t36 89t67.5 82.5t106 81q18 12 35 24.5t30 28t20.5 36t7.5 48.5q0 60 -64 60
q-37 0 -83 -25t-95 -59z" />
    <glyph glyph-name="threesuperior" unicode="&#xb3;" horiz-adv-x="702" 
d="M72 1142q60 38 127 64.5t149 26.5q58 0 105 -13t81 -38.5t52.5 -62.5t18.5 -85q0 -103 -105 -153q127 -58 127 -173q0 -60 -22.5 -104.5t-63.5 -74t-99 -44t-129 -14.5q-69 0 -133 22.5t-127 57.5l96 129q37 -26 76.5 -44.5t85.5 -18.5q104 0 104 97q0 25 -9 43t-31 30
t-58 17.5t-90 5.5v135q133 0 149 22q15 19 15 48q0 70 -60 70q-37 0 -80 -22.5t-88 -52.5z" />
    <glyph glyph-name="acute" unicode="&#xb4;" horiz-adv-x="524" 
d="M219 1302h321l-303 -252h-226z" />
    <glyph glyph-name="mu" unicode="&#xb5;" horiz-adv-x="924" 
d="M630 919h244v-910h-200l-10 50q-91 -73 -241 -73q-23 0 -43.5 1.5t-40.5 5.5q3 -24 4.5 -49t1.5 -54v-181h-245v1210h251l1 -585q0 -51 3.5 -85t17 -54.5t39.5 -28.5t71 -8q64 0 105.5 45.5t41.5 137.5v578z" />
    <glyph glyph-name="mu" unicode="&#x3bc;" horiz-adv-x="924" 
d="M630 919h244v-910h-200l-10 50q-91 -73 -241 -73q-23 0 -43.5 1.5t-40.5 5.5q3 -24 4.5 -49t1.5 -54v-181h-245v1210h251l1 -585q0 -51 3.5 -85t17 -54.5t39.5 -28.5t71 -8q64 0 105.5 45.5t41.5 137.5v578z" />
    <glyph glyph-name="paragraph" unicode="&#xb6;" horiz-adv-x="1156" 
d="M1035 1224v-1530h-232v1361h-113v-1361h-231v763q-183 8 -301 86q-139 94 -139 303q0 93 32 164t93 118.5t149 71.5t199 24h543zM459 1051q-33 -6 -66.5 -17.5t-64.5 -26.5h1q-63 -33 -63 -157q0 -180 78 -195q72 -18 115 -22v418z" />
    <glyph glyph-name="periodcentered" unicode="&#xb7;" horiz-adv-x="417" 
d="M208 705q29 0 55.5 -10.5t47 -28.5t32.5 -41.5t12 -49.5q0 -27 -12 -50.5t-32.5 -41t-47 -28t-55.5 -10.5q-31 0 -58 10.5t-47.5 28t-32 41t-11.5 50.5q0 26 11.5 49.5t32 41.5t47.5 28.5t58 10.5z" />
    <glyph glyph-name="cedilla" unicode="&#xb8;" horiz-adv-x="537" 
d="M171 83h156l-10 -125q182 -10 182 -146q0 -50 -21 -85t-57.5 -57.5t-85.5 -33t-105 -10.5q-48 0 -86.5 6t-71.5 13q-2 0 -7.5 1.5t-12.5 2.5t-13 2.5t-7 1.5l34 139q48 -15 83.5 -21.5t60.5 -6.5q78 0 78 42q0 35 -20.5 42.5t-60.5 7.5h-30h-6.5t-11 -0.5t-19.5 -1.5
t-32 -3z" />
    <glyph glyph-name="onesuperior" unicode="&#xb9;" horiz-adv-x="553" 
d="M445 1224v-742h-216v546l-82 -47.5l-76 -44.5l-95 135l258 153h211z" />
    <glyph glyph-name="ordmasculine" unicode="&#xba;" horiz-adv-x="877" 
d="M58 575h745v-161h-745v161zM434 1249q-30 0 -52.5 -10.5t-37.5 -35.5t-22.5 -66.5t-7.5 -103.5q0 -63 8 -105t23.5 -66.5t37.5 -34.5t51 -10q28 0 50 10.5t37 35t23 66t8 104.5q0 62 -7.5 103.5t-22.5 66.5t-37 35.5t-51 10.5zM434 1394q339 0 339 -361q0 -90 -23.5 -158
t-68 -113t-107 -67.5t-140.5 -22.5q-79 0 -142 22t-107.5 67t-68 112.5t-23.5 159.5q0 361 341 361z" />
    <glyph glyph-name="guillemotright" unicode="&#xbb;" horiz-adv-x="1040" 
d="M978 403l-298 -320h-225l267 387l-65.5 95l-68 99l-68.5 99l-65 94h225l298 -321v-133zM593 403l-298 -320h-224l266 387l-65.5 95l-67.5 99l-68 99l-65 94h224l298 -321v-133z" />
    <glyph glyph-name="onequarter" unicode="&#xbc;" horiz-adv-x="1520" 
d="M1106 746h241l-275 -504h75q5 23 13 48.5t13 46.5l172 1v-96h77v-165h-78v-74h-201v74h-283v170zM244 9l831 1215h247l-831 -1215h-247zM516 1224v-742h-216v546l-82 -47.5t-75 -44.5l-95 135l257 153h211z" />
    <glyph glyph-name="onehalf" unicode="&#xbd;" horiz-adv-x="1591" 
d="M248 9l831 1215h247l-831 -1215h-247zM520 1224v-742h-216v546l-82 -47.5l-76 -44.5l-95 135l258 153h211zM953 657q124 93 262 93q72 0 125 -16t88 -44t52 -67t17 -85q0 -49 -18 -90.5t-48.5 -77.5t-71.5 -69t-87 -66q-28 -20 -46 -42t-22 -42h293v-151h-530v48
q0 53 10.5 99.5t36 89.5t67.5 83t105 81h-1l36 25.5t30 28t20.5 35.5t7.5 48q0 60 -63 60q-36 0 -82.5 -25t-97.5 -57z" />
    <glyph glyph-name="threequarters" unicode="&#xbe;" horiz-adv-x="1517" 
d="M1097 746h241l-275 -504h75q6 23 13.5 48.5t12.5 46.5l172 1v-96h77v-165h-78v-74h-201v74h-283v170zM298 9l831 1215h248l-832 -1215h-247zM65 1142q60 38 127 64.5t149 26.5q58 0 105 -13t81 -38.5t52.5 -62.5t18.5 -85q0 -103 -105 -153q127 -58 127 -173
q0 -60 -22.5 -104.5t-63.5 -74t-99 -44t-129 -14.5q-69 0 -133 22.5t-127 57.5l95 129q38 -26 77.5 -44.5t85.5 -18.5q104 0 104 97q0 25 -9.5 43t-31 30t-57.5 17.5t-90 5.5v135q132 0 149 22q15 19 15 48q0 70 -60 70q-37 0 -80 -22.5t-88 -52.5z" />
    <glyph glyph-name="questiondown" unicode="&#xbf;" horiz-adv-x="794" 
d="M404 683q-29 0 -56 10t-48 27t-33.5 40t-12.5 49t12 48.5t32 39.5t47.5 27t58.5 10t58.5 -10t48 -27t32.5 -39.5t12 -48.5q0 -27 -13 -50.5t-34 -40t-48.5 -26t-55.5 -9.5zM762 -192q-72 -52 -160.5 -87t-198.5 -35q-74 0 -140 17t-120 49q-56 37 -87 92.5t-31 127.5
q0 42 8.5 73t25 57t41 49t56.5 48q128 98 128 294h245q0 -54 -9 -107t-30.5 -103t-58.5 -97t-94 -89q-32 -25 -49.5 -56t-17.5 -66q0 -60 38.5 -86.5t98.5 -26.5q98 0 253 93z" />
    <glyph glyph-name="Agrave" unicode="&#xc0;" horiz-adv-x="1069" 
d="M669 1234l378 -1225h-264l-76 273h-355l-38 -137l-38 -136h-264l377 1225h280zM541 1577l209 -253h-227l-306 253h324zM531 922l-65.5 -234l-66.5 -236h260z" />
    <glyph glyph-name="Aacute" unicode="&#xc1;" horiz-adv-x="1069" 
d="M666 1234l377 -1225h-264l-77 273h-354l-38 -137l-38 -136h-265l377 1225h282zM525 1577h324l-306 -253h-227zM526 921l-63 -233l-64 -236h257z" />
    <glyph glyph-name="Acircumflex" unicode="&#xc2;" horiz-adv-x="1094" 
d="M679 1234l378 -1225h-264l-76 273h-355l-38.5 -137l-37.5 -136h-264l378 1225h279zM540 921l-64.5 -233l-66.5 -236h261zM661 1577l256 -253h-250l-121 92l-121 -92h-250l257 253h229z" />
    <glyph glyph-name="Atilde" unicode="&#xc3;" horiz-adv-x="1093" 
d="M678 1234l378 -1225h-264l-76 273h-355l-38.5 -137l-37.5 -136h-264l378 1225h279zM484 1382q-2 1 -2.5 1t1.5 -1h1zM217 1396q15 36 36.5 66t50 52.5t64.5 35t80 12.5q33 0 57 -4.5t42.5 -12t32.5 -16t26 -17.5l29.5 -19t25.5 -9q13 0 33.5 28.5t43.5 67.5l143 -83
q-15 -33 -37.5 -63t-51.5 -53.5t-65 -37.5t-79 -14q-90 0 -148 42h1q-5 4 -10 6.5t-7 4.5h1l-28.5 18.5t-21.5 7.5q-15 0 -34.5 -26t-43.5 -66zM540 922l-65.5 -234l-66.5 -236h260z" />
    <glyph glyph-name="Adieresis" unicode="&#xc4;" horiz-adv-x="1109" 
d="M687 1234l378 -1225h-264l-76 273h-355l-38.5 -137l-37.5 -136h-264l378 1225h279zM759 1561q29 0 55 -9.5t45.5 -25.5t31 -37.5t11.5 -45.5t-12 -46t-32 -38t-45.5 -25.5t-53.5 -9.5q-29 0 -55 9.5t-45.5 25.5t-31 38t-11.5 46q0 25 11.5 46.5t31 37.5t45.5 25t55 9z
M343 1561q30 0 56 -9.5t45.5 -25.5t30.5 -37.5t11 -45.5t-11.5 -46t-31 -38t-45.5 -25.5t-55 -9.5t-54.5 9.5t-45 25.5t-31 38t-11.5 46q0 25 11.5 46.5t31 37.5t45 25t54.5 9zM547 921l-64 -233l-66 -236h261z" />
    <glyph glyph-name="Aring" unicode="&#xc5;" horiz-adv-x="1100" 
d="M683 1234l378 -1225h-264l-76 273h-355l-38.5 -137l-37.5 -136h-264l378 1225h279zM545 1652q46 0 87.5 -15t73 -41.5t50 -61t18.5 -73.5t-18 -73.5t-49.5 -61t-73 -41.5t-88.5 -15q-48 0 -89.5 15t-72 41.5t-48.5 61t-18 73.5t18 73.5t49 61t72.5 41.5t88.5 15z
M545 1536q-48 0 -48 -75q0 -74 48 -74t48 74q0 75 -48 75zM543 921l-64 -233l-66 -236h261z" />
    <glyph glyph-name="AE" unicode="&#xc6;" horiz-adv-x="1624" 
d="M1539 9h-736l-39 273h-362l-53 -137l-53 -136h-263l502 1225h952v-172h-604l28 -163.5l28 -163.5h512v-180h-479l32 -185.5l32 -186.5h503v-174zM739 452l-22 129.5l-20 112.5l-20 114l-23 134l-92 -243l-93 -247h270z" />
    <glyph glyph-name="Ccedilla" unicode="&#xc7;" horiz-adv-x="883" 
d="M375 1q-91 19 -155 67t-105 125.5t-60 184t-19 241.5q0 159 33 277t95.5 196t152.5 116.5t203 38.5q61 0 105.5 -5t81 -14t68 -21.5l65.5 -26.5l-76 -170q-25 12 -54 23t-57.5 19t-55 13t-47.5 5q-58 0 -105.5 -27t-81.5 -82.5t-52.5 -140.5t-18.5 -201
q0 -118 12.5 -203.5t39 -140.5t68.5 -81t101 -26q118 0 243 55l68 -168q-28 -13 -57 -24t-62 -20t-70 -14.5t-82 -6.5q-2 -8 -3 -14.5t-2 -17.5q184 -13 184 -147q0 -50 -21.5 -85.5t-58.5 -58.5t-86.5 -33.5t-106.5 -10.5q-45 0 -82.5 6t-69.5 12q-3 0 -10 1.5t-14.5 2.5
t-14 2.5t-8.5 1.5l34 141q96 -28 144 -28q80 0 80 43q0 35 -21 42.5t-61 7.5h-29q-8 0 -22 -0.5t-49 -3.5z" />
    <glyph glyph-name="Egrave" unicode="&#xc8;" horiz-adv-x="843" 
d="M74 1234h760v-173h-501v-335h446v-172h-446v-375h502v-170h-761v1225zM425 1577l210 -253h-227l-306 253h323z" />
    <glyph glyph-name="Eacute" unicode="&#xc9;" horiz-adv-x="844" 
d="M58 1234h760v-173h-501v-335h446v-172h-446v-375h502v-170h-761v1225zM479 1577h323l-306 -253h-227z" />
    <glyph glyph-name="Ecircumflex" unicode="&#xca;" horiz-adv-x="869" 
d="M78 1234h760v-173h-502v-335h447v-172h-447v-375h503v-170h-761v1225zM579 1577l259 -253h-252l-121 92l-121 -92h-252l260 253h227z" />
    <glyph glyph-name="Edieresis" unicode="&#xcb;" horiz-adv-x="888" 
d="M86 1234h761v-173h-502v-335h446v-172h-446v-375h503v-170h-762v1225zM683 1561q30 0 56 -9.5t45.5 -25.5t31 -37.5t11.5 -45.5t-11.5 -46t-31 -38t-45.5 -25.5t-56 -9.5q-28 0 -53.5 9.5t-45 25.5t-31.5 38t-12 46t11 45.5t30.5 37.5t45.5 25.5t55 9.5zM268 1561
q28 0 54 -9t46 -25t31.5 -37.5t11.5 -46.5q0 -24 -11.5 -46t-31.5 -38t-46 -25.5t-54 -9.5q-29 0 -54.5 9.5t-45 25.5t-31 38t-11.5 46t11 45.5t30.5 37.5t45.5 25.5t55 9.5z" />
    <glyph glyph-name="Igrave" unicode="&#xcc;" horiz-adv-x="582" 
d="M39 1234h513v-159h-126v-908h126v-158h-513v158h121v908h-121v159zM316 1577l209 -253h-228l-303 253h322z" />
    <glyph glyph-name="Iacute" unicode="&#xcd;" horiz-adv-x="605" 
d="M21 1234h511v-159h-126v-908h126v-158h-511v158h121v908h-121v159zM289 1577h323l-306 -253h-227z" />
    <glyph glyph-name="Icircumflex" unicode="&#xce;" horiz-adv-x="748" 
d="M116 1234h510v-159h-125v-908h125v-158h-510v158h121v908h-121v159zM484 1577l257 -253h-250l-121 92l-122 -92h-250l258 253h228z" />
    <glyph glyph-name="Idieresis" unicode="&#xcf;" horiz-adv-x="693" 
d="M77 1234h513v-159h-126v-908h126v-158h-513v158h121v908h-121v159zM515 1561q28 0 54 -9t45.5 -25t31 -37.5t11.5 -46.5q0 -24 -11.5 -46t-31 -38t-45.5 -25.5t-54 -9.5q-29 0 -55 9.5t-45.5 25.5t-31 38t-11.5 46q0 25 11 46.5t30.5 37.5t45.5 25t56 9zM180 1561
q28 0 54 -9t45.5 -25t31 -37.5t11.5 -46.5q0 -24 -11.5 -46t-31 -38t-45.5 -25.5t-54 -9.5q-29 0 -54.5 9.5t-45.5 25.5t-31.5 38t-11.5 46q0 25 11.5 46.5t31.5 37.5t45.5 25t54.5 9z" />
    <glyph glyph-name="Eth" unicode="&#xd0;" horiz-adv-x="1149" 
d="M183 1234h319q323 0 443 -162q121 -164 121 -451q0 -146 -28.5 -260t-86 -192t-146 -119t-208.5 -41h-414v557h-133v168h133v500zM443 734h272v-168h-272v-390h88q164 0 218 119q28 61 40.5 140.5t12.5 185.5q0 88 -12 165t-35 144q-42 130 -218 129l-94 -1v-324z" />
    <glyph glyph-name="Ntilde" unicode="&#xd1;" horiz-adv-x="1058" 
d="M195 1396q30 72 87 119t141 47q31 0 55 -4.5t42.5 -12t32.5 -16.5l26 -17l30.5 -19t26.5 -9q14 0 35 28.5t43 67.5l144 -83q-17 -33 -39 -63t-50.5 -53.5t-64.5 -37.5t-81 -14t-80.5 10t-66.5 32q-6 4 -13 8h1l-30 20.5t-23 8.5q-14 0 -34 -26t-46 -66zM77 9v1225h322
l323 -787v787h245v-1225h-316l-330 802v-802h-244z" />
    <glyph glyph-name="Ograve" unicode="&#xd2;" horiz-adv-x="1037" 
d="M521 1247q469 0 469 -628q0 -629 -469 -629q-471 0 -471 629q0 628 471 628zM449 1577l210 -253h-226l-306 253h322zM521 1075q-215 0 -215 -456q0 -458 215 -458t215 458q0 456 -215 456z" />
    <glyph glyph-name="Oacute" unicode="&#xd3;" horiz-adv-x="1038" 
d="M504 1247q470 0 470 -628q0 -629 -470 -629q-471 0 -471 629q0 628 471 628zM593 1577h323l-306 -253h-226zM504 1075q-215 0 -215 -456q0 -458 215 -458t215 458q0 456 -215 456z" />
    <glyph glyph-name="Ocircumflex" unicode="&#xd4;" horiz-adv-x="1053" 
d="M520 1247q469 0 469 -628q0 -629 -469 -629q-470 0 -470 629q0 628 470 628zM520 1075q-215 0 -215 -456q0 -458 215 -458t215 458q0 456 -215 456zM642 1577l259 -253h-251l-121 92l-122 -92h-251l259 253h227z" />
    <glyph glyph-name="Otilde" unicode="&#xd5;" horiz-adv-x="1058" 
d="M523 1247q469 0 469 -628q0 -629 -469 -629q-471 0 -471 629q0 628 471 628zM196 1397q15 36 36.5 66t50 52t63.5 34.5t79 12.5q33 0 57.5 -4.5t43 -12t32 -16t25.5 -17.5l29.5 -19.5t25.5 -8.5q25 0 78 96l144 -83q-17 -33 -39 -63t-50.5 -53.5t-64.5 -37.5t-81 -14
t-80 10t-66 32h-1q-6 4 -11 7q-17 12 -31 21t-23 9q-14 0 -34 -26t-46 -66zM523 1075q-216 0 -216 -456q0 -458 216 -458q214 0 214 458q0 456 -214 456z" />
    <glyph glyph-name="Odieresis" unicode="&#xd6;" horiz-adv-x="1065" 
d="M527 1247q468 0 468 -628q0 -629 -468 -629q-471 0 -471 629q0 628 471 628zM742 1561q28 0 54 -9t45.5 -25t31.5 -37.5t12 -46.5q0 -24 -12 -46t-31.5 -38t-45.5 -25.5t-54 -9.5t-54 9.5t-45.5 25.5t-31.5 38t-12 46t11 45.5t30.5 37.5t45.5 25.5t56 9.5zM327 1561
q29 0 55 -9t45.5 -24.5t30.5 -37.5t11 -47q0 -26 -11 -47.5t-30.5 -37.5t-45.5 -25t-55 -9t-55 9.5t-45.5 25.5t-31 38t-11.5 46t11 45.5t30.5 37.5t45.5 25.5t56 9.5zM527 1075q-216 0 -216 -456q0 -458 216 -458q213 0 213 458q0 456 -213 456z" />
    <glyph glyph-name="multiply" unicode="&#xd7;" horiz-adv-x="847" 
d="M67 336l202 194l-101.5 97.5l-100.5 96.5l142 147l207 -200l106.5 101.5l102.5 98.5l142 -147l-203 -194l101.5 -97.5l101.5 -96.5l-142 -146l-209 199l-105.5 -101l-101.5 -98z" />
    <glyph glyph-name="Oslash" unicode="&#xd8;" horiz-adv-x="1036" 
d="M511 1247q34 0 64 -3l25.5 96.5l25.5 94.5h193l-66 -249q227 -144 227 -567q0 -629 -469 -629q-20 0 -39.5 1t-36.5 3l-23.5 -83.5t-21.5 -81.5h-193l61 228q-217 142 -217 562q0 628 470 628zM480 163q7 -2 14.5 -2h16.5q215 0 215 458q0 100 -11 177t-31 132zM529 1074
q-5 1 -9 1h-9q-215 0 -215 -456q0 -91 8.5 -164t25.5 -127z" />
    <glyph glyph-name="Ugrave" unicode="&#xd9;" horiz-adv-x="1021" 
d="M698 1234h261v-821q0 -114 -31.5 -194.5t-89.5 -132.5t-140.5 -76t-184.5 -24q-104 0 -186.5 25t-140 77t-88.5 133t-31 192v821h261v-821q0 -58 8 -104t28.5 -78.5t56.5 -49.5t92 -17q53 0 88.5 16.5t57 48.5t30.5 78.5t9 105.5v821zM455 1577l209 -253h-227l-306 253
h324z" />
    <glyph glyph-name="Uacute" unicode="&#xda;" horiz-adv-x="1021" 
d="M679 1234h261v-821q0 -114 -31.5 -194.5t-89.5 -132.5t-141 -76t-185 -24q-103 0 -185.5 25t-140 77t-88.5 133t-31 192v821h262v-821q0 -58 8 -104t28 -78.5t55.5 -49.5t91.5 -17q54 0 90 16.5t57.5 48.5t30 78.5t8.5 105.5v821zM575 1577h321l-303 -253h-228z" />
    <glyph glyph-name="Ucircumflex" unicode="&#xdb;" horiz-adv-x="1040" 
d="M698 1234h261v-821q0 -114 -31.5 -194.5t-89.5 -132.5t-140.5 -76t-184.5 -24q-104 0 -186.5 25t-140 77t-88.5 133t-31 192v821h261v-821q0 -58 8 -104t28.5 -78.5t56.5 -49.5t92 -17q53 0 88.5 16.5t57 48.5t30.5 78.5t9 105.5v821zM634 1577l259 -253h-252l-121 92
l-120 -92h-252l258 253h228z" />
    <glyph glyph-name="Udieresis" unicode="&#xdc;" horiz-adv-x="1055" 
d="M704 1234h262v-821q0 -114 -31.5 -194.5t-89.5 -132.5t-141 -76t-185 -24q-104 0 -186 25t-140 77t-88.5 133t-30.5 192v821h260v-821q0 -58 8 -104t29 -78.5t56.5 -49.5t91.5 -17q54 0 89.5 16.5t57 48.5t30 78.5t8.5 105.5v821zM740 1561q30 0 56 -9.5t45.5 -25.5
t30.5 -37.5t11 -45.5t-11.5 -46t-31 -38t-45.5 -25.5t-55 -9.5q-28 0 -54 9.5t-45.5 25.5t-31 38t-11.5 46q0 25 11.5 46.5t31 37.5t45 25t54.5 9zM325 1561q29 0 55 -9t45.5 -25t31 -37.5t11.5 -46.5q0 -24 -11.5 -46t-31 -38t-45.5 -25.5t-55 -9.5t-55 9.5t-45.5 25.5
t-30.5 38t-11 46q0 25 11 46.5t30.5 37.5t45 25t55.5 9z" />
    <glyph glyph-name="Yacute" unicode="&#xdd;" horiz-adv-x="1028" 
d="M374 9v581l-196 322l-196 322h279l246 -429l126.5 215l125.5 214h266l-399 -657l5 8v-576h-257zM581 1577h322l-303 -253h-228z" />
    <glyph glyph-name="Thorn" unicode="&#xde;" horiz-adv-x="935" 
d="M356 1023h87q121 0 212 -22t152.5 -69.5t92.5 -122t31 -180.5q0 -109 -31.5 -186.5t-88 -127t-134.5 -73t-172 -23.5h-149v-210h-257v1225h257v-211zM356 859v-465h158q150 0 150 229q0 63 -10 107.5t-35 73t-66 42t-104 13.5h-93z" />
    <glyph glyph-name="germandbls" unicode="&#xdf;" horiz-adv-x="1022" 
d="M337 9h-243v895q0 71 22 136t64 119t119.5 82t186.5 28q79 0 142 -21.5t107 -60t67.5 -92t23.5 -117.5q0 -73 -38 -125.5t-95 -87.5q-34 -20 -52 -43t-18 -48q0 -15 8.5 -29t22.5 -27t31.5 -24.5t36.5 -20.5q51 -28 94.5 -58t75 -66t49.5 -80.5t18 -100.5
q0 -73 -25.5 -124.5t-71 -83.5t-108.5 -47t-137 -15q-29 0 -59.5 4t-61.5 11t-60.5 15t-55.5 17l60 159q26 -10 48.5 -17t43.5 -11t41.5 -6t43.5 -2q39 0 65 20.5t26 71.5q0 32 -9.5 55.5t-28 43t-45.5 37t-61 36.5h1q-39 21 -72.5 46t-58.5 54t-39 64.5t-14 77.5
q0 100 127 170q44 24 67.5 52.5t23.5 81.5q0 25 -5.5 46.5t-19 37t-35 24.5t-54.5 9q-32 0 -59 -8t-46.5 -28t-31 -55.5t-11.5 -89.5v-905z" />
    <glyph glyph-name="agrave" unicode="&#xe0;" horiz-adv-x="902" 
d="M103 873q89 30 176.5 45.5t175.5 15.5q382 0 382 -306v-619h-203l-11 54q-90 -75 -233 -75q-171 0 -258.5 74t-87.5 218q1 69 26 124t81 93.5t146.5 59t221.5 20.5h66v76q0 113 -155 113q-121 0 -267 -53zM427 1300l208 -252h-225l-303 252h320zM585 430h-62
q-68 0 -111 -9.5t-67.5 -27.5t-33.5 -44t-9 -58q0 -136 119 -136q37 0 67.5 11t52 30.5t33 45.5t11.5 56v132z" />
    <glyph glyph-name="aacute" unicode="&#xe1;" horiz-adv-x="901" 
d="M77 873q181 61 354 61q381 0 381 -306v-619h-202l-12 55q-45 -40 -102 -58t-132 -18q-169 0 -257 74t-88 218q0 69 25 124t81.5 93.5t147.5 59t222 20.5h66v76q0 113 -156 113q-122 0 -268 -53zM491 1302h320l-303 -252h-225zM561 430h-62q-68 0 -111 -9.5t-67.5 -27.5
t-33.5 -44t-9 -58q0 -136 118 -136q38 0 68.5 11t52 30.5t33 45.5t11.5 56v132z" />
    <glyph glyph-name="acircumflex" unicode="&#xe2;" horiz-adv-x="931" 
d="M106 873q89 30 176.5 45.5t175.5 15.5q382 0 382 -306v-619h-201l-12 55q-45 -37 -103.5 -56.5t-130.5 -19.5q-171 0 -258.5 74t-87.5 218q1 69 26 124t81 93.5t146.5 59t221.5 20.5h67v76q0 113 -156 113q-121 0 -267 -53zM589 430h-28q-81 0 -131 -9.5t-77.5 -27.5
t-37 -44t-9.5 -58q0 -136 118 -136q37 0 67.5 11t52 30.5t33.5 45.5t12 56v132zM584 1302l257 -252h-250l-119 94l-60 -47l-60 -47h-250l257 252h225z" />
    <glyph glyph-name="atilde" unicode="&#xe3;" horiz-adv-x="940" 
d="M111 873q89 30 176.5 45.5t175.5 15.5q382 0 382 -306v-619h-202l-11 55q-45 -37 -104 -56.5t-131 -19.5q-170 0 -257.5 74t-87.5 218q1 69 26 124t81 93.5t146.5 59t221.5 20.5h67v76q0 113 -156 113q-121 0 -267 -53zM145 1116q14 35 35.5 65t50 52t64 34.5t78.5 12.5
q33 0 57 -4.5t42 -12t32 -16t26 -17.5q14 -10 28 -19t25 -9q15 0 35.5 28t41.5 68l144 -83q-16 -33 -38 -63t-50.5 -53t-64 -36.5t-79.5 -13.5q-45 0 -80.5 10.5t-64.5 29.5l-12 9q-17 12 -31 20.5t-23 8.5q-14 0 -34 -26.5t-45 -64.5zM594 430h-63q-68 0 -111 -9.5
t-67.5 -27.5t-33.5 -44t-9 -58q0 -136 118 -136q37 0 68 11t52.5 30.5t33.5 45.5t12 56v132z" />
    <glyph glyph-name="adieresis" unicode="&#xe4;" horiz-adv-x="962" 
d="M121 873q89 30 176.5 45.5t175.5 15.5q382 0 382 -306v-619h-204l-10 54q-90 -75 -234 -75q-170 0 -257.5 74t-87.5 218q1 69 26 124t81 93.5t146.5 59t221.5 20.5h67v76q0 113 -156 113q-60 0 -126.5 -13t-140.5 -40zM700 1282q29 0 54.5 -9.5t44.5 -25.5t30 -37.5
t11 -45.5t-11 -45.5t-30 -37.5t-44.5 -25.5t-54.5 -9.5q-30 0 -56 9.5t-45 25.5t-30 37.5t-11 45.5t11 45.5t30 37.5t45 25.5t56 9.5zM287 1282q29 0 55 -9.5t45.5 -26t31 -37.5t11.5 -45q0 -23 -11.5 -44.5t-31 -38t-45.5 -26t-55 -9.5t-54.5 9.5t-45 25.5t-30.5 37.5
t-11 45.5t11.5 45.5t31 37.5t45 25.5t53.5 9.5zM604 430h-63q-68 0 -111 -9.5t-67.5 -27.5t-33.5 -44t-9 -58q0 -136 118 -136q37 0 68 11t52.5 30.5t33.5 45.5t12 56v132z" />
    <glyph glyph-name="aring" unicode="&#xe5;" horiz-adv-x="909" 
d="M94 873q89 30 176.5 45.5t176.5 15.5q381 0 381 -306v-619h-203l-11 54q-90 -75 -233 -75q-171 0 -258.5 74t-87.5 218q1 69 26 124t81 93.5t146.5 59t221.5 20.5h67v76q0 113 -156 113q-121 0 -267 -53zM471 1424q45 0 86.5 -15t72.5 -41t49.5 -60t18.5 -72
q0 -39 -18 -74t-49 -60.5t-72.5 -40.5t-87.5 -15q-47 0 -88 15t-72 40.5t-49 60.5t-18 74q0 38 18.5 72t49.5 60t72 41t87 15zM471 1309q-48 0 -48 -73q0 -74 48 -74t48 74q0 73 -48 73zM577 430h-63q-68 0 -111 -9.5t-67 -27.5t-33 -44t-9 -58q0 -136 118 -136
q37 0 67.5 11t52 30.5t33.5 45.5t12 56v132z" />
    <glyph glyph-name="ae" unicode="&#xe6;" horiz-adv-x="1539" 
d="M1195 538q-3 103 -35 167q-32 66 -124 66q-44 0 -73 -16.5t-47 -47t-27 -73.5t-12 -96h318zM140 873q89 30 177 45.5t176 15.5q191 0 275 -79q47 41 110.5 60t144.5 19q212 0 309.5 -104t97.5 -306v-129h-553q4 -62 15 -107.5t33.5 -75t58.5 -43.5t90 -14q57 0 124 16.5
t129 41.5l74 -155q-85 -35 -168.5 -53.5t-168.5 -18.5q-217 0 -326 114q-48 -47 -125.5 -79.5t-185.5 -32.5q-169 2 -257 75t-88 217q0 69 25 124t81.5 93.5t147 59t221.5 20.5h66v76q0 113 -155 113q-119 0 -268 -53zM623 430h-62q-68 0 -111 -9.5t-67.5 -27.5t-33.5 -44
t-9 -58q0 -136 119 -136q37 0 67.5 11t52 30.5t33 45.5t11.5 56v132z" />
    <glyph glyph-name="ccedilla" unicode="&#xe7;" horiz-adv-x="796" 
d="M340 -20q-80 14 -138.5 48.5t-96.5 92t-56 139t-18 190.5q0 94 22.5 178.5t61.5 152.5q88 138 325 138q167 0 280 -66l-68 -158q-109 56 -203 56q-50 0 -81 -22t-48 -61.5t-23.5 -94t-6.5 -119.5q0 -85 9.5 -145t30 -97.5t51.5 -55t75 -17.5q82 0 201 58l69 -158
q-54 -24 -106 -40t-102 -22q-1 -5 -1.5 -8t-1.5 -11q182 -10 182 -146q0 -50 -21 -85t-57.5 -57.5t-86 -33t-105.5 -10.5q-45 0 -82 6t-69 12q-3 0 -9.5 1t-14 2.5t-14 2.5t-8.5 1l34 141q49 -15 84.5 -21.5t58.5 -6.5q79 0 79 42q0 35 -21 42.5t-61 7.5h-29h-5t-10.5 -0.5
t-20 -1.5t-34.5 -3z" />
    <glyph glyph-name="egrave" unicode="&#xe8;" horiz-adv-x="894" 
d="M613 538q-3 105 -34 167q-32 66 -124 66q-44 0 -73 -16.5t-47 -47t-27 -73.5t-12 -96h317zM296 395q3 -62 14 -107.5t33.5 -75t59 -43.5t90.5 -14q57 0 124 16.5t129 41.5l73 -156q-82 -33 -165 -52t-170 -19q-439 0 -439 469q0 205 90 343q88 136 307 136
q212 0 309.5 -104t97.5 -306v-129h-553zM460 1300l208 -252h-225l-303 252h320z" />
    <glyph glyph-name="eacute" unicode="&#xe9;" horiz-adv-x="894" 
d="M615 538q-3 106 -35 167q-31 66 -123 66q-44 0 -73 -16.5t-47 -47t-27 -73.5t-12 -96h317zM298 395q3 -62 14 -107.5t33.5 -75t59 -43.5t90.5 -14q57 0 124 16.5t129 41.5l73 -156q-82 -33 -165 -52t-170 -19q-439 0 -439 469q0 205 90 343q88 136 307 136
q212 0 309.5 -104t97.5 -306v-129h-553zM366 1302h320l-303 -252h-226z" />
    <glyph glyph-name="ecircumflex" unicode="&#xea;" horiz-adv-x="922" 
d="M310 395q3 -62 14 -107.5t33.5 -75t59 -43.5t90.5 -14q57 0 124 16.5t129 41.5l72 -156q-81 -33 -164 -52t-171 -19q-438 0 -438 469q0 205 90 343q88 136 307 136q212 0 309 -104t97 -306v-129h-552zM627 538q-3 106 -35 167q-31 66 -124 66q-43 0 -72 -16.5t-47 -47
t-27 -73.5t-12 -96h317zM547 1302l256 -252h-249l-120 94l-60.5 -47l-60.5 -47h-248l257 252h225z" />
    <glyph glyph-name="edieresis" unicode="&#xeb;" horiz-adv-x="947" 
d="M637 538q-3 103 -35 167q-31 66 -124 66q-43 0 -72 -16.5t-47 -47t-27.5 -73.5t-12.5 -96h318zM319 395q4 -62 15 -107.5t33.5 -75t59 -43.5t90.5 -14q56 0 123 16.5t130 41.5l72 -156q-81 -33 -164.5 -52t-170.5 -19q-438 0 -438 469q0 205 90 343q88 136 307 136
q211 0 308.5 -104t97.5 -306v-129h-553zM666 1282q28 0 54 -9.5t45 -25.5t30.5 -37.5t11.5 -45.5t-11.5 -45.5t-30.5 -37.5t-45 -25.5t-54 -9.5q-29 0 -54.5 9.5t-45 26t-30.5 37.5t-11 45t11.5 45.5t31 37.5t45 25.5t53.5 9.5zM254 1282q28 0 54 -9.5t45.5 -25.5t31 -37.5
t11.5 -45.5t-11.5 -45.5t-31 -37.5t-45.5 -25.5t-54 -9.5q-29 0 -55 9.5t-45 26t-30 37.5t-11 45t11 45.5t30 37.5t45 25.5t55 9.5z" />
    <glyph glyph-name="igrave" unicode="&#xec;" horiz-adv-x="556" 
d="M224 760h-135v158h382v-909h-247v751zM280 1295l207 -252h-225l-303 252h321z" />
    <glyph glyph-name="iacute" unicode="&#xed;" horiz-adv-x="612" 
d="M145 760h-137v158h383v-909h-246v751zM306 1302h322l-303 -251h-226z" />
    <glyph glyph-name="icircumflex" unicode="&#xee;" horiz-adv-x="734" 
d="M266 760h-136v158h383v-909h-247v751zM469 1302l256 -252h-249l-120 94l-60.5 -47l-60.5 -47h-249l258 252h225z" />
    <glyph glyph-name="idieresis" unicode="&#xef;" horiz-adv-x="666" 
d="M229 760h-137v158h384v-909h-247v751zM475 1282q28 0 53.5 -9.5t45 -25.5t31 -37.5t11.5 -45.5t-11.5 -45.5t-31 -37.5t-45 -25.5t-53.5 -9.5q-30 0 -55.5 9.5t-45 26t-30.5 37.5t-11 45t11 45.5t30.5 37.5t45 25.5t55.5 9.5zM161 1282q28 0 54 -9.5t45 -25.5t30.5 -37.5
t11.5 -45.5t-11.5 -45.5t-30.5 -37.5t-45 -25.5t-54 -9.5q-29 0 -54.5 9.5t-45 26t-30.5 37.5t-11 45t11.5 45.5t30.5 37.5t44.5 25.5t54.5 9.5z" />
    <glyph glyph-name="eth" unicode="&#xf0;" horiz-adv-x="956" 
d="M246 1269q59 -19 97.5 -32.5t67.5 -27.5l35.5 51l34.5 50h224l-133 -191q76 -52 135.5 -115.5t100.5 -142.5t62 -175t21 -213q0 -106 -26.5 -191.5t-78.5 -146t-130 -93.5t-180 -33q-95 0 -174 27t-136.5 79t-89.5 128.5t-32 174.5q0 83 27 156.5t76 129t118 87.5t153 32
q51 0 96 -9t81 -24q-23 57 -53.5 102t-72.5 81l-29 -42.5l-29 -40.5h-225l128 182q-30 13 -65.5 26.5t-72.5 25.5zM476 181q169 0 169 307q0 32 -2 62.5t-6 58.5q-70 43 -170 43q-48 0 -82 -15.5t-55.5 -44.5t-31.5 -70t-10 -91q0 -133 48 -191.5t140 -58.5z" />
    <glyph glyph-name="ntilde" unicode="&#xf1;" horiz-adv-x="966" 
d="M87 919h204l14 -61q43 33 103.5 54.5t130.5 21.5q90 0 154.5 -21t105 -59.5t59.5 -92.5t19 -120v-632h-247v632q0 25 -5 48t-19.5 40.5t-40 28t-67.5 10.5q-162 0 -163 -189v-570h-248v910zM495 1238q0 1 1 0h-1zM494 1238h1l-1 1v-1zM118 1115q15 36 36 66t49.5 52
t64 34.5t79.5 12.5q54 0 88 -10.5t59 -30.5v-1q19 -16 34 -26t29 -10t34.5 28t41.5 68l144 -83q-16 -33 -38 -63t-51 -53t-64.5 -36.5t-78.5 -13.5q-42 0 -79 12t-66 29q-15 10 -19 12h2l-28.5 18t-19.5 7q-16 0 -36 -26t-45 -64z" />
    <glyph glyph-name="ograve" unicode="&#xf2;" horiz-adv-x="933" 
d="M463 934q106 0 184.5 -32t130 -93t76.5 -149t25 -200t-25 -200t-76 -149t-129.5 -93t-185.5 -32q-108 0 -186.5 32t-129.5 93t-76 149t-25 200t25 200t76.5 149t130 93t185.5 32zM462 768q-86 0 -125.5 -75.5t-39.5 -231.5q0 -159 39.5 -232.5t125.5 -73.5
q85 0 124.5 74.5t39.5 231.5t-39.5 232t-124.5 75zM476 1300l207 -252h-224l-303 252h320z" />
    <glyph glyph-name="oacute" unicode="&#xf3;" horiz-adv-x="933" 
d="M465 934q106 0 184.5 -32t130 -93t76.5 -149t25 -200t-25 -200t-76 -149t-129.5 -93t-185.5 -32q-108 0 -186.5 32t-129.5 93t-76 149t-25 200t25 200t76.5 149t130 93t185.5 32zM464 768q-86 0 -125.5 -75.5t-39.5 -231.5q0 -159 39.5 -232.5t125.5 -73.5
q85 0 124.5 74.5t39.5 231.5t-39.5 232t-124.5 75zM381 1302h321l-303 -252h-226z" />
    <glyph glyph-name="ocircumflex" unicode="&#xf4;" horiz-adv-x="958" 
d="M475 934q107 0 185.5 -32t130 -93t76.5 -149t25 -200t-25 -200t-76 -149t-129.5 -93t-186.5 -32q-107 0 -185.5 32t-129.5 93t-76 149t-25 200t25 200t76 149t129.5 93t185.5 32zM474 768q-85 0 -124.5 -75.5t-39.5 -231.5q0 -159 39.5 -232.5t124.5 -73.5
q86 0 125.5 74.5t39.5 231.5t-39.5 232t-125.5 75zM562 1302l256 -252h-250l-119 94l-60.5 -47l-60.5 -47h-249l258 252h225z" />
    <glyph glyph-name="otilde" unicode="&#xf5;" horiz-adv-x="966" 
d="M478 934q107 0 185.5 -32t130 -93t76.5 -149t25 -200t-25 -200t-76 -149t-129.5 -93t-186.5 -32q-107 0 -185.5 32t-129.5 93t-76 149t-25 200t25 200t76 149t129.5 93t185.5 32zM477 768q-85 0 -124.5 -75.5t-39.5 -231.5q0 -159 39.5 -232.5t124.5 -73.5
q86 0 125.5 74.5t39.5 231.5t-39.5 232t-125.5 75zM507 1238q0 1 1 0h-1zM506 1238h1l-1 1v-1zM131 1115q15 36 36 66t49 52t63.5 34.5t79.5 12.5q54 0 88 -10.5t59 -30.5v-1q20 -16 35 -26t28 -10q15 0 35.5 28t41.5 68l143 -83q-15 -33 -37.5 -63t-51 -53t-64.5 -36.5
t-78 -13.5t-79.5 12t-66.5 29q-6 5 -11.5 8t-7.5 4h2q-16 11 -27.5 18t-19.5 7q-17 0 -37 -26t-45 -64z" />
    <glyph glyph-name="odieresis" unicode="&#xf6;" horiz-adv-x="982" 
d="M485 934q107 0 185.5 -32t130 -93t76.5 -149t25 -200t-25 -200t-76 -149t-129.5 -93t-186.5 -32q-107 0 -185.5 32t-129.5 93t-76 149t-25 200t25 200t76 149t129.5 93t185.5 32zM484 768q-85 0 -124.5 -75.5t-39.5 -231.5q0 -159 39.5 -232.5t124.5 -73.5
q86 0 125.5 74.5t39.5 231.5t-39.5 232t-125.5 75zM681 1282q28 0 53.5 -9.5t45 -25.5t31 -37.5t11.5 -45.5t-11.5 -45.5t-31 -37.5t-45 -25.5t-53.5 -9.5q-29 0 -55 9.5t-45.5 26t-30.5 37.5t-11 45t11.5 45.5t31 37.5t45 25.5t54.5 9.5zM269 1282q28 0 54 -9.5t45.5 -25.5
t31 -37.5t11.5 -45.5t-11.5 -45.5t-31 -37.5t-45.5 -25.5t-54 -9.5q-29 0 -55 9.5t-45 26t-30 37.5t-11 45t11 45.5t30 37.5t45 25.5t55 9.5z" />
    <glyph glyph-name="divide" unicode="&#xf7;" horiz-adv-x="761" 
d="M1 633h747v-175h-747v175zM375 989q30 0 57 -10.5t47.5 -28.5t32.5 -41.5t12 -50.5t-12 -51t-32.5 -42t-47.5 -28t-57 -10q-31 0 -58 10t-47.5 28t-32 42t-11.5 51t11.5 50.5t32 41.5t47.5 28.5t58 10.5zM375 365q30 0 57 -11t47.5 -29t32.5 -41.5t12 -49.5
q0 -27 -12 -50.5t-32.5 -41.5t-47.5 -28t-57 -10q-31 0 -58 10t-47.5 27t-32 41t-11.5 52q0 27 11.5 50.5t32 41.5t47.5 28.5t58 10.5z" />
    <glyph glyph-name="oslash" unicode="&#xf8;" horiz-adv-x="922" 
d="M454 934q7 0 10.5 0.5t6.5 0.5h7.5t13.5 -1q11 38 21.5 80.5t21.5 79.5h188l-55 -207q103 -54 152 -160t49 -267q0 -112 -24.5 -200t-75.5 -149t-129.5 -93t-185.5 -32h-14.5t-15.5 1q-11 -38 -21.5 -79.5t-21.5 -77.5h-188l54 198q-107 53 -158.5 159.5t-51.5 272.5
q0 112 25 200t76 149t129.5 93t186.5 32zM447 768l5 15l26 -18q-17 3 -25 3h-6zM447 768q-83 -3 -121.5 -78.5t-38.5 -228.5q0 -61 6.5 -112t17.5 -88zM468 155l-5 -18l-32 18h22h15zM468 155q77 8 112.5 82t35.5 224q0 54 -4 97.5t-14 77.5z" />
    <glyph glyph-name="ugrave" unicode="&#xf9;" horiz-adv-x="909" 
d="M592 919h244v-910h-199l-10 50q-91 -73 -241 -73q-90 0 -152 25.5t-100 71t-55 109.5t-17 142v585h250l2 -585q0 -51 3.5 -85t17 -54.5t39.5 -28.5t71 -8q64 0 105.5 45.5t41.5 137.5v578zM455 1300l207 -252h-225l-303 252h321z" />
    <glyph glyph-name="uacute" unicode="&#xfa;" horiz-adv-x="911" 
d="M581 919h244v-910h-199l-10 50q-91 -73 -241 -73q-90 0 -151.5 25.5t-100 71t-55 109.5t-16.5 142v585h249l2 -585q0 -51 3.5 -85t17 -54.5t39.5 -28.5t71 -8q64 0 105.5 45.5t41.5 137.5v578zM448 1295h320l-303 -252h-226z" />
    <glyph glyph-name="ucircumflex" unicode="&#xfb;" horiz-adv-x="939" 
d="M601 919h244v-910h-199l-10 50q-91 -73 -241 -73q-90 0 -152 25.5t-100 71t-55 109.5t-17 142v585h250l2 -585q0 -51 3.5 -85t17 -54.5t39.5 -28.5t71 -8q64 0 105.5 45.5t41.5 137.5v578zM579 1302l256 -252h-250l-119 94l-60.5 -47l-60.5 -47h-249l258 252h225z" />
    <glyph glyph-name="udieresis" unicode="&#xfc;" horiz-adv-x="962" 
d="M616 919h244v-910h-200l-9 50q-91 -73 -242 -73q-90 0 -151.5 25.5t-100 71t-55 109.5t-16.5 142v585h250l2 -585q0 -51 3.5 -85t17 -54.5t39.5 -28.5t71 -8q64 0 105.5 45.5t41.5 137.5v578zM690 1278q28 0 54 -9.5t45.5 -25.5t31 -37.5t11.5 -45.5t-11.5 -45.5
t-31 -37.5t-45.5 -25.5t-54 -9.5q-29 0 -54.5 9.5t-45 26t-30.5 37.5t-11 45t11.5 45.5t31 37.5t45 25.5t53.5 9.5zM279 1278q28 0 53.5 -9.5t45 -25.5t31 -37.5t11.5 -45.5t-11.5 -45.5t-31 -37.5t-45 -25.5t-53.5 -9.5q-30 0 -55.5 9.5t-45 26t-30.5 37.5t-11 45t11 45.5
t30.5 37.5t45 25.5t55.5 9.5z" />
    <glyph glyph-name="yacute" unicode="&#xfd;" horiz-adv-x="950" 
d="M-1 919h264l224 -655l92 329l91 326h254l-316 -1013q-15 -47 -38 -86t-56 -67t-77.5 -43.5t-103.5 -15.5q-45 0 -94 9t-104 26l38 162q42 -13 72 -19.5t50 -6.5q23 0 39.5 8.5t29 26t21.5 44.5t18 65h-58zM533 1302h320l-301 -251h-226z" />
    <glyph glyph-name="thorn" unicode="&#xfe;" horiz-adv-x="900" 
d="M346 864q80 55 196 55q88 0 154.5 -22.5t111.5 -71t68 -124t23 -181.5q0 -116 -23.5 -208t-73.5 -155.5t-127 -97.5t-183 -34q-42 0 -79.5 6t-66.5 16v-369h-246v1546h246v-360zM346 210q55 -19 99 -19q56 0 94.5 19t62 57.5t34 97t10.5 137.5q0 59 -7 105.5t-24.5 78.5
t-46.5 49t-72 17q-67 0 -108.5 -45.5t-41.5 -126.5v-370z" />
    <glyph glyph-name="ydieresis" unicode="&#xff;" horiz-adv-x="975" 
d="M19 919h265l223 -655l92 329l91 326h255l-317 -1013q-15 -47 -37.5 -86t-55.5 -67t-78 -43.5t-104 -15.5q-45 0 -93.5 9t-103.5 26l38 162q42 -13 72 -19.5t50 -6.5q23 0 39.5 8.5t28.5 26t21.5 44.5t17.5 65h-57zM682 1282q28 0 53.5 -9.5t45 -25.5t31 -37.5t11.5 -45.5
t-11.5 -45.5t-31 -37.5t-45 -25.5t-53.5 -9.5q-29 0 -55 9.5t-45.5 26t-30.5 37.5t-11 45t11.5 45.5t31 37.5t45 25.5t54.5 9.5zM270 1282q28 0 54 -9.5t45.5 -25.5t31 -37.5t11.5 -45.5t-11.5 -45.5t-31 -37.5t-45.5 -25.5t-54 -9.5q-29 0 -55 9.5t-45 26t-30 37.5t-11 45
t11 45.5t30 37.5t45 25.5t55 9.5z" />
    <glyph glyph-name="Amacron" unicode="&#x100;" horiz-adv-x="1074" 
d="M670 1234l378 -1225h-264l-76 273h-355l-38 -137l-38 -136h-264l378 1225h279zM531 921l-64.5 -233l-66.5 -236h261zM244 1330v160h566v-160h-566z" />
    <glyph glyph-name="amacron" unicode="&#x101;" horiz-adv-x="917" 
d="M95 873q89 30 177 45.5t177 15.5q381 0 381 -306v-619h-202l-12 55q-45 -40 -102.5 -58t-131.5 -18q-169 0 -257.5 74t-88.5 218q1 69 26.5 124t81.5 93.5t146.5 59t221.5 20.5h66v76q0 113 -156 113q-121 0 -267 -53zM578 430h-62q-69 0 -112 -9.5t-67 -27.5t-32.5 -44
t-8.5 -58q0 -136 118 -136q37 0 67 11t51.5 30.5t33.5 45.5t12 56v132zM183 1014v159h562v-159h-562z" />
    <glyph glyph-name="Abreve" unicode="&#x102;" horiz-adv-x="1108" 
d="M687 1234l378 -1225h-264l-76 273h-355l-38.5 -137l-37.5 -136h-264l378 1225h279zM547 921l-64 -233l-66 -236h261zM851 1539q-1 -55 -26 -103t-66.5 -84t-96.5 -56.5t-116 -20.5t-116 20.5t-96 56t-66 83.5t-26 104h189q0 -24 9.5 -45t25 -36.5t36.5 -24.5t44 -9
t43.5 9t36.5 24.5t26 36.5t12 45h187z" />
    <glyph glyph-name="abreve" unicode="&#x103;" horiz-adv-x="942" 
d="M113 873q89 30 177 45.5t176 15.5q382 0 382 -306v-619h-203l-11 55q-45 -40 -102.5 -58t-132.5 -18q-168 0 -256.5 74t-88.5 218q1 69 26.5 124t81.5 93.5t146.5 59t221.5 20.5h66v76q0 113 -156 113q-121 0 -267 -53zM596 430h-62q-69 0 -112 -9.5t-67 -27.5t-33 -44
t-9 -58q0 -136 118 -136q37 0 67.5 11t52 30.5t33.5 45.5t12 56v132zM766 1244q-1 -54 -25.5 -102t-65.5 -83t-95.5 -55.5t-115.5 -20.5q-60 0 -114.5 20t-96 55.5t-66 83t-25.5 102.5h188q0 -24 9 -44.5t25 -35.5t36.5 -24t43.5 -9q22 0 42.5 9t36.5 24t26 35.5t12 44.5
h185z" />
    <glyph glyph-name="Aogonek" unicode="&#x104;" horiz-adv-x="1073" 
d="M653 1234l378 -1225h-96q-44 -20 -76.5 -47.5t-53.5 -57t-31.5 -59t-10.5 -53.5q0 -11 4 -23t12.5 -22t22 -17t32.5 -7q38 0 155 30l34 -139q-60 -11 -107 -17t-84 -6q-69 0 -120.5 15t-86 41t-51.5 62.5t-17 80.5q0 33 9.5 65t33 63t62.5 60t98 56l-34.5 123.5
l-33.5 124.5h-356l-38 -137l-38 -136h-264l378 1225h279zM514 921l-64.5 -233l-66.5 -236h262z" />
    <glyph glyph-name="aogonek" unicode="&#x105;" horiz-adv-x="901" 
d="M73 873q181 61 354 61q381 0 381 -306v-619h-46q-56 -21 -97.5 -49.5t-68.5 -61t-40 -65.5t-13 -61q0 -11 4 -22.5t12.5 -22t22 -17t32.5 -6.5q22 0 59.5 7t94.5 23l34 -137q-60 -11 -107 -17t-84 -6q-136 0 -204 54t-68 143q0 37 11 71.5t40 67.5t79.5 64.5t129.5 63.5
q-1 5 -1.5 6t-0.5 2.5t-0.5 5t-2.5 12.5q-45 -40 -102 -58t-132 -18q-169 0 -257.5 74t-88.5 218q1 69 26.5 124t81.5 93.5t146.5 59t222.5 20.5h66v76q0 113 -156 113q-122 0 -268 -53zM557 430h-62q-69 0 -112 -9.5t-67 -27.5t-33 -44t-9 -58q0 -136 118 -136
q37 0 67.5 11t52 30.5t33.5 45.5t12 56v132z" />
    <glyph glyph-name="Cacute" unicode="&#x106;" horiz-adv-x="861" 
d="M511 1247q45 0 81 -2.5t65 -7t52 -11t44 -14.5h-1q7 -3 18 -7t22.5 -9t22 -9t17.5 -7l-76 -169q-25 12 -54 22.5t-58 19t-55.5 13t-47.5 4.5q-58 0 -105.5 -27t-81.5 -82.5t-52.5 -140.5t-18.5 -201q0 -118 12.5 -203.5t39 -140.5t68.5 -81t101 -26q118 0 243 55l68 -168
q-32 -14 -65 -26t-71 -20.5t-83 -13.5t-102 -5q-125 0 -213 38.5t-144 117t-82 196.5t-26 277t33 277t95 196t151.5 116.5t202.5 38.5zM511 1600h323l-306 -254h-227z" />
    <glyph glyph-name="cacute" unicode="&#x107;" horiz-adv-x="823" 
d="M649 710q-109 56 -203 56q-49 0 -80 -22t-48.5 -61.5t-24 -94t-6.5 -119.5q0 -87 10 -146.5t31 -97t52.5 -54t73.5 -16.5q83 0 202 56l67 -158q-138 -67 -275 -67q-110 0 -189 27.5t-130 85.5t-75.5 149t-24.5 218q0 94 22.5 178.5t61.5 151.5q86 138 325 138
q168 0 280 -65zM477 1291h320l-301 -252h-226z" />
    <glyph glyph-name="Ccircumflex" unicode="&#x108;" horiz-adv-x="924" 
d="M531 1247q45 0 81 -2.5t65 -7t52 -11t44 -14.5h-1q7 -3 18 -7t22.5 -9t22 -9t17.5 -7l-76 -169q-25 12 -54 22.5t-58 19t-55.5 13t-47.5 4.5q-58 0 -105.5 -27t-81.5 -82.5t-52.5 -140.5t-18.5 -201q0 -118 12.5 -203.5t39 -140.5t68.5 -81t101 -26q118 0 243 55l69 -168
q-32 -14 -65 -26t-71.5 -20.5t-83.5 -13.5t-102 -5q-125 0 -213 38.5t-144 117t-82 196.5t-26 277t33 277t95 196t151.5 116.5t202.5 38.5zM644 1515l259 -254h-251l-122 94l-60.5 -47l-59.5 -47h-252l260 254h226z" />
    <glyph glyph-name="ccircumflex" unicode="&#x109;" horiz-adv-x="863" 
d="M673 710q-108 56 -202 56q-49 0 -80 -22t-48.5 -61.5t-24 -94t-6.5 -119.5q0 -87 10 -146.5t30.5 -97t52 -54t74.5 -16.5q83 0 202 56l67 -158q-138 -67 -275 -67q-110 0 -189 27.5t-130 85.5t-75.5 149t-24.5 218q0 94 22.5 178.5t61.5 151.5q86 138 324 138
q169 0 281 -65zM578 1284l256 -252h-250l-121 93l-59.5 -47l-59.5 -46h-249l257 252h226z" />
    <glyph glyph-name="Cdotaccent" unicode="&#x10a;" horiz-adv-x="863" 
d="M516 1247q45 0 81 -2.5t65 -7t52 -11t44 -14.5h-1q7 -3 17.5 -7t22 -9t22.5 -9t18 -7l-76 -169q-25 12 -54 22.5t-58 19t-55.5 13t-47.5 4.5q-58 0 -105.5 -27t-81.5 -82.5t-52.5 -140.5t-18.5 -201q0 -118 12.5 -203.5t39 -140.5t68.5 -81t101 -26q118 0 243 55l68 -168
q-32 -14 -65 -26t-71 -20.5t-83 -13.5t-102 -5q-125 0 -213 38.5t-144 117t-82 196.5t-26 277t33 277t95 196t151.5 116.5t202.5 38.5zM515 1556q30 0 57.5 -10t48.5 -28t33.5 -41.5t12.5 -50.5q0 -26 -12 -49.5t-32.5 -41.5t-48 -28.5t-59.5 -10.5t-59.5 10.5t-48 28.5
t-32.5 41.5t-12 49.5q0 27 12 50.5t32.5 41t48 28t59.5 10.5z" />
    <glyph glyph-name="cdotaccent" unicode="&#x10b;" horiz-adv-x="773" 
d="M652 710q-109 56 -202 56q-49 0 -80 -22t-48.5 -61.5t-24 -94t-6.5 -119.5q0 -87 10 -146.5t30.5 -97t52 -54t73.5 -16.5q82 0 203 56l67 -158q-138 -67 -275 -67q-110 0 -189.5 27.5t-130.5 85.5t-75.5 149t-24.5 218q0 94 22.5 178.5t61.5 151.5q88 138 325 138
q168 0 281 -65zM441 1297q30 0 57 -10.5t48 -28t33.5 -41t12.5 -49.5q0 -27 -12 -50.5t-32.5 -41t-48 -27.5t-58.5 -10q-32 0 -59.5 10.5t-48 28t-32 41t-11.5 49.5t12 49.5t32 41t47.5 28t59.5 10.5z" />
    <glyph glyph-name="Ccaron" unicode="&#x10c;" horiz-adv-x="925" 
d="M529 1247q45 0 81 -2.5t65 -7t52 -11t44 -14.5h-1q7 -3 18 -7t22.5 -9t22 -9t17.5 -7l-76 -169q-25 12 -54 22.5t-58 19t-55.5 13t-47.5 4.5q-58 0 -105.5 -27t-81 -82.5t-52 -140.5t-18.5 -201q0 -118 12.5 -203.5t39 -140.5t68 -81t100.5 -26q118 0 243 55l69 -168
q-32 -14 -65 -26t-71.5 -20.5t-83.5 -13.5t-102 -5q-125 0 -213 38.5t-144 117t-82 196.5t-26 277t33 277t95 196t151.5 116.5t202.5 38.5zM423 1296l-259 254h251l120 -92l122 92h250l-257 -254h-227z" />
    <glyph glyph-name="ccaron" unicode="&#x10d;" horiz-adv-x="865" 
d="M677 710q-108 56 -202 56q-49 0 -80 -22t-48.5 -61.5t-24 -94t-6.5 -119.5q0 -87 10 -146.5t30.5 -97t52 -54t74.5 -16.5q83 0 202 56l67 -158q-138 -67 -275 -67q-110 0 -189.5 27.5t-130.5 85.5t-75.5 149t-24.5 218q0 94 22.5 178.5t62.5 151.5q86 138 324 138
q168 0 281 -65zM349 992l-257 251h248l122 -92l60 46.5l59 45.5h248l-254 -251h-226z" />
    <glyph glyph-name="Dcaron" unicode="&#x10e;" horiz-adv-x="1023" 
d="M82 1234h320q323 0 443 -162q121 -164 121 -451q0 -147 -28.5 -261t-86.5 -192t-146.5 -118.5t-208.5 -40.5h-414v1225zM342 1058v-882h89q163 0 217 119q54 118 54 326q0 88 -12 165t-34 144q-43 130 -220 129zM357 1296l-260 253h250l123 -92l61 46.5l60 45.5h251
l-259 -253h-226z" />
    <glyph glyph-name="dcaron" unicode="&#x10f;" horiz-adv-x="1260" 
d="M594 1224h247v-1215h-200l-11 57q-42 -38 -103 -59t-149 -21q-77 0 -139.5 26t-107 81.5t-69 142t-24.5 208.5q0 236 100.5 363t302.5 127q48 0 84.5 -3.5t68.5 -13.5v307zM594 750q-35 16 -126 16q-54 0 -88.5 -22.5t-55 -65.5t-28 -106t-7.5 -144q0 -72 7 -123.5
t23.5 -85t44.5 -49t70 -15.5q30 0 58.5 9t51 28.5t36.5 49.5t14 71v437zM1056 1261q31 0 58.5 -10t48 -27t32.5 -40t12 -48q0 -7 -2 -19t-5 -25t-6 -24.5t-6 -17.5l-151 -256h-182l107 244q-28 20 -42 46t-14 52t12 49t33 40t48 26.5t57 9.5z" />
    <glyph glyph-name="Dcroat" unicode="&#x110;" horiz-adv-x="1136" 
d="M54 544v161h116v529h318q161 0 271.5 -41.5t171.5 -120.5q59 -82 90.5 -196.5t31.5 -254.5q0 -147 -28.5 -261t-87 -192t-146.5 -118.5t-208 -40.5h-413v535h-116zM429 1058v-353h192v-161h-192v-368h89q163 0 216 119q27 60 41 140.5t14 185.5q0 85 -13 164t-33 145
q-23 64 -78 97t-143 32z" />
    <glyph glyph-name="Dcroat" unicode="&#x189;" horiz-adv-x="1136" 
d="M54 544v161h116v529h318q161 0 271.5 -41.5t171.5 -120.5q59 -82 90.5 -196.5t31.5 -254.5q0 -147 -28.5 -261t-87 -192t-146.5 -118.5t-208 -40.5h-413v535h-116zM429 1058v-353h192v-161h-192v-368h89q163 0 216 119q27 60 41 140.5t14 185.5q0 85 -13 164t-33 145
q-23 64 -78 97t-143 32z" />
    <glyph glyph-name="dcroat" unicode="&#x111;" horiz-adv-x="1047" 
d="M330 1159h273v65h247v-65h123v-158h-123v-992h-200l-11 57q-43 -38 -103.5 -59t-148.5 -21q-77 0 -139.5 26t-107 81.5t-69 142t-24.5 208.5q0 236 100.5 363t302.5 127q48 0 84.5 -3.5t68.5 -13.5v84h-273v158zM603 750q-35 16 -126 16q-54 0 -88.5 -22.5t-55 -65.5
t-28 -106t-7.5 -144q0 -72 7 -123.5t23.5 -85t44.5 -49t70 -15.5q29 0 58 9t51.5 28.5t36.5 49.5t14 71v437z" />
    <glyph glyph-name="Emacron" unicode="&#x112;" horiz-adv-x="859" 
d="M78 1234h761v-173h-502v-335h447v-172h-447v-375h503v-170h-762v1225zM191 1308v161h567v-161h-567z" />
    <glyph glyph-name="emacron" unicode="&#x113;" horiz-adv-x="918" 
d="M185 997v160h563v-160h-563zM620 538q-3 106 -35 167q-31 66 -124 66q-43 0 -72 -16.5t-47 -47t-27 -73.5t-12 -96h317zM303 395q3 -62 14 -107.5t33.5 -75t59 -43.5t90.5 -14q57 0 124 16.5t129 41.5l73 -156q-82 -33 -165 -52t-170 -19q-439 0 -439 469q0 205 90 343
q88 136 307 136q212 0 309.5 -104t97.5 -306v-129h-553z" />
    <glyph glyph-name="Ebreve" unicode="&#x114;" horiz-adv-x="879" 
d="M79 1234h761v-173h-502v-335h447v-172h-447v-375h503v-170h-762v1225zM788 1564q-2 -55 -26.5 -103t-65.5 -84t-96 -56.5t-117 -20.5t-117 20.5t-96.5 56t-66.5 83.5t-26 104h189q1 -24 10.5 -45t25.5 -36.5t36.5 -24.5t44.5 -9q22 0 42.5 9t36.5 24.5t26 36.5t11 45h189
z" />
    <glyph glyph-name="ebreve" unicode="&#x115;" horiz-adv-x="927" 
d="M626 538q-3 106 -35 167q-31 66 -124 66q-43 0 -72 -16.5t-47 -47t-27 -73.5t-12 -96h317zM309 395q3 -62 14 -107.5t33.5 -75t59 -43.5t90.5 -14q57 0 124 16.5t129 41.5l72 -156q-81 -33 -164 -52t-171 -19q-438 0 -438 469q0 205 90 343q88 136 307 136
q212 0 309 -104t97 -306v-129h-552zM762 1298q-2 -55 -27 -102.5t-66 -83t-95 -56t-115 -20.5q-62 0 -116.5 20.5t-96 55.5t-65.5 83t-25 103h186q1 -24 11 -44.5t25.5 -36t36.5 -24.5t44 -9q22 0 42.5 9t36 24.5t25.5 36t11 44.5h188z" />
    <glyph glyph-name="Edotaccent" unicode="&#x116;" horiz-adv-x="846" 
d="M66 1234h761v-173h-501v-335h446v-172h-446v-375h502v-170h-762v1225zM459 1543q30 0 57.5 -10t49 -27.5t34 -41t12.5 -50.5t-12 -50.5t-32.5 -41t-48.5 -27.5t-60 -10t-59.5 10.5t-48 28t-32.5 41t-12 49.5t12 49.5t32.5 41t48 28t59.5 10.5z" />
    <glyph glyph-name="edotaccent" unicode="&#x117;" horiz-adv-x="888" 
d="M607 538q-1 53 -9.5 94t-24.5 73q-32 66 -124 66q-44 0 -73 -16.5t-47 -47t-27 -73.5t-12 -96h317zM290 395q4 -62 15 -107.5t33.5 -75t58.5 -43.5t90 -14q57 0 124 16.5t129 41.5l73 -156q-82 -33 -165 -52t-170 -19q-439 0 -439 469q0 205 90 343q88 136 307 136
q212 0 309.5 -104t97.5 -306v-129h-553zM440 1314q28 0 55 -10t48 -27.5t34 -41t13 -50.5q0 -26 -12 -49.5t-32.5 -41t-47.5 -27.5t-58 -10q-32 0 -60 10t-48.5 27.5t-32 41t-11.5 49.5t12 49.5t32.5 41t48 28t59.5 10.5z" />
    <glyph glyph-name="Eogonek" unicode="&#x118;" horiz-adv-x="853" 
d="M53 1234h762v-173h-502v-335h446v-172h-446v-375h503v-170h-54q-19 -8 -39 -18.5t-41 -23.5q-63 -42 -96 -94.5t-33 -97.5q0 -11 4 -23t12 -22t21.5 -17t33.5 -7q42 0 155 30l35 -137q-116 -25 -193 -25q-68 0 -119.5 14.5t-86 41t-51.5 63.5t-17 81q0 28 7 56t24 55
t46 53.5t73 52.5q6 4 15 9t17 9h-476v1225z" />
    <glyph glyph-name="eogonek" unicode="&#x119;" horiz-adv-x="905" 
d="M281 395q4 -62 15 -107.5t33.5 -75t59 -43.5t90.5 -14q56 0 123 16.5t129 41.5l73 -157l-13 -5l2 -5q-63 -21 -109 -51t-76.5 -63t-45.5 -67t-15 -63q0 -11 4 -23t12.5 -21.5t22 -16t32.5 -6.5t57 7t97 23l34 -138q-60 -11 -107 -17t-84 -6q-136 0 -204 54t-68 143
q0 38 12.5 74t46.5 76q8 8 18.5 17t25.5 19q-416 12 -416 468q0 205 90 343q88 136 307 136q212 0 309.5 -104t97.5 -306v-129h-553zM599 538q-3 103 -35 167q-32 66 -124 66q-43 0 -72 -16.5t-47 -47t-27.5 -73.5t-12.5 -96h318z" />
    <glyph glyph-name="Ecaron" unicode="&#x11a;" horiz-adv-x="879" 
d="M78 1234h761v-173h-501v-335h446v-172h-446v-375h502v-170h-762v1225zM375 1285l-260 254h251l123 -93l60.5 46.5l59.5 46.5h251l-259 -254h-226z" />
    <glyph glyph-name="ecaron" unicode="&#x11b;" horiz-adv-x="924" 
d="M307 395q3 -62 14 -107.5t33.5 -75t59 -43.5t90.5 -14q57 0 124 16.5t129 41.5l73 -156q-82 -33 -165 -52t-171 -19q-438 0 -438 469q0 205 90 343q88 136 307 136q212 0 309.5 -104t97.5 -306v-129h-553zM624 538q-3 106 -35 167q-31 66 -124 66q-43 0 -72 -16.5
t-47 -47t-27 -73.5t-12 -96h317zM343 1050l-256 252h249l119 -92l121 92h250l-257 -252h-226z" />
    <glyph glyph-name="Gcircumflex" unicode="&#x11c;" horiz-adv-x="989" 
d="M544 1247q58 0 101.5 -2.5t76.5 -7.5t58 -12t46 -16h-1q7 -3 17.5 -7t22 -9t22.5 -9t18 -7l-75 -164q-52 26 -111.5 41.5t-144.5 15.5q-57 0 -107.5 -27t-88 -82.5t-59 -140.5t-21.5 -201q0 -237 63 -346t189 -109q30 0 58.5 1.5t54.5 5.5v368h-155v158h401v-643
q-29 -14 -71 -25.5t-92 -20t-104 -13.5t-107 -5q-492 0 -492 629q0 157 35.5 273.5t106.5 197.5q139 157 359 157zM666 1553l258 -254h-251l-122 94l-61 -47l-60 -47h-250l258 254h228z" />
    <glyph glyph-name="gcircumflex" unicode="&#x11d;" horiz-adv-x="928" 
d="M842 917v-894q0 -155 -100 -242t-306 -87q-90 0 -175.5 15.5t-169.5 47.5l55 163q148 -55 276 -55q172 0 172 158v88q-45 -27 -100 -40.5t-101 -13.5q-235 0 -296 144q-30 72 -44.5 144t-14.5 145q0 84 23 160t68 143q45 63 127 99.5t197 41.5q111 0 184 -47q2 9 4 16
l4 14h197zM594 736q-31 22 -62 27t-60 5q-50 0 -85 -22t-56.5 -60.5t-31 -90.5t-9.5 -113q0 -128 32.5 -193t119.5 -65q68 0 106 35t46 100v377zM568 1302l256 -252h-248l-121 94l-60.5 -47l-60.5 -47h-248l257 252h225z" />
    <glyph glyph-name="Gbreve" unicode="&#x11e;" horiz-adv-x="992" 
d="M546 1247q58 0 101.5 -2.5t76.5 -7.5t58 -12t46 -16h-1q7 -3 17.5 -7t22 -9t22.5 -9t18 -7l-75 -164q-52 26 -111.5 41.5t-144.5 15.5q-57 0 -107.5 -27t-88 -82.5t-59 -140.5t-21.5 -201q0 -237 63 -346t188 -109q30 0 59 1.5t55 5.5v368h-156v158h402v-643
q-29 -14 -71 -25.5t-92 -20t-104 -13.5t-107 -5q-492 0 -492 629q0 157 35.5 273.5t106.5 197.5q139 157 359 157zM848 1568q-2 -56 -26.5 -104t-66 -83.5t-96 -56t-116.5 -20.5t-117 20.5t-96.5 56t-66.5 83.5t-26 104h189q2 -50 35.5 -82.5t81.5 -32.5q22 0 42.5 8.5
t36.5 24t26 36.5t11 46h189z" />
    <glyph glyph-name="gbreve" unicode="&#x11f;" horiz-adv-x="933" 
d="M844 917v-894q0 -155 -100 -242t-306 -87q-90 0 -175.5 15.5t-169.5 47.5l55 163q148 -55 276 -55q172 0 172 158v88q-45 -27 -100 -40.5t-101 -13.5q-235 0 -296 144q-30 72 -44.5 144t-14.5 145q0 84 23 160t68 143q45 63 126.5 99.5t196.5 41.5q113 0 184 -47
q3 9 5 16l4 14h197zM596 736q-31 22 -62 27t-60 5q-50 0 -85 -22t-56.5 -60.5t-31 -90.5t-9.5 -113q0 -128 32.5 -193t119.5 -65q68 0 106 35t46 100v377zM760 1298q-1 -55 -26 -102.5t-66 -83t-95.5 -56t-115.5 -20.5t-115 20.5t-95.5 55.5t-66 83t-25.5 103h186
q1 -24 10.5 -44.5t25.5 -36t36.5 -24.5t43.5 -9q22 0 42.5 9t36.5 24.5t26 36t12 44.5h186z" />
    <glyph glyph-name="Gdotaccent" unicode="&#x120;" horiz-adv-x="960" 
d="M534 1247q58 0 101.5 -2.5t76.5 -7.5t58 -12t46 -16h-1q7 -3 17.5 -7t22 -9t22.5 -9t18 -7l-75 -164q-52 26 -111.5 41.5t-144.5 15.5q-57 0 -107.5 -27t-88 -82.5t-59 -140.5t-21.5 -201q0 -237 63 -346t189 -109q30 0 58.5 1.5t54.5 5.5v368h-155v158h401v-643
q-29 -14 -71 -25.5t-91.5 -20t-104 -13.5t-107.5 -5q-492 0 -492 629q0 157 35.5 273.5t106.5 197.5q139 157 359 157zM536 1565q30 0 57.5 -10.5t48.5 -28t33.5 -41t12.5 -49.5q0 -28 -12 -51.5t-32.5 -41t-48.5 -27.5t-59 -10q-32 0 -60 10.5t-48.5 28t-32.5 41t-12 50.5
q0 26 12 49.5t32.5 41t48.5 28t60 10.5z" />
    <glyph glyph-name="gdotaccent" unicode="&#x121;" horiz-adv-x="902" 
d="M830 917v-894q0 -155 -100 -242t-306 -87q-90 0 -175.5 15.5t-168.5 47.5l54 163q74 -27 142.5 -41t133.5 -14q172 0 172 158v88q-45 -27 -99.5 -40.5t-100.5 -13.5q-236 0 -297 144q-59 144 -59 289q0 84 23 160t68 143q45 63 127 99.5t197 41.5q111 0 184 -47
q3 9 4.5 16t3.5 14h197zM582 736q-31 22 -62 27t-60 5q-50 0 -85 -22t-56.5 -60.5t-31 -90.5t-9.5 -113q0 -128 32.5 -193t119.5 -65q68 0 106 35t46 100v377zM444 1314q30 0 57 -10t48 -27.5t33.5 -41t12.5 -50.5q0 -26 -12 -49.5t-32.5 -41t-48 -27.5t-58.5 -10
q-32 0 -60 10t-48 27.5t-31.5 41t-11.5 49.5t11.5 49.5t32 41t48 28t59.5 10.5z" />
    <glyph glyph-name="Gcommaaccent" unicode="&#x122;" horiz-adv-x="942" 
d="M527 1247q58 0 101.5 -2.5t76.5 -7.5t58 -12t46 -16h-1q7 -3 18 -7t22.5 -9t22 -9t17.5 -7l-75 -164q-51 26 -111 41.5t-145 15.5q-57 0 -107.5 -27t-88 -82.5t-59 -140.5t-21.5 -201q0 -237 63 -346t189 -109q30 0 58.5 1.5t54.5 5.5v368h-155v158h401v-643
q-29 -14 -71 -25.5t-91.5 -20t-104 -13.5t-107.5 -5q-492 0 -492 629q0 310 143 471q137 157 358 157zM554 -48q32 0 59.5 -10t48 -27.5t32 -40.5t11.5 -48q0 -6 -2 -19.5t-5.5 -28t-8 -27.5t-9.5 -20h1l-72.5 -124.5l-72.5 -123.5h-184l107 245q-29 19 -42.5 45t-13.5 53
q0 25 12 48t32 40t47.5 27.5t59.5 10.5z" />
    <glyph glyph-name="gcommaaccent" unicode="&#x123;" horiz-adv-x="896" 
d="M823 917v-894q0 -155 -100 -242t-306 -87q-90 0 -175.5 15.5t-168.5 47.5l54 163q74 -27 142.5 -41t133.5 -14q172 0 172 158v88q-45 -27 -99.5 -40.5t-100.5 -13.5q-236 0 -297 144q-59 144 -59 289q0 84 23 160t68 143q45 63 127 99.5t197 41.5q111 0 184 -47q3 9 5 16
l4 14h196zM575 736q-30 22 -61.5 27t-60.5 5q-50 0 -84.5 -22t-56.5 -60.5t-31.5 -90.5t-9.5 -113q0 -128 32.5 -193t119.5 -65q68 0 106 35t46 100v377zM438 995q-32 0 -59.5 10t-47.5 27t-32 39.5t-12 48.5q0 7 2 19.5t5 26.5t7 27t9 21l145 248h183l-106 -245
q26 -20 41 -45.5t15 -51.5t-12.5 -48.5t-33.5 -39.5t-48 -27t-56 -10z" />
    <glyph glyph-name="Hcircumflex" unicode="&#x124;" horiz-adv-x="1113" 
d="M766 9v538h-431v-538h-261v1225h261v-508h431v508h258v-1225h-258zM667 1569l258 -254h-251l-121 94l-61.5 -47.5l-60.5 -46.5h-251l260 254h227z" />
    <glyph glyph-name="hcircumflex" unicode="&#x125;" horiz-adv-x="945" 
d="M86 1224h248v-351q38 26 88 43.5t116 17.5q90 0 154 -21t105 -59.5t60 -92.5t19 -120v-632h-247v632q0 25 -5 48t-19.5 40.5t-40 28t-67.5 10.5q-162 0 -163 -189v-570h-248v1215zM551 1534l256 -251h-248l-120 93l-60.5 -47l-60.5 -46h-249l257 251h225z" />
    <glyph glyph-name="Hbar" unicode="&#x126;" horiz-adv-x="1272" 
d="M73 937v161h86v136h260v-136h432v136h258v-136h69v-161h-69v-928h-258v538h-432v-538h-260v928h-86zM851 726v211h-432v-211h432z" />
    <glyph glyph-name="hbar" unicode="&#x127;" horiz-adv-x="1010" 
d="M74 991v159h76v74h248v-74h239v-159h-239v-118q38 26 88.5 43.5t116.5 17.5q90 0 154 -21t105 -59.5t60 -92.5t19 -120v-632h-247v632q0 25 -5 48t-19.5 40.5t-40.5 28t-68 10.5q-163 0 -163 -193v-566h-248v982h-76z" />
    <glyph glyph-name="Itilde" unicode="&#x128;" horiz-adv-x="721" 
d="M96 1234h512v-159h-126v-908h126v-158h-512v158h121v908h-121v159zM26 1337q15 36 36.5 66.5t50 53t64 35t79.5 12.5q28 0 49.5 -2.5t38.5 -8t31 -13t28 -16.5q18 -17 34 -28.5t32 -11.5q14 0 35 29t42 68l144 -82q-15 -33 -37.5 -63.5t-51.5 -54t-65.5 -37.5t-79.5 -14
q-42 0 -79.5 12.5t-66.5 29.5l-14.5 9t-5.5 4l-27 18t-19 7q-15 0 -34.5 -26.5t-45.5 -65.5z" />
    <glyph glyph-name="itilde" unicode="&#x129;" horiz-adv-x="706" 
d="M236 760h-137v158h384v-909h-247v751zM392 1238h1h-1zM393 1237q-1 0 -1 1l-1 1zM15 1115q15 36 36.5 66t49.5 52t63.5 34.5t79.5 12.5q54 0 87.5 -11.5t62.5 -32.5l-1 1q18 -15 32.5 -25t28.5 -10t34.5 28t41.5 68l144 -83q-16 -33 -38 -63t-51 -53t-64.5 -36.5
t-78.5 -13.5q-42 0 -79 12t-66 29q-15 10 -19 12h2l-28.5 18t-19.5 7q-16 0 -36 -26t-45 -64z" />
    <glyph glyph-name="Imacron" unicode="&#x12a;" horiz-adv-x="607" 
d="M41 1234h511v-159h-126v-908h126v-158h-511v158h121v908h-121v159zM19 1327v160h567v-160h-567z" />
    <glyph glyph-name="imacron" unicode="&#x12b;" horiz-adv-x="473" 
d="M137 760h-137v158h384v-909h-247v751zM-5 1040v159h393v-159h-393z" />
    <glyph glyph-name="Ibreve" unicode="&#x12c;" horiz-adv-x="690" 
d="M85 1234h512v-159h-126v-908h126v-158h-512v158h121v908h-121v159zM647 1560q-2 -55 -26.5 -103t-66 -84t-96.5 -56.5t-117 -20.5q-61 0 -116 20.5t-96.5 56t-66.5 83.5t-26 104h189q1 -24 10.5 -45t25 -36.5t36 -24.5t44.5 -9q47 0 80 33t37 82h189z" />
    <glyph glyph-name="ibreve" unicode="&#x12d;" horiz-adv-x="663" 
d="M215 760h-136v158h383v-909h-247v751zM627 1298q-2 -55 -27 -102.5t-66 -83t-95 -56t-115 -20.5t-115.5 20.5t-96 55.5t-66 83t-25.5 103h187q1 -24 10.5 -44.5t25 -36t36.5 -24.5t44 -9q22 0 42.5 9t36 24.5t25.5 36t11 44.5h188z" />
    <glyph glyph-name="Iogonek" unicode="&#x12e;" horiz-adv-x="595" 
d="M47 1234h511v-159h-126v-908h126v-149q-41 -14 -72.5 -29t-58.5 -31q-63 -42 -96 -94.5t-33 -96.5q0 -11 4 -23.5t13 -22.5t22.5 -16.5t32.5 -6.5q40 0 155 31l34 -139q-60 -12 -107 -17.5t-85 -5.5q-69 0 -120.5 14.5t-86 40.5t-51.5 62.5t-17 81.5q0 29 6.5 56.5
t23.5 54t46 52.5t74 53q11 7 22 13t28 14h-245v158h121v908h-121v159z" />
    <glyph glyph-name="iogonek" unicode="&#x12f;" horiz-adv-x="540" 
d="M148 -18l30 16t38 17v745h-137v158h384v-901q-66 -22 -114.5 -52.5t-81 -64.5t-48 -68t-15.5 -63q0 -11 4 -23t12.5 -22.5t22 -17t32.5 -6.5t57.5 7t96.5 23l34 -138q-59 -11 -106 -17t-85 -6q-68 0 -119 14.5t-85 41t-51 62.5t-17 80q0 56 32.5 109t115.5 106zM341 1312
q31 0 59 -10.5t48.5 -28.5t32.5 -42t12 -50t-12.5 -49.5t-33.5 -41t-48.5 -27.5t-57.5 -10q-31 0 -58.5 10t-48.5 27.5t-33 41t-12 49.5q0 27 12 50.5t32.5 41.5t48 28.5t59.5 10.5z" />
    <glyph glyph-name="Idotaccent" unicode="&#x130;" horiz-adv-x="565" 
d="M25 1234h511v-159h-126v-908h126v-158h-511v158h121v908h-121v159zM277 1553q29 0 56 -10t48 -27.5t34 -41t13 -50.5q0 -28 -12 -51.5t-32.5 -41t-48 -27t-58.5 -9.5q-33 0 -61 10t-48.5 27.5t-32.5 41t-12 50.5t12 50.5t33 41t49 27.5t60 10z" />
    <glyph glyph-name="dotlessi" unicode="&#x131;" horiz-adv-x="504" 
d="M150 760h-137v158h383v-909h-246v751z" />
    <glyph glyph-name="IJ" unicode="&#x132;" horiz-adv-x="1499" 
d="M82 1234h512v-159h-126v-908h126v-158h-512v158h121v908h-121v159zM1121 1234h262v-907q-1 -134 -89 -237q-87 -100 -332 -100q-100 0 -183.5 36.5t-152.5 92.5l131 158q42 -45 95.5 -75.5t117.5 -30.5q151 0 151 156v907z" />
    <glyph glyph-name="ij" unicode="&#x133;" horiz-adv-x="917" 
d="M276 1312q31 0 59 -10.5t48.5 -28.5t32.5 -42t12 -50t-12.5 -49.5t-33.5 -41t-48.5 -27.5t-57.5 -10q-31 0 -58.5 10t-48.5 27.5t-33 41t-12 49.5q0 27 12 50.5t32.5 41.5t48 28.5t59.5 10.5zM151 760h-137v158h384v-909h-247v751zM673 1312q31 0 58.5 -10.5t48.5 -28
t33.5 -41.5t12.5 -51q0 -26 -12.5 -49.5t-33.5 -41t-48.5 -27.5t-58.5 -10q-30 0 -57.5 9.5t-48.5 27t-33.5 41t-12.5 50.5t12.5 51t33.5 42t48.5 28t57.5 10zM548 760h-135v158h383v-974q0 -250 -301 -250q-64 0 -115.5 8.5t-89.5 23.5l9 38l10.5 43.5l11 44l10.5 39.5
q38 -12 69 -19t53 -7q48 0 71.5 17.5t23.5 61.5v816z" />
    <glyph glyph-name="Jcircumflex" unicode="&#x134;" horiz-adv-x="866" 
d="M516 1234h263v-907q-2 -135 -90 -237q-85 -100 -332 -100q-100 0 -183.5 36.5t-152.5 92.5l131 158q42 -45 95.5 -75.5t118.5 -30.5q150 0 150 156v907zM533 1547l257 -253h-250l-121 94l-60.5 -47l-60.5 -47h-251l259 253h227z" />
    <glyph glyph-name="jcircumflex" unicode="&#x135;" horiz-adv-x="743" 
d="M319 760h-136v158h383v-974q0 -250 -301 -250q-64 0 -115.5 8.5t-89.5 23.5l5 20.5l5 21.5l4 16.5l4 16.5l22 89q37 -11 69 -18t55 -7q48 0 71.5 17.5t23.5 61.5v816zM479 1302l257 -252h-250l-119 94l-61 -47l-60 -47h-249l258 252h224z" />
    <glyph glyph-name="Kcommaaccent" unicode="&#x136;" horiz-adv-x="1004" 
d="M56 1234h261v-441l167.5 220.5l167.5 220.5h277l-424 -557l121.5 -165l125 -169l124.5 -169.5l121 -164.5h-295l-385 518v-518h-261v1225zM547 -48q32 0 59.5 -10t48 -27.5t32 -40.5t11.5 -48q0 -6 -2 -19.5t-5.5 -28t-8 -27.5t-9.5 -20h1l-72.5 -124.5l-72.5 -123.5
h-184l107 245q-29 19 -42.5 45t-13.5 53q0 25 12 48t32 40t47.5 27.5t59.5 10.5z" />
    <glyph glyph-name="kcommaaccent" unicode="&#x137;" horiz-adv-x="851" 
d="M65 1224h245v-606l126.5 150.5l125.5 150.5h292l-350 -402l180 -255.5l180 -253.5h-287l-267 370v-369h-245v1215zM452 -21q31 0 58.5 -10.5t48 -28t32.5 -40t12 -47.5q0 -6 -2.5 -19.5t-6 -28t-8 -27.5t-7.5 -20l-145 -246h-183l107 243q-29 20 -42.5 46t-13.5 52
q0 24 12 47t32 40.5t47.5 28t58.5 10.5z" />
    <glyph glyph-name="kgreenlandic" unicode="&#x138;" horiz-adv-x="966" 
d="M96 876h245v-258l127 150.5l126 150.5h291l-349 -402l180 -255.5l180 -253.5h-288l-267 370v-369h-245v867z" />
    <glyph glyph-name="Lacute" unicode="&#x139;" horiz-adv-x="836" 
d="M83 1234h265v-1039h498v-186h-763v1225zM284 1579h324l-306 -254h-227z" />
    <glyph glyph-name="lacute" unicode="&#x13a;" horiz-adv-x="565" 
d="M74 1224h248v-1015q0 -38 33 -38q15 0 38 5t51 13l40 -164q-51 -13 -93.5 -20t-77.5 -7q-53 0 -97 15t-75.5 42.5t-49 66.5t-17.5 87v1015zM270 1561h320l-303 -252h-226z" />
    <glyph glyph-name="Lcommaaccent" unicode="&#x13b;" horiz-adv-x="804" 
d="M59 1234h266v-1039h497v-186h-763v1225zM454 -48q31 0 59 -10t49 -27.5t33 -40.5t12 -48q0 -6 -2.5 -19t-6.5 -27.5l-8 -28t-8 -20.5l-146 -248h-184l108 245q-29 19 -43 45t-14 53q0 25 12 48t32 40t47.5 27.5t59.5 10.5z" />
    <glyph glyph-name="lcommaaccent" unicode="&#x13c;" horiz-adv-x="471" 
d="M62 1224h248v-1015q0 -38 33 -38q16 0 39 5t50 13l40 -164q-51 -13 -93.5 -20t-76.5 -7q-54 0 -98 15t-75.5 42.5t-49 66.5t-17.5 87v1015zM304 -47q31 0 59 -10.5t48.5 -27.5t32.5 -39.5t12 -47.5q0 -6 -2.5 -19t-6.5 -27.5l-8 -28t-8 -20.5l-145 -246h-182l107 243
q-29 19 -43 45t-14 53q0 24 12 47t32 40t47.5 27.5t58.5 10.5z" />
    <glyph glyph-name="Lcaron" unicode="&#x13d;" horiz-adv-x="906" 
d="M96 1234h265v-1039h498v-186h-763v1225zM585 1289q31 0 59 -10.5t48.5 -27.5t32.5 -40.5t12 -48.5q0 -7 -2 -19t-5.5 -25.5t-7 -25.5t-6.5 -19l-150 -256h-183l107 246q-28 20 -42.5 46.5t-14.5 52.5t12.5 49t33.5 40.5t48.5 27.5t57.5 10z" />
    <glyph glyph-name="lcaron" unicode="&#x13e;" horiz-adv-x="740" 
d="M93 1224h248v-1015q0 -38 33 -38q15 0 38 5t51 13l39 -164q-51 -13 -93.5 -20t-76.5 -7q-53 0 -97 15t-75.5 42.5t-49 66.5t-17.5 87v1015zM566 1278q31 0 59 -10t48 -27.5t32 -40.5t12 -48q0 -7 -2 -18.5t-5 -24.5t-6.5 -25.5t-6.5 -19.5l-149 -253h-182l106 244
q-26 20 -41 45.5t-15 51.5t12.5 49t33.5 40t48 27t56 10z" />
    <glyph glyph-name="Ldot" unicode="&#x13f;" horiz-adv-x="860" 
d="M99 1234h265v-1039h498v-186h-763v1225zM541 1018q30 0 56.5 -10.5t47 -28.5t32.5 -41.5t12 -50.5t-12 -50.5t-32.5 -41.5t-47 -28t-56.5 -10q-31 0 -58.5 10t-48 28t-32.5 41.5t-12 50.5t12 50.5t32.5 41.5t48 28.5t58.5 10.5z" />
    <glyph glyph-name="ldot" unicode="&#x140;" horiz-adv-x="674" 
d="M95 1224h248v-1015q0 -38 33 -38q16 0 38.5 5t50.5 13l40 -164q-51 -13 -93.5 -20t-76.5 -7q-54 0 -98 15t-75.5 42.5t-49 66.5t-17.5 87v1015zM540 705q29 0 55.5 -10.5t47 -28.5t32.5 -41.5t12 -49.5q0 -27 -12 -50.5t-32.5 -41t-47 -28t-55.5 -10.5q-31 0 -58 10.5
t-47.5 28t-32 41t-11.5 50.5q0 26 11.5 49.5t32 41.5t47.5 28.5t58 10.5z" />
    <glyph glyph-name="Lslash" unicode="&#x141;" horiz-adv-x="936" 
d="M169 1234h265v-352l108 70l99 65v-235l-207 -136v-451h497v-186h-762v464l-32 -20.5l-33 -21l-30 -19.5l-23 -15v235l118 77v525z" />
    <glyph glyph-name="lslash" unicode="&#x142;" horiz-adv-x="557" 
d="M120 1224h248v-380l62.5 42.5l51.5 34.5v-222l-114 -76v-414q0 -38 33 -38q16 0 38.5 5t50.5 13l39 -164q-50 -13 -93 -20t-78 -7q-53 0 -96.5 15t-75 42.5t-49 66.5t-17.5 87v248l-52.5 -35l-40.5 -28v224l93 63v543z" />
    <glyph glyph-name="Nacute" unicode="&#x143;" horiz-adv-x="1033" 
d="M52 9v1225h322l324 -789v789h244v-1225h-316l-330 802v-802h-244zM598 1580h324l-306 -253h-227z" />
    <glyph glyph-name="nacute" unicode="&#x144;" horiz-adv-x="927" 
d="M65 919h203l14 -61q44 33 104.5 54.5t130.5 21.5q90 0 154 -21t105 -59.5t60 -92.5t19 -120v-632h-247v632q0 25 -5 48t-19.5 40.5t-40.5 28t-68 10.5q-162 0 -163 -189v-570h-247v910zM403 1302h322l-303 -252h-226z" />
    <glyph glyph-name="Ncommaaccent" unicode="&#x145;" horiz-adv-x="1016" 
d="M57 9v1225h322l324 -789v789h244v-1225h-316l-330 802v-802h-244zM536 -18q32 0 59.5 -10.5t48 -28t32 -40t11.5 -47.5q0 -6 -2 -19.5t-5.5 -28t-8 -28t-9.5 -20.5h1l-72.5 -124l-72.5 -124h-184l107 245q-29 20 -42.5 46t-13.5 53q0 24 11.5 47t32 40.5t48 28t59.5 10.5
z" />
    <glyph glyph-name="ncommaaccent" unicode="&#x146;" horiz-adv-x="907" 
d="M57 919h203l15 -61q43 33 103.5 54.5t130.5 21.5q90 0 154 -21t105 -59.5t60 -92.5t19 -120v-632h-247v632q0 25 -5 48t-19.5 40.5t-40.5 28t-68 10.5q-161 0 -162 -189v-570h-248v910zM468 19q31 0 58.5 -10.5t48 -27.5t32 -40t11.5 -48q0 -6 -2 -19t-5.5 -27.5
t-8 -27.5t-9.5 -20h1l-72 -123l-72 -123h-182l106 244q-28 19 -42 44.5t-14 51.5q0 25 11.5 48t32 40t47.5 27.5t59 10.5z" />
    <glyph glyph-name="Ncaron" unicode="&#x147;" horiz-adv-x="1061" 
d="M78 9v1225h322l324 -789v789h244v-1225h-316l-330 802v-802h-244zM425 1280l-259 254h250l123 -93l60.5 46.5l59.5 46.5h251l-258 -254h-227z" />
    <glyph glyph-name="ncaron" unicode="&#x148;" horiz-adv-x="960" 
d="M79 919h204l14 -61q43 33 104 54.5t131 21.5q90 0 154 -21t104.5 -59.5t59.5 -92.5t19 -120v-632h-246v632q0 25 -5 48t-19.5 40.5t-40.5 28t-68 10.5q-162 0 -163 -189v-570h-248v910zM358 1050l-256 252h248l120 -92l121 92h249l-256 -252h-226z" />
    <glyph glyph-name="napostrophe" unicode="&#x149;" horiz-adv-x="1074" 
d="M244 919h202l15 -63q44 35 102.5 56.5t132.5 21.5q90 0 154 -21t105 -59.5t60 -92.5t19 -120v-632h-248v632q0 25 -5 48t-19 40.5t-40 28t-68 10.5q-163 0 -163 -193v-566h-247v910zM243 1396q31 0 58.5 -10t48 -27t32 -40t11.5 -48q0 -6 -2 -19t-5.5 -27.5t-7.5 -28
t-8 -19.5l-145 -247h-182l106 244q-29 19 -42.5 45t-13.5 52q0 25 12 47.5t32 39.5t47.5 27.5t58.5 10.5z" />
    <glyph glyph-name="Eng" unicode="&#x14a;" horiz-adv-x="1057" 
d="M696 9h-66l-330 802v-802h-244v1225h322l324 -789v789h244v-1291q0 -252 -303 -252q-65 0 -117 8.5t-90 24.5l7 29.5l7 29.5q3 10 6.5 24l7 28.5t7.5 29l7 25.5q37 -12 68.5 -19t54.5 -7q48 0 71.5 17.5t23.5 61.5v66z" />
    <glyph glyph-name="eng" unicode="&#x14b;" horiz-adv-x="954" 
d="M599 641q0 25 -5 48t-19.5 40.5t-40.5 28t-68 10.5q-162 0 -162 -193v-566h-248v910h203l15 -61q43 33 103.5 54.5t130.5 21.5q90 0 154 -21t105 -59.5t60 -92.5t19 -120l-1 -697q0 -250 -301 -250q-64 0 -115.5 8.5t-90.5 23.5q4 13 8 29.5l7 29.5q3 10 6 24t7 28.5
t7.5 28.5l6.5 25q37 -12 68.5 -19t53.5 -7q48 0 71.5 17.5t23.5 61.5z" />
    <glyph glyph-name="Omacron" unicode="&#x14c;" horiz-adv-x="1048" 
d="M519 1247q468 0 468 -628q0 -629 -468 -629q-471 0 -471 629q0 628 471 628zM519 1075q-216 0 -216 -456q0 -458 216 -458q214 0 214 458q0 456 -214 456zM232 1338v161h567v-161h-567z" />
    <glyph glyph-name="omacron" unicode="&#x14d;" horiz-adv-x="934" 
d="M460 934q106 0 184.5 -32t130 -93t76.5 -149t25 -200t-25 -200t-76 -149t-129.5 -93t-185.5 -32q-108 0 -186.5 32t-129.5 93t-76 149t-25 200t25 200t76.5 149t130 93t185.5 32zM459 768q-86 0 -125.5 -75.5t-39.5 -231.5q0 -159 39.5 -232.5t125.5 -73.5
q85 0 124.5 74.5t39.5 231.5t-39.5 232t-124.5 75zM178 1106v159h562v-159h-562z" />
    <glyph glyph-name="Obreve" unicode="&#x14e;" horiz-adv-x="1055" 
d="M522 1247q468 0 468 -628q0 -629 -468 -629q-471 0 -471 629q0 628 471 628zM522 1075q-216 0 -216 -456q0 -458 216 -458q214 0 214 458q0 456 -214 456zM831 1588q-2 -55 -27 -103t-66.5 -83.5t-96 -56t-115.5 -20.5q-62 0 -117 20.5t-96.5 56t-66.5 83.5t-26 103h188
q1 -24 11 -44.5t25.5 -36t36.5 -24.5t45 -9q22 0 42.5 9t36.5 24.5t26 36t11 44.5h189z" />
    <glyph glyph-name="obreve" unicode="&#x14f;" horiz-adv-x="963" 
d="M474 934q107 0 185.5 -32t130 -93t76.5 -149t25 -200t-25 -200t-76 -149t-129.5 -93t-186.5 -32q-107 0 -185.5 32t-129.5 93t-76 149t-25 200t25 200t76 149t129.5 93t185.5 32zM473 768q-85 0 -124.5 -75.5t-39.5 -231.5q0 -159 39.5 -232.5t124.5 -73.5
q86 0 125.5 74.5t39.5 231.5t-39.5 232t-125.5 75zM777 1298q-2 -55 -26.5 -102.5t-66 -83t-96 -56t-115.5 -20.5q-60 0 -114.5 20.5t-96 55.5t-66 83t-25.5 103h188q0 -24 9 -44.5t25 -36t36.5 -24.5t43.5 -9t43.5 9t36.5 24.5t25.5 36t11.5 44.5h187z" />
    <glyph glyph-name="Ohungarumlaut" unicode="&#x150;" horiz-adv-x="1062" 
d="M520 1247q468 0 468 -628q0 -629 -468 -629q-471 0 -471 629q0 628 471 628zM520 1075q-216 0 -216 -456q0 -458 216 -458q214 0 214 458q0 456 -214 456zM404 1556h286l-254 -262h-201zM690 1556h286l-255 -262h-201z" />
    <glyph glyph-name="ohungarumlaut" unicode="&#x151;" horiz-adv-x="978" 
d="M468 934q106 0 184.5 -32t130 -93t76.5 -149t25 -200t-25 -200t-76 -149t-129.5 -93t-185.5 -32q-108 0 -186.5 32t-129.5 93t-76 149t-25 200t25 200t76.5 149t130 93t185.5 32zM467 768q-86 0 -125.5 -75.5t-39.5 -231.5q0 -159 39.5 -232.5t125.5 -73.5
q85 0 124.5 74.5t39.5 231.5t-39.5 232t-124.5 75zM349 1302h283l-252 -261h-200zM631 1302h284l-252 -261h-199z" />
    <glyph glyph-name="OE" unicode="&#x152;" horiz-adv-x="1595" 
d="M551 1247q80 0 149 -20q152 1 275.5 1h220.5h314v-173l-583 -1q76 -131 91 -334h436v-172h-435q-10 -233 -97 -374h589v-171h-838q-26 -7 -56.5 -10t-65.5 -3q-469 0 -469 629q0 628 469 628zM551 1075q-214 0 -214 -456q0 -458 214 -458q215 0 215 458q0 456 -215 456z
" />
    <glyph glyph-name="oe" unicode="&#x153;" horiz-adv-x="1577" 
d="M502 934q187 0 287 -94q49 48 116 71t155 23q212 0 309.5 -104t97.5 -306v-129h-549q-1 -13 -3 -23q4 -56 16.5 -97t35.5 -67.5t58.5 -39.5t86.5 -13q57 0 124 16.5t129 41.5l73 -155q-85 -35 -168.5 -53.5t-168.5 -18.5q-100 0 -178 24.5t-131 72.5q-101 -97 -290 -97
q-107 0 -185.5 32t-129.5 93t-76 149t-25 200t25 200t76 149t129.5 93t185.5 32zM665 404q0 1 -0.5 1t-0.5 1zM664 406q-1 6 -1 10.5v9.5v61v13t1 10q-5 133 -44.5 195.5t-117.5 62.5q-86 0 -125.5 -75.5t-39.5 -231.5q0 -159 39.5 -232.5t125.5 -73.5q77 0 115 59.5
t47 193.5v-2zM913 555q0 -2 0.5 -3t0.5 -3zM884 538h32v-2q0 -2 0.5 -5t0.5 -7zM914 549q2 -8 2 -11h316q-3 102 -34 167q-32 66 -125 66q-42 0 -70.5 -15.5t-46.5 -44.5t-27.5 -70t-13.5 -92h-1z" />
    <glyph glyph-name="Racute" unicode="&#x154;" horiz-adv-x="1009" 
d="M329 9h-260v1225h334q118 0 209.5 -18t154.5 -59.5t95.5 -110.5t32.5 -171q0 -71 -15.5 -127t-44.5 -99t-70 -73t-92 -50l75 -127.5l78.5 -131.5l78 -131.5l74.5 -126.5h-290l-273 480h-87v-480zM329 1070v-413h142q159 0 159 206q0 207 -205 207h-96zM484 1532h323
l-306 -254h-227z" />
    <glyph glyph-name="racute" unicode="&#x155;" horiz-adv-x="780" 
d="M40 161h132v601h-132v157h339l11 -67q36 39 90 60.5t133 21.5q96 0 160 -29l-48 -201q-88 43 -137 43q-164 0 -164 -241v-345h174v-152h-558v152zM331 1302h321l-303 -252h-225z" />
    <glyph glyph-name="Rcommaaccent" unicode="&#x156;" horiz-adv-x="991" 
d="M326 9h-260v1225h334q118 0 209.5 -18t154.5 -59.5t95.5 -110.5t32.5 -171q0 -71 -15.5 -127t-44.5 -99t-70 -73t-92 -50l75 -127.5l78.5 -131.5l78 -131.5l74.5 -126.5h-290l-273 480h-87v-480zM326 1070v-413h142q159 0 159 206q0 207 -205 207h-96zM484 20
q32 0 59.5 -10.5t48 -28t32 -40.5t11.5 -48q0 -6 -2 -19.5t-6 -28t-8.5 -28t-8.5 -20.5h1l-73 -124l-73 -124h-183l107 246q-29 19 -43 45t-14 53q0 25 12 48t32.5 40.5t48 28t59.5 10.5z" />
    <glyph glyph-name="rcommaaccent" unicode="&#x157;" horiz-adv-x="782" 
d="M44 161h132v601h-132v157h339l11 -67q36 39 90 60.5t133 21.5q97 0 159 -29l-47 -201q-88 43 -138 43q-163 0 -163 -241v-345h174v-152h-558v152zM326 -60q31 0 59 -10.5t48 -27.5t32 -40t12 -48q0 -6 -2.5 -18.5t-6 -27t-7.5 -28.5t-8 -21l-145 -246h-182l106 244
q-29 19 -42.5 45t-13.5 52q0 25 12 48t32 40t47.5 27.5t58.5 10.5z" />
    <glyph glyph-name="Rcaron" unicode="&#x158;" horiz-adv-x="1026" 
d="M338 9h-260v1225h334q118 0 209.5 -18t154.5 -59.5t95.5 -110.5t32.5 -171q0 -71 -15.5 -127t-44.5 -99t-70 -73t-92 -50l75 -127.5l78.5 -131.5l78 -131.5l74.5 -126.5h-290l-273 480h-87v-480zM338 1070v-413h142q159 0 159 206q0 207 -205 207h-96zM401 1312l-259 254
h251l120 -93l122 93h250l-257 -254h-227z" />
    <glyph glyph-name="rcaron" unicode="&#x159;" horiz-adv-x="826" 
d="M68 161h131v601h-131v157h339l10 -67q37 39 90.5 60.5t132.5 21.5q96 0 160 -29l-48 -201q-88 43 -137 43q-164 0 -164 -241v-345h175v-152h-558v152zM299 1050l-257 252h248l120 -92l121 92h249l-256 -252h-225z" />
    <glyph glyph-name="Sacute" unicode="&#x15a;" 
d="M773 1008q-164 78 -310 78q-84 0 -126.5 -39.5t-42.5 -100.5q0 -34 12.5 -60.5t35 -48t53.5 -38.5t68 -31q90 -34 163 -72.5t123 -81.5q117 -98 117 -263q0 -92 -31 -160.5t-89.5 -114t-143 -68t-192.5 -22.5q-110 0 -207.5 25t-191.5 70l82 170q80 -31 155.5 -53.5
t147.5 -22.5q209 0 209 175q0 40 -16 73.5t-46 61.5t-72.5 51t-95.5 43q-67 26 -125.5 55.5t-106.5 65.5q-54 42 -82.5 102t-28.5 137q0 67 29.5 126t86 103.5t139 70.5t189.5 26t200 -25.5t171 -63.5zM581 1568h324l-306 -254h-227z" />
    <glyph glyph-name="sacute" unicode="&#x15b;" horiz-adv-x="848" 
d="M652 695q-127 72 -239 73q-115 -6 -115 -94q0 -21 11 -36.5t29.5 -26.5t42.5 -19.5l50 -17.5h-1q74 -23 133.5 -50t101 -62.5t64 -82.5t22.5 -110q0 -149 -127 -221q-58 -30 -124 -46t-142 -16q-106 0 -189 24.5t-149 62.5l17.5 34.5l20 40.5l20 41.5l17.5 36.5l63 -24.5
t62.5 -19.5t69 -13t82.5 -5q25 0 47.5 4.5t39 15.5t26 29t9.5 46q0 31 -14.5 53.5t-38.5 39.5t-56.5 30t-68.5 25h1q-273 82 -273 264q0 47 19.5 92.5t55.5 88.5q37 36 109.5 59t172.5 23q107 0 188 -21.5t146 -52.5q-5 -8 -11.5 -21.5l-10.5 -21.5q-5 -8 -8.5 -16t-7.5 -16
zM488 1260h321l-303 -252h-225z" />
    <glyph glyph-name="Scircumflex" unicode="&#x15c;" horiz-adv-x="979" 
d="M597 1312l58 -57q17 -2 31 -5.5l26 -6.5q43 -12 88 -28.5t90 -39.5l-74 -167q-40 20 -68.5 32.5t-44.5 17.5h-97l-30 25q-35 3 -69 3q-85 0 -127 -39.5t-42 -100.5q0 -34 12.5 -60.5t34.5 -48t53 -38.5t69 -31q90 -34 162.5 -72.5t123.5 -81.5q116 -98 116 -263
q0 -92 -31 -160.5t-89.5 -114t-143 -68t-192.5 -22.5q-110 0 -207 25t-191 70l82 170q79 -31 155 -53.5t147 -22.5q209 0 209 175q0 40 -16 73.5t-46 61.5t-72.5 51t-95.5 43q-67 26 -125.5 55.5t-106.5 65.5q-54 42 -82.5 102t-28.5 137q0 65 29.5 124.5t88.5 107.5v-1
q34 28 95 53l-11 -3q22 23 47 46.5l47 45.5h226z" />
    <glyph glyph-name="scircumflex" unicode="&#x15d;" horiz-adv-x="850" 
d="M683 695q-127 72 -239 73q-115 -6 -115 -94q0 -21 11 -36.5t29.5 -26.5t42.5 -19.5l50 -17.5h-1q74 -23 133.5 -50t101 -62.5t64 -82.5t22.5 -110q0 -149 -127 -221q-58 -30 -124 -46t-142 -16q-106 0 -189 24.5t-149 62.5l17.5 34.5l20 40.5l20 41.5l17.5 36.5l63 -24.5
t62.5 -19.5t69 -13t82.5 -5q25 0 47.5 4.5t39 15.5t26 29t9.5 46q0 31 -14.5 53.5t-38.5 39.5t-56.5 30t-68.5 25h1q-273 82 -273 264q0 47 19.5 92.5t55.5 88.5q37 36 109.5 59t172.5 23q107 0 188 -21.5t146 -52.5q-5 -8 -11.5 -21.5l-10.5 -21.5q-5 -8 -8.5 -16t-7.5 -16
zM531 1302l256 -252h-250l-119 94l-60.5 -47l-60.5 -47h-249l258 252h225z" />
    <glyph glyph-name="Scedilla" unicode="&#x15e;" horiz-adv-x="927" 
d="M786 1008q-162 78 -309 78q-84 0 -126.5 -39.5t-42.5 -100.5q0 -34 12.5 -60.5t34.5 -48t53 -38.5t69 -31q90 -34 163 -72.5t123 -81.5q116 -98 116 -263q0 -137 -69 -222t-200 -121q-45 -12 -102 -18q-1 -8 -2 -14t-2 -18q185 -12 185 -147q0 -50 -21.5 -85.5t-58 -58.5
t-86.5 -33.5t-107 -10.5q-45 0 -84 5.5t-73 12.5q-2 0 -8 1.5t-13 3t-13 3t-8 1.5l34 140q97 -28 145 -28q80 0 80 43q0 35 -21 42.5t-62 7.5h-29h-6.5t-11 -0.5t-20 -1.5t-32.5 -3l38 140q-29 3 -57 8t-51 11q-48 11 -99 30t-100 42l82 170q79 -31 155 -53.5t148 -22.5
q209 0 209 175q0 40 -16 73.5t-46 61.5t-73 51t-96 43q-67 26 -125 55.5t-106 65.5q-54 42 -83 102t-29 137q0 67 29.5 126t86 103.5t139.5 70.5t190 26q106 0 199.5 -25.5t171.5 -63.5z" />
    <glyph glyph-name="scedilla" unicode="&#x15f;" horiz-adv-x="819" 
d="M662 695q-125 71 -238 73q-116 -6 -116 -94q0 -21 11 -36.5t29.5 -26.5t42.5 -19.5l50 -17.5h-1q74 -23 133.5 -50t101.5 -62.5t64.5 -82.5t22.5 -110q0 -149 -128 -221q-28 -15 -59 -26.5t-66 -19.5q-10 -3 -16.5 -4.5t-12 -3t-12.5 -2t-17 -1.5q-1 -9 -2 -15t-2 -18
q183 -10 183 -146q0 -50 -21 -85t-57.5 -57.5t-86 -33t-105.5 -10.5q-45 0 -84 5.5t-72 12.5q-2 0 -8 1.5t-13 2.5t-13 2.5t-8 1.5l34 140q49 -15 84.5 -21.5t58.5 -6.5q80 0 80 42q0 35 -21 42.5t-61 7.5h-29h-5t-10.5 -0.5t-20 -1.5t-34.5 -3l39 141q-47 6 -90 17
q-41 11 -81 27.5t-75 37.5q7 15 17 34.5l20 40l19.5 41l17.5 36.5l63 -24.5t62.5 -19.5t69 -13t82.5 -5q25 0 47.5 4.5t39 15.5t26 29t9.5 46q0 31 -14 53.5t-38.5 39.5t-57 30t-68.5 25h1q-272 83 -272 264q0 47 19 92.5t55 88.5q38 36 110 59t172 23q107 0 188 -21.5
t146 -52.5q-5 -8 -11 -21.5t-11 -21.5t-8.5 -16t-7.5 -16z" />
    <glyph glyph-name="Scaron" unicode="&#x160;" horiz-adv-x="940" 
d="M790 1008q-162 78 -308 78q-85 0 -127.5 -39.5t-42.5 -100.5q0 -34 12 -61t34.5 -48.5t53.5 -38.5t69 -30q95 -35 165.5 -72.5t121.5 -81.5q115 -97 115 -263q0 -92 -30.5 -160.5t-89 -114t-143 -68t-192.5 -22.5q-110 0 -207.5 25t-190.5 70l81 170q79 -31 155 -53.5
t148 -22.5q208 0 208 175q0 40 -16.5 73.5t-46.5 61.5t-72.5 51t-93.5 43q-66 24 -126 55t-106 66q-55 42 -83.5 102t-28.5 137q0 67 29.5 126t86.5 103.5t139.5 70.5t189.5 26t200 -25.5t171 -63.5zM388 1324l-259 253h252l120 -92l121 92h252l-259 -253h-227z" />
    <glyph glyph-name="scaron" unicode="&#x161;" horiz-adv-x="859" 
d="M694 695q-125 72 -238 73q-115 -6 -115 -94q0 -21 11 -36.5t29.5 -26.5t42 -19.5l49.5 -17.5h-1q74 -23 133.5 -50t101.5 -62.5t64.5 -82.5t22.5 -110q0 -149 -128 -221q-57 -30 -123 -46t-142 -16q-107 0 -189.5 24.5t-148.5 62.5q7 15 17 34.5l20 40.5l19.5 41.5
l17.5 36.5l63 -24.5t62.5 -19.5t69 -13t82.5 -5q25 0 47.5 4.5t39 15.5t26 29t9.5 46q0 31 -14 53.5t-38.5 39.5t-57 30t-68.5 25h1q-272 83 -272 264q0 94 75 181q37 36 109 59t172 23q108 0 188.5 -21.5t145.5 -52.5l-10.5 -21.5t-11.5 -21.5t-8 -16t-7 -16zM292 1050
l-256 252h249l119 -92l121 92h248l-255 -252h-226z" />
    <glyph glyph-name="Tcommaaccent" unicode="&#x162;" horiz-adv-x="934" 
d="M9 1234h915v-181h-327v-1044h-260v1044h-328v181zM462 -45q32 0 59.5 -10.5t48 -27.5t32.5 -40.5t12 -48.5q0 -6 -2 -19t-6 -27.5t-8.5 -28t-9.5 -20.5h1l-72.5 -124.5l-72.5 -123.5h-184l108 246q-29 19 -43 45t-14 52q0 25 12 48.5t32 40.5t47.5 27.5t59.5 10.5z" />
    <glyph glyph-name="Tcommaaccent" unicode="&#x21a;" horiz-adv-x="934" 
d="M9 1234h915v-181h-327v-1044h-260v1044h-328v181zM462 -45q32 0 59.5 -10.5t48 -27.5t32.5 -40.5t12 -48.5q0 -6 -2 -19t-6 -27.5t-8.5 -28t-9.5 -20.5h1l-72.5 -124.5l-72.5 -123.5h-184l108 246q-29 19 -43 45t-14 52q0 25 12 48.5t32 40.5t47.5 27.5t59.5 10.5z" />
    <glyph glyph-name="tcommaaccent" unicode="&#x163;" horiz-adv-x="699" 
d="M160 1106h248v-223h244v-162h-244v-425q0 -35 2.5 -61t10.5 -43t23 -25.5t39 -8.5q55 0 147 29l59 -154q-63 -25 -120 -36t-114 -11q-152 4 -223.5 81t-71.5 229v425h-159l18 162h141v223zM405 -55q31 0 59 -10.5t48 -28t32 -40t12 -47.5q0 -6 -2.5 -19.5t-6.5 -28
t-8 -27.5t-8 -20l-145 -246h-182l107 244q-26 19 -41.5 45t-15.5 52q0 24 12 47t32 40.5t47.5 28t59.5 10.5z" />
    <glyph glyph-name="tcommaaccent" unicode="&#x21b;" horiz-adv-x="699" 
d="M160 1106h248v-223h244v-162h-244v-425q0 -35 2.5 -61t10.5 -43t23 -25.5t39 -8.5q55 0 147 29l59 -154q-63 -25 -120 -36t-114 -11q-152 4 -223.5 81t-71.5 229v425h-159l18 162h141v223zM405 -55q31 0 59 -10.5t48 -28t32 -40t12 -47.5q0 -6 -2.5 -19.5t-6.5 -28
t-8 -27.5t-8 -20l-145 -246h-182l107 244q-26 19 -41.5 45t-15.5 52q0 24 12 47t32 40.5t47.5 28t59.5 10.5z" />
    <glyph glyph-name="Tcaron" unicode="&#x164;" horiz-adv-x="918" 
d="M-4 1234h915v-181h-327v-1044h-260v1044h-328v181zM338 1300l-259 254h252l120 -93l122 93h251l-259 -254h-227z" />
    <glyph glyph-name="tcaron" unicode="&#x165;" horiz-adv-x="1131" 
d="M179 1106h249v-223h244v-162h-244v-425q0 -35 2.5 -61t10.5 -43t23 -25.5t39 -8.5q55 0 147 29l59 -154q-63 -25 -120 -36t-114 -11q-152 4 -224 81t-72 229v425h-158l18 162h140v223zM942 1278q31 0 59 -10t48.5 -27.5t32.5 -40.5t12 -48q0 -7 -2 -18.5t-5.5 -24.5
l-7 -25.5t-6.5 -19.5l-149 -253h-182l107 244q-26 20 -41.5 45.5t-15.5 51.5t12.5 49t33.5 40t48 27t56 10z" />
    <glyph glyph-name="Tbar" unicode="&#x166;" horiz-adv-x="966" 
d="M132 606v153h215v294h-328v181h916v-181h-327v-294h211v-153h-211v-597h-261v597h-215z" />
    <glyph glyph-name="tbar" unicode="&#x167;" horiz-adv-x="743" 
d="M24 462l13 166h141v93h-159l19 162h140v223h249v-223h244v-162h-244v-93h242v-166h-242v-166q0 -35 2.5 -61t10.5 -43t23 -25.5t39 -8.5q55 0 147 29l59 -154q-63 -25 -120 -36t-114 -11q-152 4 -224 81t-72 229v166h-154z" />
    <glyph glyph-name="Umacron" unicode="&#x16a;" horiz-adv-x="1038" 
d="M699 1234h261v-821q0 -114 -31.5 -194.5t-89.5 -132.5t-140.5 -76t-185.5 -24t-185.5 25t-140 77t-88.5 133t-31 192v821h261v-821q0 -58 8 -104t28.5 -78.5t56 -49.5t91.5 -17q54 0 90 16.5t57 48.5t30 78.5t9 105.5v821zM215 1324v160h567v-160h-567z" />
    <glyph glyph-name="umacron" unicode="&#x16b;" horiz-adv-x="914" 
d="M589 919h244v-910h-199l-10 50q-91 -73 -241 -73q-90 0 -152 25.5t-100 71t-55 109.5t-17 142v585h250l2 -585q0 -51 3.5 -85t17 -54.5t39.5 -28.5t71 -8q64 0 105.5 45.5t41.5 137.5v578zM169 1106v159h563v-159h-563z" />
    <glyph glyph-name="Uring" unicode="&#x16e;" horiz-adv-x="1030" 
d="M694 1234h261v-821q0 -114 -31.5 -194.5t-89.5 -132.5t-140.5 -76t-185.5 -24t-185.5 25t-140 77t-88.5 133t-31 192v821h261v-821q0 -58 8 -104t28.5 -78.5t56 -49.5t91.5 -17q54 0 90 16.5t57 48.5t30 78.5t9 105.5v821zM505 1679q46 0 87.5 -15t72.5 -41t49.5 -60
t18.5 -73q0 -40 -18.5 -75t-49.5 -61t-72.5 -41t-87.5 -15q-47 0 -88.5 15t-72.5 40.5t-49 60.5t-18 76q0 39 18.5 73t49.5 60t72.5 41t87.5 15zM505 1563q-48 0 -48 -73q0 -74 48 -74t48 74q0 73 -48 73z" />
    <glyph glyph-name="uring" unicode="&#x16f;" horiz-adv-x="914" 
d="M589 919h244v-910h-199l-10 50q-91 -73 -241 -73q-90 0 -152 25.5t-100 71t-55 109.5t-17 142v585h250l2 -585q0 -51 3.5 -85t17 -54.5t39.5 -28.5t71 -8q64 0 105.5 45.5t41.5 137.5v578zM451 1424q46 0 87 -15t72 -41t49 -60t18 -72q0 -39 -18 -74t-49 -60.5t-72 -40.5
t-87 -15q-47 0 -88 15t-72 40.5t-49 60.5t-18 74q0 38 18 72t49 60t72 41t88 15zM451 1309q-48 0 -48 -73q0 -74 48 -74q47 0 47 74q0 73 -47 73z" />
    <glyph glyph-name="Uhungarumlaut" unicode="&#x170;" horiz-adv-x="1048" 
d="M698 1234h261v-821q0 -114 -31.5 -194.5t-89.5 -132.5t-140.5 -76t-185.5 -24t-185.5 25t-140 77t-88.5 133t-31 192v821h261v-821q0 -58 8 -104t28.5 -78.5t56 -49.5t91.5 -17q54 0 90 16.5t57 48.5t30 78.5t9 105.5v821zM378 1573h287l-254 -264h-201zM664 1573h287
l-254 -264h-202z" />
    <glyph glyph-name="uhungarumlaut" unicode="&#x171;" horiz-adv-x="991" 
d="M595 919h244v-910h-200l-9 50q-91 -73 -241 -73q-90 0 -152 25.5t-100.5 71t-55 109.5t-16.5 142v585h250l2 -585q0 -51 3.5 -85t17 -54.5t39.5 -28.5t71 -8q64 0 105.5 45.5t41.5 137.5v578zM367 1302h284l-253 -261h-199zM650 1302h284l-252 -261h-199z" />
    <glyph glyph-name="Uogonek" unicode="&#x172;" horiz-adv-x="1024" 
d="M705 1234h261v-821q0 -168 -70 -266t-197 -136q-21 -6 -44 -11t-48 -9q-15 -7 -31.5 -15.5t-34.5 -19.5h1q-66 -43 -98 -94.5t-32 -96.5q0 -11 4 -23t13 -22.5t22.5 -17.5t32.5 -7q44 0 155 31l34 -139q-60 -12 -107.5 -17.5t-84.5 -5.5q-69 0 -120.5 15t-86 41
t-51.5 62.5t-17 80.5q0 29 6.5 56.5t23.5 54t46 53t74 53.5q8 5 10 6.5t3.5 2.5t5 2.5l14.5 6.5q-14 3 -26.5 6t-25.5 8q-125 40 -194 137.5t-69 263.5v821h261v-821q0 -58 8 -104t28.5 -78.5t56 -49.5t91.5 -17q54 0 90 16.5t57 48.5t30 78.5t9 105.5v821z" />
    <glyph glyph-name="uogonek" unicode="&#x173;" horiz-adv-x="915" 
d="M570 919h245v-902q-65 -22 -113.5 -53t-80.5 -64.5t-47.5 -68t-15.5 -63.5q0 -11 4 -23t12.5 -22t22 -17t32.5 -7q37 0 154 30l33 -138q-59 -11 -106 -17t-84 -6q-68 0 -119 14.5t-85 41t-51 62.5t-17 80q0 28 7 55.5t24 54t45.5 53t71.5 52.5q18 11 45.5 24t62.5 26
q-2 8 -2 9.5v2t-0.5 3t-2.5 13.5q-91 -73 -241 -73q-90 0 -151.5 25.5t-100 71t-55 109.5t-16.5 142v585h250l2 -585q0 -51 3.5 -85t17 -54.5t39 -28.5t70.5 -8q65 0 106 45.5t41 137.5v578z" />
    <glyph glyph-name="Wcircumflex" unicode="&#x174;" horiz-adv-x="1398" 
d="M46 1234h243l122 -861l84 356l83 354h237l169 -713l64.5 433.5l64.5 430.5h220l-169 -1225h-319l-154 693l-38 -168l-41 -180l-41 -179.5l-37 -165.5h-311zM808 1572l259 -254h-251l-122 94l-60.5 -48l-59.5 -46h-251l258 254h227z" />
    <glyph glyph-name="wcircumflex" unicode="&#x175;" horiz-adv-x="1427" 
d="M39 919h254l145 -617l77.5 243l76.5 241h239l148 -480l71.5 307.5l70.5 305.5h243l-220 -910h-312l-129 426l-65.5 -214l-64.5 -212h-302zM815 1302l257 -252h-249l-120 94l-61.5 -47l-59.5 -47h-249l257 252h225z" />
    <glyph glyph-name="Ycircumflex" unicode="&#x176;" horiz-adv-x="1036" 
d="M381 9v581l-196.5 322l-195.5 322h279l246 -429l126.5 215l125.5 214h266l-399 -657l5 8v-576h-257zM654 1603l259 -253h-251l-121 94l-61.5 -47.5l-60.5 -46.5h-251l260 253h226z" />
    <glyph glyph-name="ycircumflex" unicode="&#x177;" horiz-adv-x="965" 
d="M14 919h265l224 -655l91.5 329l91.5 326h254l-316 -1013q-15 -47 -38 -86t-56 -67t-77.5 -43.5t-103.5 -15.5q-46 0 -94.5 9t-103.5 26l38 162q42 -13 72 -19.5t50 -6.5q23 0 39.5 8.5t28.5 26t21.5 44.5t17.5 65h-57zM576 1302l257 -252h-249l-120 94l-60.5 -47
l-59.5 -47h-249l256 252h225z" />
    <glyph glyph-name="Ydieresis" unicode="&#x178;" horiz-adv-x="1044" 
d="M386 9v581l-196.5 322l-196.5 322h280l246 -429l126.5 215l125.5 214h266l-399 -657l5 8v-576h-257zM732 1561q28 0 54 -9t45.5 -25t31 -37.5t11.5 -46.5q0 -24 -11.5 -46t-31 -38t-45.5 -25.5t-54 -9.5q-29 0 -55 9.5t-45.5 25.5t-31 38t-11.5 46t11 45.5t30.5 37.5
t45.5 25.5t56 9.5zM317 1561q28 0 53.5 -9t45 -25t31.5 -37.5t12 -46.5q0 -24 -12 -46t-31.5 -38t-45 -25.5t-53.5 -9.5q-29 0 -55 9.5t-45.5 25.5t-31 38t-11.5 46t11 45.5t30.5 37.5t45.5 25.5t56 9.5z" />
    <glyph glyph-name="Ydieresis" unicode="&#x3ab;" horiz-adv-x="1044" 
d="M386 9v581l-196.5 322l-196.5 322h280l246 -429l126.5 215l125.5 214h266l-399 -657l5 8v-576h-257zM732 1561q28 0 54 -9t45.5 -25t31 -37.5t11.5 -46.5q0 -24 -11.5 -46t-31 -38t-45.5 -25.5t-54 -9.5q-29 0 -55 9.5t-45.5 25.5t-31 38t-11.5 46t11 45.5t30.5 37.5
t45.5 25.5t56 9.5zM317 1561q28 0 53.5 -9t45 -25t31.5 -37.5t12 -46.5q0 -24 -12 -46t-31.5 -38t-45 -25.5t-53.5 -9.5q-29 0 -55 9.5t-45.5 25.5t-31 38t-11.5 46t11 45.5t30.5 37.5t45.5 25.5t56 9.5z" />
    <glyph glyph-name="Zacute" unicode="&#x179;" horiz-adv-x="875" 
d="M60 1234h780v-185l-526 -857h511v-183h-808v179l544 863h-501v183zM475 1579h323l-306 -254h-227z" />
    <glyph glyph-name="zacute" unicode="&#x17a;" horiz-adv-x="804" 
d="M78 919h686v-179l-430 -560h416v-171h-708v171h17l106.5 143.5l104 140l104 139.5l107.5 144h-403v172zM354 1302h321l-303 -252h-225z" />
    <glyph glyph-name="Zdotaccent" unicode="&#x17b;" horiz-adv-x="877" 
d="M67 1234h780v-185l-526 -857h511v-183h-808v179l544 863h-501v183zM464 1560q30 0 57.5 -10.5t48 -28t33 -41t12.5 -50.5t-12 -50.5t-32.5 -41t-48 -28t-58.5 -10.5q-32 0 -60 10.5t-48.5 28.5t-32.5 41.5t-12 49.5q0 27 12 50.5t32.5 41t48.5 28t60 10.5z" />
    <glyph glyph-name="zdotaccent" unicode="&#x17c;" horiz-adv-x="798" 
d="M73 919h686v-179l-430 -560h416v-171h-708v171h17l106.5 143.5l104 140l104 139.5l107.5 144h-403v172zM401 1314q30 0 57.5 -10t48.5 -27.5t33.5 -41t12.5 -50.5q0 -26 -12 -49.5t-32.5 -41t-48 -27.5t-59.5 -10t-59.5 10t-47.5 27.5t-32 41t-12 49.5t12 49.5t32 41
t47.5 28t59.5 10.5z" />
    <glyph glyph-name="Zcaron" unicode="&#x17d;" horiz-adv-x="905" 
d="M84 1234h781v-185l-529 -857h513v-183h-808v179l543 863h-500v183zM455 1464l1 2zM367 1324l-260 253h252l121 -93l121 93h252l-260 -253h-226z" />
    <glyph glyph-name="zcaron" unicode="&#x17e;" horiz-adv-x="865" 
d="M122 919h686v-179l-430 -560h416v-171h-708v171h17l106.5 143.5l104 140l104 139.5l107.5 144h-403v172zM301 1050l-256 252h248l120 -92l121 92h248l-255 -252h-226z" />
    <glyph glyph-name="longs" unicode="&#x17f;" horiz-adv-x="674" 
d="M91 920q0 71 17 130t55 101t100.5 65.5t154.5 23.5q139 0 262 -53l-57 -163q-97 44 -177 44q-32 0 -52.5 -8t-32 -25.5t-16 -45.5t-4.5 -69v-911h-250v911z" />
    <glyph glyph-name="uni0181" unicode="&#x181;" horiz-adv-x="1335" 
d="M35 903q0 75 17 137t55.5 106.5t101.5 69t155 24.5q52 0 96 -6h268q194 0 320 -61h-1q144 -66 144 -251q0 -48 -13 -89t-36 -74t-54 -57.5t-67 -40.5q111 -30 168 -104.5t57 -193.5q0 -354 -418 -354h-445v1057q-30 -1 -48.5 -10.5t-29 -29t-14.5 -50t-4 -73.5h-252z
M651 564v-385h182q31 0 58 10.5t47 33.5t32 58.5t12 85.5q0 48 -9.5 85t-32.5 61.5t-60.5 37.5t-93.5 13h-135zM651 1061v-326h158q56 0 90.5 39.5t34.5 126.5q0 88 -42 124t-133 36h-108z" />
    <glyph glyph-name="uni0186" unicode="&#x186;" 
d="M381 -10q-90 0 -145 9t-97 26h1q-7 3 -17.5 7t-22 9t-22.5 9t-18 7l76 169q25 -12 54 -22.5t58 -19t55.5 -13t47.5 -4.5q58 0 105.5 27t81.5 82.5t52.5 140.5t18.5 201q0 118 -12.5 203.5t-39 140.5t-68.5 81t-101 26t-119 -14t-124 -41l-68 168q32 14 65 26t71.5 20.5
t83.5 13.5t101 5q125 0 213.5 -38.5t144.5 -117t82 -196.5t26 -277t-33 -277t-95.5 -196t-152 -116.5t-202.5 -38.5z" />
    <glyph glyph-name="uni018E" unicode="&#x18e;" horiz-adv-x="916" 
d="M806 9h-763v170h503v375h-446v172h446v335h-502v173h762v-1225z" />
    <glyph glyph-name="uni018F" unicode="&#x18f;" horiz-adv-x="1073" 
d="M55 711h681q-3 31 -8 60t-12 52q-17 63 -43 109.5t-58.5 77t-70.5 45.5t-80 15t-77 -4t-66 -11.5t-58.5 -18.5t-55.5 -24l-74 165l79 32h-1q22 9 46.5 16t57 12t76 7.5t103.5 2.5q220 0 359 -157q141 -161 141 -471q0 -629 -469 -629q-470 0 -470 628v93zM525 161
q189 0 212 369h-424q21 -369 212 -369z" />
    <glyph glyph-name="uni018F" unicode="&#x4d8;" horiz-adv-x="1073" 
d="M55 711h681q-3 31 -8 60t-12 52q-17 63 -43 109.5t-58.5 77t-70.5 45.5t-80 15t-77 -4t-66 -11.5t-58.5 -18.5t-55.5 -24l-74 165l79 32h-1q22 9 46.5 16t57 12t76 7.5t103.5 2.5q220 0 359 -157q141 -161 141 -471q0 -629 -469 -629q-470 0 -470 628v93zM525 161
q189 0 212 369h-424q21 -369 212 -369z" />
    <glyph glyph-name="uni0190" unicode="&#x190;" horiz-adv-x="946" 
d="M861 89q-66 -42 -146 -66.5t-182 -24.5q-99 0 -185 25.5t-150 74t-100.5 120.5t-36.5 165q0 63 17 112.5t48.5 86.5t75.5 61.5t98 38.5q-204 79 -204 263q0 76 26.5 133.5t76.5 95.5t122.5 57t164.5 19q106 0 193 -30t171 -85l-25.5 -38.5l-25.5 -38.5l-10.5 -15.5
l-13.5 -20l-13.5 -20l-10.5 -15.5q-138 87 -256 87q-152 0 -152 -147q0 -172 248 -172v-166q-143 0 -214 -40q-61 -34 -61 -163q0 -48 16 -87.5t44.5 -67.5t68.5 -43t88 -15q67 0 123.5 21t117.5 60q5 -8 12.5 -19l15.5 -23l15.5 -23.5t12.5 -18.5l20 -30.5l21 -29.5z" />
    <glyph glyph-name="uni0191" unicode="&#x191;" horiz-adv-x="1034" 
d="M289 9h-5v1225h747v-173h-489v-366h443v-175h-443v-577q-5 -252 -306 -252q-65 0 -116.5 8.5t-90.5 24.5l5 20.5l5 21.5q2 8 3.5 16.5t3.5 17.5l23 89q38 -11 70 -18t55 -7q48 0 71.5 17.5t23.5 61.5v66z" />
    <glyph glyph-name="florin" unicode="&#x192;" horiz-adv-x="738" 
d="M31 887h116v33q0 71 17 130t55 101t100.5 65.5t154.5 23.5q138 0 261 -53l-57 -163q-97 44 -177 44q-32 0 -52 -8t-31.5 -25.5t-16 -45.5t-4.5 -69v-33h224v-164h-224v-1029h-250v1029h-116v164z" />
    <glyph glyph-name="uni0193" unicode="&#x193;" horiz-adv-x="1196" 
d="M1135 1292q-1 -55 -27 -103t-69 -84t-100.5 -56.5t-121.5 -20.5q-13 8 -22 11.5l-17 6.5q-32 11 -75.5 17.5t-107.5 6.5q-57 0 -107.5 -27t-88 -82.5t-59 -140.5t-21.5 -201q0 -237 63 -346t188 -109q31 0 59.5 1.5t54.5 5.5v368h-155v158h401v-643q-29 -14 -71 -25.5
t-92 -20t-104 -13.5t-107 -5q-492 0 -492 629q0 157 35.5 273.5t106.5 197.5q139 157 359 157q58 0 101.5 -2.5t76.5 -7.5t58 -12t46 -16h-1q14 -5 21.5 -9t21.5 -9q5 3 10 7l13 10q15 11 23.5 33t11.5 51h188z" />
    <glyph glyph-name="uni0194" unicode="&#x194;" horiz-adv-x="1045" 
d="M647 -391h-258v419l2 -4l-188 605.5l-188 604.5h268l233 -914l116 458l115 456h271l-371 -1210v-415z" />
    <glyph glyph-name="uni0196" unicode="&#x196;" horiz-adv-x="674" 
d="M91 1229h251v-919q0 -41 4.5 -69.5t16.5 -46t32.5 -25.5t52.5 -8q42 0 86 11.5t93 33.5l57 -165q-124 -53 -264 -53q-92 0 -155 23.5t-101.5 66t-55.5 101.5t-17 131v919z" />
    <glyph glyph-name="uni0197" unicode="&#x197;" horiz-adv-x="682" 
d="M58 780v160h142v135h-121v159h512v-159h-126v-135h160v-160h-160v-613h126v-158h-512v158h121v613h-142z" />
    <glyph glyph-name="uni0198" unicode="&#x198;" horiz-adv-x="1253" 
d="M1126 1001q-111 56 -204 56q-48 0 -75.5 -14.5t-46.5 -37.5h1l-126 -164.5l-125 -163.5l121 -165l125 -169l125 -169.5l121 -164.5h-295l-386 518v-518h-260v1225h260v-441l114 148l113 148h-1q99 140 326 138q170 0 283 -66z" />
    <glyph glyph-name="uni0199" unicode="&#x199;" horiz-adv-x="927" 
d="M95 920q0 71 16.5 130t55 101t100.5 65.5t154 23.5q140 0 263 -53l-57 -163q-97 44 -177 44q-32 0 -52.5 -8t-32 -25.5t-16 -45.5t-4.5 -69v-302l126.5 150.5l126.5 150.5h291l-349 -402l180 -255.5l180 -253.5h-288l-267 370v-369h-250v911z" />
    <glyph glyph-name="uni019D" unicode="&#x19d;" horiz-adv-x="1260" 
d="M624 1234l325 -789v789h244v-1225h-317l-330 802v-868q0 -252 -302 -252q-65 0 -117 8.5t-90 24.5q2 8 4.5 20.5t4.5 21.5l4 16.5l4 17.5l23 89q37 -11 69 -18t56 -7q48 0 71.5 17.5t28.5 62.5v1290h322z" />
    <glyph glyph-name="Ohorn" unicode="&#x1a0;" horiz-adv-x="1349" 
d="M547 1247q319 0 418 -282q43 2 64.5 19.5t21.5 59.5v208h250v-208q0 -249 -295 -252q6 -41 8.5 -84t2.5 -89q0 -629 -470 -629t-470 629q0 628 470 628zM547 1075q-215 0 -215 -456q0 -458 215 -458t215 458q0 456 -215 456z" />
    <glyph glyph-name="ohorn" unicode="&#x1a1;" horiz-adv-x="1231" 
d="M495 934q218 0 316 -127l-1 1q24 -29 41.5 -61t28.5 -64q12 2 22.5 5.5t18.5 8.5h-1q15 9 15 54v186h242v-186q0 -217 -267 -227q1 -15 1.5 -31.5t0.5 -32.5q0 -112 -24.5 -200t-75.5 -149t-130 -93t-187 -32q-107 0 -185.5 32t-129.5 93t-76 149t-25 200t25 200
t76.5 149t129.5 93t185 32zM494 768q-85 0 -124.5 -75.5t-39.5 -231.5q0 -159 39.5 -232.5t124.5 -73.5q86 0 125.5 74.5t39.5 231.5t-39.5 232t-125.5 75z" />
    <glyph glyph-name="Uhorn" unicode="&#x1af;" horiz-adv-x="1379" 
d="M725 1234h262v-269q48 0 71.5 17t23.5 62v208h250v-208q0 -252 -303 -252h-16h-8h-6.5h-11.5v-379q0 -114 -31.5 -194.5t-89.5 -132.5t-141 -76t-185 -24q-104 0 -186.5 25t-140 77t-88.5 133t-31 192v821h262v-821q0 -58 8 -104t28.5 -78.5t56 -49.5t91.5 -17
q54 0 89.5 16.5t57 48.5t30 78.5t8.5 105.5v821z" />
    <glyph glyph-name="uhorn" unicode="&#x1b0;" horiz-adv-x="1262" 
d="M625 919h244v-238q45 0 67.5 15.5t22.5 54.5v186h243v-186q0 -227 -293 -227q-10 0 -14 -0.5t-7 -0.5h-6.5t-12.5 1v-515h-199l-10 50q-91 -73 -241 -73q-90 0 -151.5 25.5t-99.5 71t-55 109.5t-17 142v585h250l1 -585q0 -51 3.5 -85t17 -54.5t40 -28.5t71.5 -8
q63 0 104.5 45.5t41.5 137.5v578z" />
    <glyph glyph-name="uni01B1" unicode="&#x1b1;" horiz-adv-x="1103" 
d="M545 9q-469 0 -469 628q0 163 38.5 269t113.5 167h-125v174h390v-176q-49 -9 -80.5 -33.5t-49.5 -74t-25 -129t-7 -197.5q0 -456 214 -456q215 0 215 456q0 115 -7.5 194.5t-26 129.5t-51 75.5t-82.5 34.5v176h388v-174h-125q159 -129 159 -436q0 -628 -470 -628z" />
    <glyph glyph-name="uni01B2" unicode="&#x1b2;" horiz-adv-x="1015" 
d="M695 984q3 10 5 20.5t2 24.5q0 61 -64 61q-37 0 -83.5 -25.5t-96.5 -58.5l-86 143q64 48 130 71t136 23q71 0 128 -10.5t103 -48.5q51 -41 69 -79.5t18 -83.5q0 -42 -12 -79l-65 -231l-66 -236.5l-66.5 -236l-64.5 -229.5h-317l-342 1225h269l232 -913z" />
    <glyph glyph-name="uni01B3" unicode="&#x1b3;" horiz-adv-x="1297" 
d="M713 1096l-1 -1q14 27 45 64q37 43 99.5 67t156.5 24q141 0 265 -53l-58 -165q-48 22 -92.5 33.5t-85.5 11.5q-17 0 -35.5 -2.5t-31.5 -5.5q-15 -5 -31 -22l4 2l-143 -236.5l-143 -235.5l5 8v-576h-257v581l-196.5 322l-195.5 322h279l246 -428z" />
    <glyph glyph-name="uni01B4" unicode="&#x1b4;" horiz-adv-x="1269" 
d="M682 749q13 38 50 83q37 43 99 66.5t156 23.5q71 0 136 -13t126 -39l-57 -164q-48 22 -92 33.5t-85 11.5q-33 0 -57 -7t-37 -24h1q-1 -1 -1 -1.5t-8 -8.5l4 3l-3 -6l2 3l-125.5 -402l-125.5 -402q-15 -47 -38 -86t-56 -67t-77.5 -43.5t-103.5 -15.5q-45 0 -94 9t-103 26
l37 162q42 -13 72 -19.5t50 -6.5q23 0 39.5 8.5t29 26t22 44.5t17.5 65h-57l-347 910h264l224 -657z" />
    <glyph glyph-name="uni01B5" unicode="&#x1b5;" horiz-adv-x="972" 
d="M842 551h-261l-56 -91.5l-54 -88l-54.5 -87.5l-56.5 -92h513v-183h-809v179l228 363h-148v173h258l52.5 83.5l50.5 80l51 79.5l53 84h-502v183h780v-185l-199 -325h154v-173z" />
    <glyph glyph-name="uni01B6" unicode="&#x1b6;" horiz-adv-x="920" 
d="M795 386h-257l-77.5 -102l-79.5 -104h415v-171h-707v171h16l39.5 53.5l37 49.5l37.5 49l40 54h-156v173h284l69.5 93l71.5 95h-404v172h686v-179l-139 -181h124v-173z" />
    <glyph glyph-name="uni01B7" unicode="&#x1b7;" horiz-adv-x="960" 
d="M66 110q11 15 20 29.5t20 30.5q5 7 12.5 18.5l16 23.5l16 23t12.5 19q61 -39 117.5 -60t123.5 -21q48 0 88 15t68.5 43t44.5 67.5t16 87.5q0 129 -61 163q-73 40 -215 40l-1 148l2 3l239 314h-530v180h812v-176l-254 -342q30 -11 54.5 -22.5t41.5 -22.5
q73 -48 119.5 -118t46.5 -170q0 -93 -36.5 -165t-100.5 -120.5t-149.5 -74t-184.5 -25.5q-102 0 -182 25t-146 66z" />
    <glyph glyph-name="uni01B8" unicode="&#x1b8;" horiz-adv-x="960" 
d="M872 89q-66 -42 -146 -66.5t-182 -24.5q-99 0 -185 25.5t-150 74t-100.5 120.5t-36.5 165q0 100 46.5 170t120.5 118q17 11 41 22.5t55 22.5l-127.5 171.5l-126.5 170.5v176h811v-180h-530l120.5 -157.5l119.5 -156.5v-151q-143 0 -214 -40q-61 -33 -61 -163
q0 -48 16 -87.5t44.5 -67.5t68.5 -43t88 -15q67 0 123.5 21t117.5 60q5 -8 12.5 -19l15.5 -23l15 -23.5t12 -18.5l21 -30.5l21 -29.5z" />
    <glyph glyph-name="uni01CD" unicode="&#x1cd;" horiz-adv-x="1094" 
d="M680 1234l378 -1225h-264l-76 273h-355l-38.5 -137l-37.5 -136h-264l378 1225h279zM541 921l-64.5 -233l-66.5 -236h261zM427 1320l-258 253h250l121 -93l122 93h249l-256 -253h-228z" />
    <glyph glyph-name="uni01CE" unicode="&#x1ce;" horiz-adv-x="935" 
d="M110 873q89 30 177 45.5t176 15.5q382 0 382 -306v-619h-203l-11 55q-45 -40 -102.5 -58t-132.5 -18q-168 0 -256.5 74t-88.5 218q1 69 26.5 124t81.5 93.5t146.5 59t221.5 20.5h66v76q0 113 -156 113q-121 0 -267 -53zM593 430h-62q-69 0 -112 -9.5t-67 -27.5t-33 -44
t-9 -58q0 -136 118 -136q37 0 67.5 11t52 30.5t33.5 45.5t12 56v132zM349 1050l-258 252h249l120 -92l121 92h249l-256 -252h-225z" />
    <glyph glyph-name="uni01CF" unicode="&#x1cf;" horiz-adv-x="747" 
d="M114 1234h511v-159h-126v-908h126v-158h-511v158h121v908h-121v159zM256 1332l-258 253h250l121 -92l122 92h250l-257 -253h-228z" />
    <glyph glyph-name="uni01D0" unicode="&#x1d0;" horiz-adv-x="736" 
d="M252 760h-137v158h384v-909h-247v751zM248 1050l-257 252h249l119 -92l121 92h248l-254 -252h-226z" />
    <glyph glyph-name="uni01D1" unicode="&#x1d1;" horiz-adv-x="1056" 
d="M523 1247q468 0 468 -628q0 -629 -468 -629q-471 0 -471 629q0 628 471 628zM523 1075q-216 0 -216 -456q0 -458 216 -458q214 0 214 458q0 456 -214 456zM408 1299l-258 254h250l123 -93l60.5 47l59.5 46h252l-259 -254h-228z" />
    <glyph glyph-name="uni01D2" unicode="&#x1d2;" horiz-adv-x="961" 
d="M473 934q107 0 185.5 -32t130 -93t76.5 -149t25 -200t-25 -200t-76 -149t-129.5 -93t-186.5 -32q-107 0 -185.5 32t-129.5 93t-76 149t-25 200t25 200t76 149t129.5 93t185.5 32zM472 768q-85 0 -124.5 -75.5t-39.5 -231.5q0 -159 39.5 -232.5t124.5 -73.5
q86 0 125.5 74.5t39.5 231.5t-39.5 232t-125.5 75zM361 1050l-258 252h250l119 -92l121 92h249l-256 -252h-225z" />
    <glyph glyph-name="uni01D3" unicode="&#x1d3;" horiz-adv-x="1044" 
d="M701 1234h261v-821q0 -114 -31.5 -194.5t-89.5 -132.5t-140.5 -76t-185.5 -24t-185.5 25t-140 77t-88.5 133t-31 192v821h261v-821q0 -58 8 -104t28.5 -78.5t56 -49.5t91.5 -17q54 0 90 16.5t57 48.5t30 78.5t9 105.5v821zM404 1299l-260 254h251l123 -93l60.5 47
l59.5 46h251l-259 -254h-226z" />
    <glyph glyph-name="uni01D4" unicode="&#x1d4;" horiz-adv-x="942" 
d="M603 919h244v-910h-200l-9 50q-91 -73 -241 -73q-90 0 -152 25.5t-100 71t-55 109.5t-17 142v585h250l2 -585q0 -51 3.5 -85t17 -54.5t39.5 -28.5t71 -8q64 0 105.5 45.5t41.5 137.5v578zM352 1050l-257 252h249l119 -92l122 92h248l-256 -252h-225z" />
    <glyph glyph-name="uni01D5" unicode="&#x1d5;" horiz-adv-x="1049" 
d="M702 1234h262v-821q0 -114 -31.5 -194.5t-89.5 -132.5t-141 -76t-185 -24q-104 0 -186 25t-140 77t-88.5 133t-30.5 192v821h260v-821q0 -58 8 -104t29 -78.5t56.5 -49.5t91.5 -17q54 0 89.5 16.5t57 48.5t30 78.5t8.5 105.5v821zM730 1471q29 0 54.5 -8.5t44.5 -22.5
t30 -32.5t11 -38.5q0 -23 -12 -42t-31.5 -32.5t-44.5 -21.5t-52 -8q-29 0 -54.5 8t-45 21.5t-31 32.5t-11.5 42q0 21 11.5 39.5t31 32.5t45 22t54.5 8zM322 1471q28 0 53.5 -8t44.5 -22t30.5 -32.5t11.5 -39.5q0 -23 -11.5 -42t-30.5 -32.5t-44.5 -21.5t-53.5 -8
q-29 0 -54.5 8t-44.5 21.5t-30.5 32.5t-11.5 42q0 21 11 39.5t30 32.5t45 22t55 8zM235 1486v141h557v-141h-557z" />
    <glyph glyph-name="uni01D6" unicode="&#x1d6;" horiz-adv-x="932" 
d="M602 919h244v-910h-199l-10 50q-91 -73 -241 -73q-90 0 -152 25.5t-100 71t-55 109.5t-17 142v585h250l2 -585q0 -51 3.5 -85t17 -54.5t39.5 -28.5t71 -8q64 0 105.5 45.5t41.5 137.5v578zM647 1205q27 0 52.5 -9.5t45 -25.5t31.5 -37.5t12 -45.5t-12 -45.5t-31.5 -37.5
t-45 -25.5t-52.5 -9.5q-30 0 -56 9.5t-45.5 26t-30.5 37.5t-11 45t11.5 45.5t31 37.5t45.5 25.5t55 9.5zM234 1205q28 0 54 -9.5t45 -25.5t30.5 -37.5t11.5 -45.5t-11.5 -45.5t-30.5 -37.5t-45 -25.5t-54 -9.5q-29 0 -55 9.5t-45 26t-30 37.5t-11 45t11.5 45.5t30.5 37.5
t44.5 25.5t54.5 9.5zM159 1244v159h562v-159h-562z" />
    <glyph glyph-name="uni01D7" unicode="&#x1d7;" horiz-adv-x="1053" 
d="M701 1234h262v-821q0 -114 -31.5 -194.5t-89.5 -132.5t-141 -76t-185 -24q-103 0 -185.5 25t-140 77t-88.5 133t-31 192v821h260v-821q0 -58 8 -104t29 -78.5t56.5 -49.5t91.5 -17q54 0 89.5 16.5t57 48.5t30 78.5t8.5 105.5v821zM757 1512q30 0 56 -9.5t45 -25.5
t30 -37.5t11 -45.5t-11.5 -46t-31 -38t-45.5 -25.5t-54 -9.5q-29 0 -54.5 9.5t-45.5 25.5t-31.5 38t-11.5 46q0 25 11.5 46.5t31.5 37.5t45.5 25t54.5 9zM274 1512q28 0 54 -9t45.5 -25t31 -37.5t11.5 -46.5q0 -24 -11.5 -46t-31 -38t-45.5 -25.5t-54 -9.5q-29 0 -55 9.5
t-45.5 25.5t-31 38t-11.5 46q0 25 11 46.5t30.5 37.5t45.5 25t56 9zM574 1654h284l-263 -229h-201z" />
    <glyph glyph-name="uni01D8" unicode="&#x1d8;" horiz-adv-x="946" 
d="M599 919h244v-910h-199l-10 50q-91 -73 -241 -73q-90 0 -152 25.5t-100 71t-55 109.5t-17 142v585h250l2 -585q0 -51 3.5 -85t17 -54.5t39.5 -28.5t71 -8q64 0 105.5 45.5t41.5 137.5v578zM697 1220q30 0 55.5 -9.5t44.5 -25.5t30 -37.5t11 -45.5t-11.5 -45.5t-31 -37.5
t-45 -25t-53.5 -9q-29 0 -54.5 9t-45 25t-31 37.5t-11.5 45.5q0 25 11.5 46.5t31 37.5t45 25t54.5 9zM217 1220q28 0 54 -9t45.5 -25t31 -37.5t11.5 -46.5q0 -24 -11.5 -45.5t-31 -37.5t-45.5 -25t-54 -9q-29 0 -54.5 9t-45 25t-30.5 37.5t-11 45.5q0 25 11 46.5t30 37.5
t45 25t55 9zM516 1361h281l-261 -227h-199z" />
    <glyph glyph-name="uni01D9" unicode="&#x1d9;" horiz-adv-x="1086" 
d="M717 1234h262v-821q0 -114 -31.5 -194.5t-89.5 -132.5t-141 -76t-185 -24q-104 0 -186 25t-140 77t-88.5 133t-30.5 192v821h260v-821q0 -58 8 -104t29 -78.5t56.5 -49.5t91.5 -17q54 0 89.5 16.5t57 48.5t30 78.5t8.5 105.5v821zM442 1436l-222 261h224l98 -92l101 92
h224l-221 -261h-204zM850 1561q30 0 56 -9.5t45.5 -25.5t30.5 -37.5t11 -45.5t-11.5 -46t-31.5 -38t-46 -25.5t-54 -9.5q-29 0 -55 9.5t-45.5 25.5t-31 38t-11.5 46q0 25 11 46.5t30.5 37.5t45.5 25t56 9zM229 1561q28 0 54 -9t46 -25t31.5 -37.5t11.5 -46.5
q0 -24 -11.5 -46t-31.5 -38t-46 -25.5t-54 -9.5q-29 0 -55 9.5t-45.5 25.5t-30.5 38t-11 46q0 25 11 46.5t30.5 37.5t45 25t55.5 9z" />
    <glyph glyph-name="uni01DA" unicode="&#x1da;" horiz-adv-x="976" 
d="M619 919h244v-910h-200l-9 50q-91 -73 -242 -73q-90 0 -151.5 25.5t-100 71t-55 109.5t-16.5 142v585h250l2 -585q0 -51 3.5 -85t17 -54.5t39.5 -28.5t71 -8q64 0 105.5 45.5t41.5 137.5v578zM382 1148l-192 259h200l84 -87l41.5 44.5l40.5 42.5h201l-191 -259h-184z
M748 1270q26 0 49 -9.5t40.5 -25.5t27.5 -38t10 -46t-10.5 -45.5t-28 -37.5t-40.5 -25t-48 -9q-26 0 -49 9t-40.5 25t-28 37.5t-10.5 45.5t10 46t27.5 38t40.5 25.5t50 9.5zM211 1270q25 0 48.5 -9.5t41 -25.5t28 -38t10.5 -46t-10.5 -45.5t-28 -37.5t-41 -25t-48.5 -9
q-26 0 -49 9t-40.5 25t-28 37.5t-10.5 45.5t10 46t27.5 38t40.5 25.5t50 9.5z" />
    <glyph glyph-name="uni01DB" unicode="&#x1db;" horiz-adv-x="1053" 
d="M708 1234h262v-821q0 -114 -31.5 -194.5t-89.5 -132.5t-141 -76t-185 -24q-104 0 -186 25t-140 77t-88.5 133t-30.5 192v821h260v-821q0 -58 8 -104t29 -78.5t56.5 -49.5t91.5 -17q54 0 89.5 16.5t57 48.5t30 78.5t8.5 105.5v821zM281 1512q30 0 55.5 -9t45 -25
t30.5 -37.5t11 -46.5q0 -24 -11 -46t-30.5 -38t-45.5 -25.5t-55 -9.5t-55 9.5t-45.5 25.5t-31 38t-11.5 46t11 45.5t30.5 37.5t45.5 25.5t56 9.5zM764 1512q30 0 55.5 -9t45 -25t30.5 -37.5t11 -46.5q0 -24 -11 -46t-30.5 -38t-45.5 -25.5t-55 -9.5t-54.5 9.5t-45.5 25.5
t-31.5 38t-11.5 46q0 25 11.5 46.5t31.5 37.5t45.5 25t54.5 9zM644 1425h-200l-264 229h283z" />
    <glyph glyph-name="uni01DC" unicode="&#x1dc;" horiz-adv-x="945" 
d="M611 919h244v-910h-200l-9 50q-91 -73 -241 -73q-90 0 -152 25.5t-100.5 71t-55 109.5t-16.5 142v585h250l2 -585q0 -51 3.5 -85t17 -54.5t39.5 -28.5t71 -8q64 0 105.5 45.5t41.5 137.5v578zM232 1222q30 0 55.5 -9t45 -25t30.5 -37t11 -46q0 -24 -11 -45.5t-30.5 -37.5
t-45.5 -25.5t-55 -9.5q-28 0 -53.5 9.5t-45 25.5t-31 37.5t-11.5 45.5t11 45.5t30 37t45 25t55 9.5zM712 1222q28 0 54 -9t45.5 -25t31 -37t11.5 -46q0 -24 -11.5 -45.5t-31 -37.5t-45.5 -25.5t-54 -9.5t-53.5 9.5t-45 25.5t-31.5 37.5t-12 45.5q0 25 12 46t31.5 37t45 25
t53.5 9zM592 1136h-198l-262 227h281z" />
    <glyph glyph-name="uni01DE" unicode="&#x1de;" horiz-adv-x="1105" 
d="M686 1234l378 -1225h-264l-76 273h-355l-38.5 -137l-37.5 -136h-264l378 1225h279zM546 921l-64 -233l-66 -236h261zM754 1434q29 0 55 -8.5t45 -22.5t30 -32.5t11 -39.5q0 -22 -11.5 -41t-30.5 -32.5t-45 -21.5t-54 -8t-53.5 8t-44.5 21.5t-30.5 32.5t-11.5 41
q0 21 11 40t30 33t44.5 22t54.5 8zM346 1434q28 0 53.5 -8t45 -22t31.5 -33t12 -40q0 -22 -12 -41t-31.5 -32.5t-45 -21.5t-53.5 -8t-53.5 8t-44.5 21.5t-30 32.5t-11 41q0 21 11 40t29.5 33t44 22t54.5 8zM264 1487v141h559v-141h-559z" />
    <glyph glyph-name="uni01DF" unicode="&#x1df;" horiz-adv-x="921" 
d="M104 873q89 30 176.5 45.5t175.5 15.5q382 0 382 -306v-619h-203l-11 54q-90 -75 -233 -75q-171 0 -258.5 74t-87.5 218q1 69 26 124t81 93.5t146.5 59t221.5 20.5h67v76q0 113 -156 113q-121 0 -267 -53zM587 430h-63q-68 0 -111 -9.5t-67.5 -27.5t-33.5 -44t-9 -58
q0 -136 119 -136q37 0 67.5 11t52 30.5t33.5 45.5t12 56v132zM654 1205q28 0 53.5 -9.5t45 -25.5t31 -37.5t11.5 -45.5t-11.5 -45.5t-31 -37.5t-45 -25.5t-53.5 -9.5q-29 0 -55 9.5t-45.5 26t-30.5 37.5t-11 45t11.5 45.5t31 37.5t45 25.5t54.5 9.5zM241 1205q28 0 54 -9.5
t45.5 -25.5t31 -37.5t11.5 -45.5t-11.5 -45.5t-31 -37.5t-45.5 -25.5t-54 -9.5q-29 0 -54.5 9.5t-45 26t-30.5 37.5t-11 45t11.5 45.5t31 37.5t45 25.5t53.5 9.5zM167 1244v159h562v-159h-562z" />
    <glyph glyph-name="Gcaron" unicode="&#x1e6;" horiz-adv-x="991" 
d="M545 1247q58 0 101.5 -2.5t76.5 -7.5t58 -12t46 -16h-1q7 -3 17.5 -7t22 -9t22.5 -9t18 -7l-75 -164q-52 26 -111.5 41.5t-144.5 15.5q-57 0 -107.5 -27t-88 -82.5t-59 -140.5t-21.5 -201q0 -237 63 -346t189 -109q30 0 58.5 1.5t54.5 5.5v368h-155v158h401v-643
q-29 -14 -71 -25.5t-92 -20t-104 -13.5t-107 -5q-492 0 -492 629q0 157 35.5 273.5t106.5 197.5q139 157 359 157zM441 1281l-259 254h250l123 -93l60.5 46.5l60.5 46.5h250l-258 -254h-227z" />
    <glyph glyph-name="gcaron" unicode="&#x1e7;" horiz-adv-x="927" 
d="M841 917v-894q0 -155 -100 -242t-306 -87q-90 0 -175.5 15.5t-169.5 47.5l55 163q148 -55 276 -55q172 0 172 158v88q-45 -27 -100 -40.5t-101 -13.5q-235 0 -296 144q-30 72 -44.5 144t-14.5 145q0 84 23 160t68 143q45 63 127 99.5t197 41.5q111 0 184 -47q2 9 4 16
l4 14h197zM593 736q-31 22 -62 27t-60 5q-50 0 -85 -22t-56.5 -60.5t-31 -90.5t-9.5 -113q0 -128 32.5 -193t119.5 -65q68 0 106 35t46 100v377zM342 1050l-257 252h248l120 -92l122 92h248l-256 -252h-225z" />
    <glyph glyph-name="Aringacute" unicode="&#x1fa;" horiz-adv-x="1087" 
d="M667 1234l378 -1225h-264l-76 273h-355l-38 -137l-38 -136h-264l378 1225h279zM605 1777h256l-198 -176q24 -14 37 -25q32 -29 51 -64t19 -71q0 -39 -18.5 -74t-49.5 -60.5t-72.5 -40.5t-87.5 -15q-48 0 -89.5 15t-72.5 40.5t-49 60.5t-18 74q0 58 38 103.5t98 70.5
q11 4 18.5 6t19.5 4zM528 921l-64.5 -233l-66.5 -236h261zM542 1515q-49 0 -49 -74q0 -73 49 -73q47 0 47 73q0 74 -47 74z" />
    <glyph glyph-name="aringacute" unicode="&#x1fb;" horiz-adv-x="895" 
d="M82 873q89 30 177.5 45.5t176.5 15.5q381 0 381 -306v-619h-202l-12 55q-45 -40 -102 -58t-132 -18q-169 0 -257.5 74t-88.5 218q1 69 26.5 124t81.5 93.5t146.5 59t222.5 20.5h66v76q0 113 -156 113q-122 0 -268 -53zM566 430h-62q-69 0 -112 -9.5t-67 -27.5t-33 -44
t-9 -58q0 -136 118 -136q37 0 67.5 11t52 30.5t33.5 45.5t12 56v132zM501 1475h255l-197 -174q12 -7 22 -13.5t16 -13.5h-1q32 -27 50.5 -62t18.5 -70q0 -39 -18 -74t-49 -60.5t-72 -40.5t-86 -15q-47 0 -88.5 15t-72.5 40.5t-49 60.5t-18 74q0 56 39.5 102.5t100.5 70.5h-1
q15 6 34 10zM440 1215q-49 0 -49 -73q0 -74 49 -74q46 0 46 74q0 73 -46 73z" />
    <glyph glyph-name="AEacute" unicode="&#x1fc;" horiz-adv-x="1573" 
d="M1515 9h-737l-39 273h-362l-52.5 -137l-52.5 -136h-264l502 1225h952v-172h-604l28.5 -163.5l27.5 -163.5h513v-180h-480l32.5 -185.5l32.5 -186.5h503v-174zM714 452l-22 129.5l-20 112.5l-20 114l-23 134l-91 -243l-93 -247h269zM995 1509h323l-305 -254h-227z" />
    <glyph glyph-name="aeacute" unicode="&#x1fd;" horiz-adv-x="1454" 
d="M1139 538q-3 105 -34 167q-32 66 -124 66q-44 0 -73 -16.5t-47 -47t-27 -73.5t-12 -96h317zM85 873q89 30 177 45.5t176 15.5q191 0 275 -79q47 41 110.5 60t144.5 19q212 0 309.5 -104t97.5 -306v-129h-553q3 -62 14 -107.5t33.5 -75t59 -43.5t90.5 -14q57 0 124 16.5
t129 41.5l74 -155q-85 -35 -168.5 -53.5t-168.5 -18.5q-217 0 -326 114q-49 -48 -126 -80t-186 -32q-168 2 -256 75t-88 217q0 69 25 124t81.5 93.5t147 59t221.5 20.5h66v76q0 113 -155 113q-119 0 -268 -53zM568 430h-62q-68 0 -111 -9.5t-67.5 -27.5t-33.5 -44t-9 -58
q0 -136 118 -136q38 0 68.5 11t52 30.5t33 45.5t11.5 56v132zM828 1278h321l-303 -251h-226z" />
    <glyph glyph-name="Oslashacute" unicode="&#x1fe;" horiz-adv-x="1029" 
d="M551 1535h322l-304 -253h-227zM508 1247q17 0 32 -0.5t31 -2.5q3 14 7 30.5t6 27.5h193l-28 -115q113 -72 170.5 -213t57.5 -355q0 -629 -469 -629q-20 0 -39.5 1t-36.5 3l-23 -83.5l-22 -81.5h-193l61 228q-218 142 -218 562q0 628 471 628zM477 163q7 -2 14.5 -2h16.5
q215 0 215 458q0 100 -11 177t-31 132zM526 1074q-5 1 -9 1h-9q-215 0 -215 -456q0 -91 8.5 -164t25.5 -127z" />
    <glyph glyph-name="oslashacute" unicode="&#x1ff;" horiz-adv-x="915" 
d="M451 934q7 0 11 0.5t7 0.5h7.5t13.5 -1q11 38 22 80.5l21 79.5h187l-55 -207q103 -54 152.5 -160t49.5 -267q0 -112 -24.5 -200t-75.5 -149t-129.5 -93t-186.5 -32h-13.5t-14.5 1l-23 -79l-22 -78h-187l54 198q-108 53 -159.5 159.5t-51.5 272.5q0 112 25 200t76.5 149
t130 93t185.5 32zM444 768l5 15l26 -18q-17 3 -24 3h-7zM444 768q-82 -3 -120.5 -78.5t-38.5 -228.5q0 -58 6.5 -110t16.5 -88zM466 155l-5 -18l-32 18h22h15zM466 155q77 8 112.5 82t35.5 224q0 54 -4 97.5t-14 77.5zM433 1302l323 3l-305 -255h-226z" />
    <glyph glyph-name="Scommaaccent" unicode="&#x218;" horiz-adv-x="907" 
d="M790 1008q-162 78 -309 78q-84 0 -126.5 -39.5t-42.5 -100.5q0 -34 12.5 -60.5t34.5 -48t53 -38.5t69 -31q90 -34 163 -72.5t123 -81.5q116 -98 116 -263q0 -92 -31 -160.5t-89.5 -114t-143 -68t-192.5 -22.5q-109 0 -206.5 25t-191.5 70l82 170q79 -31 155 -53.5
t148 -22.5q208 0 208 175q0 81 -61.5 135t-168.5 94q-67 26 -125 55.5t-106 65.5q-55 42 -83.5 102t-28.5 137q0 67 29.5 126t86 103.5t139.5 70.5t190 26q106 0 199.5 -25.5t171.5 -63.5zM425 -63q31 0 59 -10.5t49 -27.5t33 -40t12 -48q0 -6 -2.5 -19.5t-6.5 -28l-8 -28
t-8 -20.5l-146 -248h-184l108 245q-29 19 -43 45t-14 54q0 25 12 47.5t32 40t47.5 28t59.5 10.5z" />
    <glyph glyph-name="scommaaccent" unicode="&#x219;" horiz-adv-x="790" 
d="M656 695q-125 71 -238 73q-115 -6 -115 -94q0 -21 11 -36.5t29 -26.5t42 -19.5l50 -17.5h-1q74 -23 133.5 -50t101.5 -62.5t64.5 -82.5t22.5 -110q0 -149 -128 -221q-58 -30 -124 -46t-141 -16q-107 0 -189.5 24.5t-148.5 62.5q7 15 17 34.5l20 40.5l19.5 41.5l17.5 36.5
l63 -24.5t62.5 -19.5t69 -13t82.5 -5q25 0 47.5 4.5t39 15.5t26 29t9.5 46q0 31 -14 53.5t-38.5 39.5t-57 30t-68.5 25h1q-272 83 -272 264q0 47 19 92.5t55 88.5q38 36 110 59t172 23q108 0 188.5 -21.5t145.5 -52.5l-10.5 -21.5t-11.5 -21.5q-9 -14 -15 -32zM415 -63
q31 0 58.5 -10t48 -27.5t32.5 -40t12 -47.5q0 -6 -2.5 -19t-6 -27.5t-8 -28t-7.5 -20.5l-145 -246h-183l107 243q-29 20 -42.5 45.5t-13.5 52.5q0 25 12 47.5t32 39.5t47.5 27.5t58.5 10.5z" />
    <glyph glyph-name="uni0244" unicode="&#x244;" horiz-adv-x="1155" 
d="M71 888v140h53v196h259v-196h367v196h259v-196h59v-140h-59v-478q0 -113 -31 -193.5t-89 -131.5t-139.5 -75t-183.5 -24t-184 25t-139.5 76.5t-88 131.5t-30.5 191v478h-53zM391 303q13 -67 53.5 -103.5t121.5 -36.5q54 0 89.5 16.5t56.5 48t29.5 77.5t8.5 105v478h-367
v-478q0 -61 8 -107z" />
    <glyph glyph-name="uni024C" unicode="&#x24c;" horiz-adv-x="1135" 
d="M424 9h-259v479h-106v161h106v575h331q117 0 208 -17.5t153.5 -59t94.5 -110t32 -169.5q0 -71 -15.5 -126.5t-44 -97.5t-69 -72.5t-91.5 -49.5l74.5 -126l77.5 -131l77.5 -131l73.5 -125h-287l-270 476h-86v-476zM424 1061v-409h140q158 0 158 204q0 205 -204 205h-94z
" />
    <glyph glyph-name="uni024D" unicode="&#x24d;" horiz-adv-x="870" 
d="M645 449h-174v-288h174v-152h-557v152h131v288h-131v161h131v152h-131v157h339l10 -67q37 39 90.5 60.5t132.5 21.5q96 0 160 -29l-48 -201q-88 43 -137 43q-122 0 -154 -137h164v-161z" />
    <glyph glyph-name="uni0253" unicode="&#x253;" horiz-adv-x="958" 
d="M95 9v911q0 71 16.5 130t55 101t100.5 65.5t154 23.5q140 0 263 -53l-57 -163q-97 44 -177 44q-32 0 -52.5 -8t-32 -25.5t-16 -45.5t-4.5 -69v-43q38 29 90.5 43t116.5 14q81 0 145.5 -23t109.5 -75t68.5 -135t23.5 -204q0 -511 -415 -511q-68 0 -122 21q-8 3 -9 3
t-0.5 -0.5t0 0t-7.5 4.5v-5h-250zM345 178q54 -23 107 -23q58 0 96 19.5t60 59.5t30.5 101t8.5 144q0 75 -7.5 129.5t-24.5 89.5t-44.5 51.5t-68.5 16.5q-153 0 -157 -180v-408z" />
    <glyph glyph-name="uni0254" unicode="&#x254;" horiz-adv-x="846" 
d="M78 869q113 65 281 65q239 0 325 -138q39 -67 61.5 -151.5t22.5 -178.5q0 -127 -24.5 -218t-75.5 -149t-130 -85.5t-189 -27.5q-137 0 -275 67l66 158q121 -56 203 -56q42 0 73.5 16.5t52 54t30.5 97t10 146.5q0 65 -6.5 119.5t-24 94t-48 61.5t-79.5 22q-94 0 -203 -56z
" />
    <glyph glyph-name="uni0256" unicode="&#x256;" horiz-adv-x="1035" 
d="M563 1224h247l-3 -1201v-69q0 -38 33 -38q15 0 38 4.5t51 12.5l39 -163q-50 -14 -92.5 -21t-77.5 -7q-53 0 -97 15t-75.5 43t-49 67t-17.5 87v86l-15.5 -9.5l-16.5 -9.5q-70 -35 -180 -35q-77 0 -139.5 26t-107 81.5t-69 142t-24.5 208.5q0 236 100 363t303 127
q43 0 81 -4t68 -12zM437 766q-54 0 -88.5 -22.5t-55 -65.5t-28 -106t-7.5 -144q0 -72 7 -123.5t23.5 -85t44.5 -49t70 -15.5q43 0 83 22t63 65q3 5 5.5 13.5t5.5 20.5l-1 -3v478q-18 7 -49 11t-73 4z" />
    <glyph glyph-name="uni0259" unicode="&#x1dd;" horiz-adv-x="953" 
d="M302 383q3 -105 35 -167h-1q31 -65 125 -65q43 0 72 16.5t47 46.5t27.5 73t12.5 96h-318zM620 527q-4 62 -15 107t-33.5 74.5t-59 44t-90.5 14.5q-57 0 -123.5 -16.5t-129.5 -42.5l-72 156q81 33 164 51.5t171 18.5q438 0 438 -467q0 -205 -90 -344q-89 -137 -307 -137
q-106 0 -182.5 26.5t-126 78.5t-73.5 129t-24 178v129h553z" />
    <glyph glyph-name="uni0259" unicode="&#x4d9;" horiz-adv-x="953" 
d="M302 383q3 -105 35 -167h-1q31 -65 125 -65q43 0 72 16.5t47 46.5t27.5 73t12.5 96h-318zM620 527q-4 62 -15 107t-33.5 74.5t-59 44t-90.5 14.5q-57 0 -123.5 -16.5t-129.5 -42.5l-72 156q81 33 164 51.5t171 18.5q438 0 438 -467q0 -205 -90 -344q-89 -137 -307 -137
q-106 0 -182.5 26.5t-126 78.5t-73.5 129t-24 178v129h553z" />
    <glyph glyph-name="uni0259" unicode="&#x259;" horiz-adv-x="953" 
d="M302 383q3 -105 35 -167h-1q31 -65 125 -65q43 0 72 16.5t47 46.5t27.5 73t12.5 96h-318zM620 527q-4 62 -15 107t-33.5 74.5t-59 44t-90.5 14.5q-57 0 -123.5 -16.5t-129.5 -42.5l-72 156q81 33 164 51.5t171 18.5q438 0 438 -467q0 -205 -90 -344q-89 -137 -307 -137
q-106 0 -182.5 26.5t-126 78.5t-73.5 129t-24 178v129h553z" />
    <glyph glyph-name="uni025B" unicode="&#x25b;" horiz-adv-x="890" 
d="M728 715q-27 10 -59.5 19.5t-66 17t-66.5 12t-60 4.5q-40 0 -67 -6.5t-43.5 -19t-23.5 -32t-7 -46.5q0 -100 151 -100h164v-155h-118q-50 0 -89.5 -6t-66.5 -21t-41 -41t-14 -66q0 -29 7.5 -50t25 -35t46.5 -20.5t72 -6.5q58 0 126 15.5t147 47.5l66 -156
q-172 -77 -339 -77q-91 0 -166 14t-128 46.5t-82.5 84t-29.5 126.5q0 42 13 76t36.5 60.5t56 45.5t70.5 32q-68 23 -112 71.5t-44 126.5q0 62 30.5 111t82 82.5t119.5 51.5t144 18q100 0 182.5 -20.5t145.5 -51.5z" />
    <glyph glyph-name="uni0260" unicode="&#x260;" horiz-adv-x="1212" 
d="M589 933q0 71 16.5 129.5t55 100.5t100.5 65.5t154 23.5q141 0 263 -52l-58 -164q-48 22 -92 33.5t-85 11.5q-32 0 -52 -8t-31.5 -25.5t-16 -45.5t-4.5 -69l-2 -897v-13q0 -155 -100 -242t-306 -87q-90 0 -175.5 15.5t-169.5 47.5l54 163q74 -27 142.5 -41t133.5 -14
q173 0 173 158v88q-45 -27 -100 -40.5t-101 -13.5q-235 0 -296 144q-30 72 -44.5 144t-14.5 145q0 84 23 160t68 143q45 63 126.5 99.5t196.5 41.5q42 0 77 -5.5t65 -18.5v23zM589 736q-31 22 -62 27t-60 5q-50 0 -85 -22t-56.5 -60.5t-31 -90.5t-9.5 -113q0 -128 32.5 -193
t119.5 -65q68 0 106 35t46 100v377z" />
    <glyph glyph-name="uni0263" unicode="&#x263;" horiz-adv-x="976" 
d="M16 919h265l199 -592l102.5 297.5l102.5 294.5h261l-347 -901l2 5v-314h-248v314l2 -5z" />
    <glyph glyph-name="uni0266" unicode="&#x266;" horiz-adv-x="963" 
d="M95 920q0 71 16.5 130t55 101t100.5 65.5t154 23.5q139 0 263 -53l-57 -163q-97 44 -178 44q-32 0 -52 -8t-31.5 -25.5t-16 -45.5t-4.5 -69v-43q39 26 90.5 41.5t113.5 15.5q90 0 154 -21t105 -59.5t60 -92.5t19 -120v-632h-247v632q0 25 -5 48t-19.5 40.5t-40 28
t-67.5 10.5q-163 0 -163 -193v-566h-250v911z" />
    <glyph glyph-name="uni0268" unicode="&#x268;" horiz-adv-x="510" 
d="M472 387h-84v-378h-247v378h-136v152h136v221h-136v158h383v-379h84v-152zM266 1312q32 0 59.5 -10.5t48 -28.5t32.5 -42t12 -50t-12 -49.5t-33 -41t-48.5 -27.5t-58.5 -10t-58.5 10t-48.5 27.5t-33 41t-12 49.5q0 27 12 50.5t32.5 41.5t48 28.5t59.5 10.5z" />
    <glyph glyph-name="uni0272" unicode="&#x272;" horiz-adv-x="1146" 
d="M295 919h203l15 -61q43 33 103.5 54.5t130.5 21.5q90 0 154 -21t105 -59.5t60 -92.5t19 -120v-632h-247v632q0 25 -5 48t-19.5 40.5t-40.5 28t-68 10.5q-162 0 -162 -193v-631q-1 -250 -302 -250q-64 0 -115.5 8.5t-89.5 23.5l5 20.5l5 21.5l4 16.5l4 16.5l22 89
q37 -11 69 -18t55 -7q48 0 71.5 17.5t23.5 61.5v975z" />
    <glyph glyph-name="uni027E" unicode="&#x27e;" horiz-adv-x="676" 
d="M87 598q0 71 17 130t55 101t100.5 65.5t154.5 23.5q142 0 262 -52l-57 -164q-48 22 -92 33.5t-85 11.5q-32 0 -52.5 -8t-32 -25.5t-16 -46t-4.5 -69.5v-589h-250v589z" />
    <glyph glyph-name="uni0283" unicode="&#x283;" horiz-adv-x="866" 
d="M266 920q0 71 17 130t55 101t100.5 65.5t154.5 23.5q139 0 262 -53l-57 -163q-97 44 -177 44q-32 0 -52.5 -8t-32 -25.5t-16 -45.5t-4.5 -69v-976q-1 -250 -301 -250q-64 0 -115.5 8.5t-89.5 23.5l5 20.5l5 21.5q2 8 3.5 16.5t3.5 16.5l23 89q37 -11 69 -18t55 -7
q47 0 70.5 17.5t21.5 60.5v977z" />
    <glyph glyph-name="uni0289" unicode="&#x289;" horiz-adv-x="1031" 
d="M938 530h-50v-521h-199l-10 50q-91 -73 -241 -73q-90 0 -151.5 25.5t-100 71t-55 109.5t-16.5 142v196h-39v177h39v212h250v-212h279v212h244v-212h50v-177zM365 335v-1l-33 15zM365 335l1 -1q0 -51 3.5 -85t17 -54.5t39.5 -28.5t71 -8q64 0 105.5 45.5t41.5 137.5v189
h-279v-195z" />
    <glyph glyph-name="uni028A" unicode="&#x28a;" horiz-adv-x="1007" 
d="M428 797q-31 -30 -54 -77q-45 -96 -45 -259q0 -159 40 -232.5t125 -73.5t125 74.5t40 231.5q0 162 -46 259h1q-11 22 -22.5 39.5t-24.5 31.5v128h345v-144h-107l22.5 -36.5t19.5 -36.5v1q64 -132 64 -243q0 -112 -24.5 -200t-75.5 -149t-129.5 -93t-186.5 -32t-186.5 32
t-129.5 93t-75.5 149t-24.5 200q0 106 53 229q9 21 22.5 43.5t27.5 42.5h-103v144h349v-122z" />
    <glyph glyph-name="uni028B" unicode="&#x28b;" horiz-adv-x="964" 
d="M619 600q8 22 12 42t4 34q0 22 -5 34t-11 19q-23 31 -84 31q-40 0 -84.5 -10.5t-92.5 -33.5l-44 125l178 -578zM290 919l12 -40q61 26 125.5 39.5t135.5 13.5q93 0 155 -23t101 -65q32 -32 52.5 -75t20.5 -94q0 -33 -15 -81l-244 -585h-298l-309 910h264z" />
    <glyph glyph-name="uni028C" unicode="&#x28c;" horiz-adv-x="1004" 
d="M957 9h-264l-200 648l-52.5 -166.5l-50 -158l-49 -158l-51.5 -165.5h-261l319 910h300z" />
    <glyph glyph-name="uni0292" unicode="&#x292;" horiz-adv-x="959" 
d="M67 -220q11 15 20.5 29.5l19.5 29.5q5 8 12.5 19l15.5 23l15.5 23t12.5 19q61 -39 117 -60t123 -21q48 0 87.5 15t68 42.5t44 66.5t15.5 87q0 130 -61 162q-71 40 -213 40l-1 147l2 3l238 312h-526v178h805v-175l-252 -339q29 -11 53.5 -22.5t41.5 -22.5
q73 -47 119 -116.5t46 -169.5q0 -92 -36.5 -163t-99.5 -119.5t-148 -73.5t-183 -25q-102 0 -181 24.5t-145 65.5z" />
    <glyph glyph-name="uni0294" unicode="&#x294;" horiz-adv-x="805" 
d="M18 1119q73 52 160.5 86.5t198.5 34.5q76 0 141 -16.5t119 -48.5q119 -72 119 -220q0 -42 -9 -74t-26 -58t-41 -49t-55 -47q-129 -102 -129 -293h-245q0 53 8 105t30 102t59 97t96 91q67 50 67 123q0 30 -10.5 51t-29 34.5t-43.5 20t-55 6.5q-100 0 -253 -94z" />
    <glyph glyph-name="uni0295" unicode="&#x295;" horiz-adv-x="805" 
d="M672 970q-153 94 -253 94q-59 0 -98 -26.5t-39 -85.5q0 -74 66 -123q58 -44 95.5 -91t59.5 -97t30 -102t8 -105h-245q0 191 -129 293q-31 24 -55 47t-40.5 49t-25.5 58t-9 74q0 149 119 220q54 32 118.5 48.5t140.5 16.5q55 0 104 -9t93.5 -25.5t84.5 -39t77 -48.5z" />
    <glyph glyph-name="uni0296" unicode="&#x296;" horiz-adv-x="677" 
d="M87 918h250v-590q0 -41 4.5 -69t16 -45.5t32 -25.5t52.5 -8q41 0 85 11.5t92 33.5l57 -164q-120 -52 -262 -52q-92 0 -154.5 23t-100.5 65t-55 101t-17 130v590z" />
    <glyph glyph-name="circumflex" unicode="&#x2c6;" horiz-adv-x="790" 
d="M501 1302l257 -252h-250l-119 94l-61.5 -47l-59.5 -47h-249l257 252h225z" />
    <glyph glyph-name="caron" unicode="&#x2c7;" horiz-adv-x="782" 
d="M272 1050l-256 252h249l119 -92l121 92h248l-255 -252h-226z" />
    <glyph glyph-name="breve" unicode="&#x2d8;" horiz-adv-x="727" 
d="M660 1298q-1 -55 -25.5 -102.5t-66 -83t-95.5 -56t-115 -20.5q-60 0 -114.5 20.5t-96 55.5t-66 83t-25.5 103h188q0 -24 9 -44.5t25 -36t36.5 -24.5t43.5 -9q22 0 42.5 9t36.5 24.5t25.5 36t11.5 44.5h186z" />
    <glyph glyph-name="dotaccent" unicode="&#x2d9;" horiz-adv-x="422" 
d="M209 1314q28 0 55 -10t48 -27.5t34 -41t13 -50.5q0 -26 -12 -49.5t-32.5 -41t-47.5 -27.5t-58 -10q-33 0 -60.5 10t-48 27.5t-32 41t-11.5 49.5t12 49.5t32.5 41t48 28t59.5 10.5z" />
    <glyph glyph-name="ring" unicode="&#x2da;" horiz-adv-x="577" 
d="M284 1424q46 0 87 -15t72 -41t49.5 -60t18.5 -72q0 -39 -18.5 -74t-49.5 -60.5t-72 -40.5t-87 -15q-47 0 -88 15t-71.5 40.5t-48.5 60.5t-18 74q0 38 18 72t49 60t72 41t87 15zM284 1309q-47 0 -47 -73q0 -74 47 -74q48 0 48 74q0 73 -48 73z" />
    <glyph glyph-name="ogonek" unicode="&#x2db;" horiz-adv-x="570" 
d="M486 99l6 -26q-63 -20 -109 -50t-76.5 -63.5t-45 -67.5t-14.5 -62q0 -11 4 -23t12.5 -22.5t21.5 -17t32 -6.5q22 0 60 7t94 23l34 -137q-116 -24 -190 -24q-68 0 -119.5 14.5t-85.5 40.5t-51 63t-17 81q0 38 12 73.5t44.5 70t89.5 67.5t146 67z" />
    <glyph glyph-name="tilde" unicode="&#x2dc;" horiz-adv-x="794" 
d="M439 1238q0 1 1 0h-1zM438 1238h1l-1 1v-1zM62 1115q15 36 36.5 66t49.5 52t63.5 34.5t79.5 12.5q54 0 88 -10.5t59 -30.5v-1q19 -16 34.5 -26t28.5 -10q15 0 35.5 28t41.5 68l143 -83q-16 -33 -38 -63t-51 -53t-64.5 -36.5t-77.5 -13.5t-79.5 12t-66.5 29q-6 5 -11.5 8
t-7.5 4h2q-16 11 -28 18t-20 7q-16 0 -36 -26t-45 -64z" />
    <glyph glyph-name="hungarumlaut" unicode="&#x2dd;" horiz-adv-x="813" 
d="M214 1302h284l-253 -261h-200zM497 1302h283l-251 -261h-200z" />
    <glyph glyph-name="combiningdotbelow" unicode="&#x323;" horiz-adv-x="415" 
d="M206 -128q29 0 55.5 -10.5t47 -28.5t32.5 -41.5t12 -49.5q0 -27 -12 -50.5t-32.5 -41t-47 -27.5t-55.5 -10q-31 0 -58 10t-47.5 27.5t-32 41t-11.5 50.5q0 26 11.5 49.5t32 41.5t47.5 28.5t58 10.5z" />
    <glyph glyph-name="uni034B" unicode="&#x34b;" horiz-adv-x="577" 
d="M284 1424q46 0 87 -15t72 -41t49.5 -60t18.5 -72q0 -39 -18.5 -74t-49.5 -60.5t-72 -40.5t-87 -15q-47 0 -88 15t-71.5 40.5t-48.5 60.5t-18 74q0 38 18 72t49 60t72 41t87 15zM284 1309q-47 0 -47 -73q0 -74 47 -74q48 0 48 74q0 73 -48 73z" />
    <glyph glyph-name="tonos" unicode="&#x384;" horiz-adv-x="434" 
d="M39 1008l100 280h298l-201 -280h-197z" />
    <glyph glyph-name="dieresistonos" unicode="&#x385;" horiz-adv-x="797" 
d="M258 1194l100 280h298l-201 -280h-197zM576 1282q28 0 54 -9.5t45.5 -25.5t31 -37.5t11.5 -45.5t-11.5 -45.5t-31 -37.5t-45.5 -25.5t-54 -9.5q-29 0 -54.5 9.5t-45 26t-30.5 37.5t-11 45t11.5 45.5t31 37.5t45 25.5t53.5 9.5zM165 1282q28 0 53.5 -9.5t45 -25.5
t31 -37.5t11.5 -45.5t-11.5 -45.5t-31 -37.5t-45 -25.5t-53.5 -9.5q-30 0 -55.5 9.5t-45 26t-30.5 37.5t-11 45t11 45.5t30.5 37.5t45 25.5t55.5 9.5z" />
    <glyph glyph-name="Alphatonos" unicode="&#x386;" horiz-adv-x="1145" 
d="M735 1234l378 -1225h-263l-76 273h-356l-38 -137l-38 -136h-264l378 1225h279zM597 922l-65.5 -234l-66.5 -236h261zM80 1016l102 282h300l-202 -282h-200z" />
    <glyph glyph-name="anoteleia" unicode="&#x387;" horiz-adv-x="417" 
d="M208 705q29 0 55.5 -10.5t47 -28.5t32.5 -41.5t12 -49.5q0 -27 -12 -50.5t-32.5 -41t-47 -28t-55.5 -10.5q-31 0 -58 10.5t-47.5 28t-32 41t-11.5 50.5q0 26 11.5 49.5t32 41.5t47.5 28.5t58 10.5z" />
    <glyph glyph-name="Epsilontonos" unicode="&#x388;" horiz-adv-x="1196" 
d="M371 1234h761v-173h-502v-335h446v-172h-446v-375h503v-170h-762v1225zM25 1016l101 282h300l-202 -282h-199z" />
    <glyph glyph-name="Etatonos" unicode="&#x389;" horiz-adv-x="1451" 
d="M1078 9v538h-431v-538h-262v1225h262v-508h431v508h258v-1225h-258zM35 1016l101 282h300l-202 -282h-199z" />
    <glyph glyph-name="Iotatonos" unicode="&#x38a;" horiz-adv-x="939" 
d="M359 1234h511v-159h-126v-908h126v-158h-511v158h121v908h-121v159zM-1 1016l102 282h300l-202 -282h-200z" />
    <glyph glyph-name="Omicrontonos" unicode="&#x38c;" horiz-adv-x="1235" 
d="M683 1247q469 0 469 -628q0 -629 -469 -629q-471 0 -471 629q0 628 471 628zM683 1075q-216 0 -216 -456q0 -458 216 -458q214 0 214 458q0 456 -214 456zM32 1016l101 282h300l-202 -282h-199z" />
    <glyph glyph-name="Upsilontonos" unicode="&#x38e;" horiz-adv-x="1366" 
d="M688 9v581l-196.5 322l-196.5 322h279l246 -429l126.5 215l125.5 214h267l-400 -657l5 8v-576h-256zM-1 1016l102 282h299l-202 -282h-199z" />
    <glyph glyph-name="Omegatonos" unicode="&#x38f;" horiz-adv-x="1260" 
d="M701 1247q470 0 470 -628q0 -165 -38.5 -270t-113.5 -166h125v-174h-390v176q49 9 80.5 33.5t49.5 74t25 129t7 197.5q0 456 -215 456q-214 0 -214 -456q0 -116 7 -195t26 -129t51.5 -75.5t83.5 -34.5v-176h-389v174h125q-159 127 -159 436q0 628 469 628zM40 1016
l102 282h300l-202 -282h-200z" />
    <glyph glyph-name="iotadieresistonos" unicode="&#x390;" horiz-adv-x="709" 
d="M253 760h-136v158h383v-909h-247v751zM138 1282q37 0 69.5 -16.5t51.5 -43.5l69 207h238l-112 -170q17 11 38.5 17t44.5 6q28 0 54 -9.5t45 -25.5t30.5 -37.5t11.5 -45.5t-11.5 -45.5t-30.5 -37.5t-45 -25.5t-54 -9.5q-29 0 -54.5 9.5t-45 26t-30.5 37.5t-11 45
q0 15 5 32h-128q6 -15 6 -32q0 -24 -11.5 -45.5t-31 -37.5t-45 -25.5t-53.5 -9.5q-29 0 -55 9.5t-45.5 26t-30.5 37.5t-11 45t11.5 45.5t31 37.5t45 25.5t54.5 9.5z" />
    <glyph glyph-name="Alpha" unicode="&#x391;" horiz-adv-x="1098" 
d="M682 1234l378 -1225h-264l-76 273h-355l-38.5 -137l-37.5 -136h-264l378 1225h279zM543 922l-64.5 -234l-66.5 -236h260z" />
    <glyph glyph-name="Beta" unicode="&#x392;" horiz-adv-x="1036" 
d="M99 1234h346q194 0 320 -61h-1q143 -66 143 -251q0 -48 -13 -89t-36 -74t-54 -57.5t-66 -40.5q111 -30 167.5 -104.5t56.5 -193.5q0 -354 -418 -354h-445v1225zM368 1061v-326h158q56 0 90.5 39.5t34.5 126.5q0 88 -42 124t-133 36h-108zM368 564v-385h181q31 0 58 10.5
t47.5 33.5t32.5 58.5t12 85.5q0 48 -9.5 85t-32.5 61.5t-61 37.5t-94 13h-134z" />
    <glyph glyph-name="Gamma" unicode="&#x393;" horiz-adv-x="833" 
d="M98 1234h748v-173h-489v-1052h-259v1225z" />
    <glyph glyph-name="uni0394" unicode="&#x394;" horiz-adv-x="1098" 
d="M682 1234l378 -1225h-1035l378 1225h279zM748 183l-53.5 193.5l-48.5 174.5l-49 175.5l-55 196.5l-101.5 -369.5l-103.5 -370.5h411z" />
    <glyph glyph-name="Epsilon" unicode="&#x395;" horiz-adv-x="915" 
d="M99 1234h761v-173h-503v-335h447v-172h-447v-375h504v-170h-762v1225z" />
    <glyph glyph-name="Zeta" unicode="&#x396;" horiz-adv-x="970" 
d="M107 1234h780v-185l-526 -857h512v-183h-809v179l544 863h-501v183z" />
    <glyph glyph-name="Eta" unicode="&#x397;" horiz-adv-x="1165" 
d="M792 9v538h-431v-538h-261v1225h261v-508h431v508h259v-1225h-259z" />
    <glyph glyph-name="Theta" unicode="&#x398;" horiz-adv-x="1135" 
d="M374 705h372v-173h-372v173zM561 1252q209 0 347 -135q144 -143 144 -494q0 -355 -144 -496q-137 -134 -347 -134q-106 0 -192.5 33t-155.5 101q-144 141 -144 496q0 353 144 494q136 135 348 135zM559 1079q-91 0 -164 -87q-70 -83 -70 -368q0 -284 70 -369
q36 -41 78 -63.5t86 -22.5q90 0 162 91q73 91 73 364t-73 363q-71 92 -162 92z" />
    <glyph glyph-name="Iota" unicode="&#x399;" horiz-adv-x="652" 
d="M66 1234h512v-159h-126v-908h126v-158h-512v158h121v908h-121v159z" />
    <glyph glyph-name="Kappa" unicode="&#x39a;" horiz-adv-x="1093" 
d="M100 1234h260v-441l168.5 220.5l166.5 220.5h277l-423 -557l121.5 -165l125 -169l124.5 -169.5l121 -164.5h-295l-386 518v-518h-260v1225z" />
    <glyph glyph-name="Lambda" unicode="&#x245;" horiz-adv-x="1072" 
d="M1030 9h-269l-232 914l-116.5 -458.5l-115.5 -455.5h-268l342 1225h317z" />
    <glyph glyph-name="Lambda" unicode="&#x39b;" horiz-adv-x="1072" 
d="M1030 9h-269l-232 914l-116.5 -458.5l-115.5 -455.5h-268l342 1225h317z" />
    <glyph glyph-name="Mu" unicode="&#x39c;" horiz-adv-x="1285" 
d="M924 9v755l-82.5 -229.5l-81.5 -226.5h-233l-183 480v-779h-244v1225h334l211 -602l101.5 301.5l99.5 300.5h322v-1225h-244z" />
    <glyph glyph-name="Nu" unicode="&#x39d;" horiz-adv-x="1103" 
d="M99 9v1225h322l325 -789v789h244v-1225h-317l-330 802v-802h-244z" />
    <glyph glyph-name="Xi" unicode="&#x39e;" horiz-adv-x="931" 
d="M60 1234h802v-197h-802v197zM57 209h805v-200h-805v200zM178 728h565v-196h-565v196z" />
    <glyph glyph-name="Omicron" unicode="&#x39f;" horiz-adv-x="1091" 
d="M540 1247q469 0 469 -628q0 -629 -469 -629q-471 0 -471 629q0 628 471 628zM540 1075q-216 0 -216 -456q0 -458 216 -458q213 0 213 458q0 456 -213 456z" />
    <glyph glyph-name="Pi" unicode="&#x3a0;" horiz-adv-x="1176" 
d="M68 1234h1028v-174h-127v-1051h-266v1051h-247v-1051h-267v1051h-121v174z" />
    <glyph glyph-name="Rho" unicode="&#x3a1;" horiz-adv-x="943" 
d="M99 1234h345q120 0 211.5 -22t152.5 -69.5t92 -122t31 -180.5q0 -109 -31.5 -186.5t-87.5 -127t-134.5 -73t-172.5 -23.5h-148v-421h-258v1225zM357 1070v-465h157q151 0 151 230q0 62 -10.5 106.5t-35.5 73t-66.5 42t-103.5 13.5h-92z" />
    <glyph glyph-name="Sigma" unicode="&#x1a9;" horiz-adv-x="975" 
d="M910 1054h-527l186.5 -201.5l185.5 -201.5l-368 -455h523v-187h-811v186l354 454l-177 205l-177 203v177h811v-180z" />
    <glyph glyph-name="Sigma" unicode="&#x3a3;" horiz-adv-x="975" 
d="M910 1054h-527l186.5 -201.5l185.5 -201.5l-368 -455h523v-187h-811v186l354 454l-177 205l-177 203v177h811v-180z" />
    <glyph glyph-name="Tau" unicode="&#x3a4;" horiz-adv-x="961" 
d="M16 1234h916v-181h-327v-1044h-261v1044h-328v181z" />
    <glyph glyph-name="Upsilon" unicode="&#x3a5;" horiz-adv-x="1071" 
d="M400 9v581l-196.5 322l-196.5 322h280l246 -429l126 215l125 214h267l-399 -657l5 8v-576h-257z" />
    <glyph glyph-name="Phi" unicode="&#x3a6;" horiz-adv-x="1360" 
d="M792 -51h-245v161q-107 12 -196 44.5t-155 86.5q-76 63 -116 159.5t-40 227.5q0 261 145 385q65 57 155 89.5t207 43.5v165h245v-164q121 -11 216 -44t161 -95t100.5 -155.5t34.5 -224.5q0 -129 -41 -227t-117 -161q-66 -51 -157 -85t-197 -46v-160zM547 982
q-59 -11 -106.5 -36t-80.5 -67t-51 -104t-18 -147q0 -86 18.5 -147.5t52 -104t81 -67.5t104.5 -36v709zM792 272q58 10 106 35.5t82.5 68.5t53 105t18.5 147q0 84 -17.5 146t-51 105t-82 68.5t-109.5 36.5v-712z" />
    <glyph glyph-name="Chi" unicode="&#x3a7;" horiz-adv-x="1153" 
d="M780 1234h271l-340 -585l184 -320l184 -320h-287l-225 431l-113.5 -216l-112.5 -215h-280l371 629l-171.5 298.5l-170.5 297.5h285l200 -376z" />
    <glyph glyph-name="Psi" unicode="&#x3a8;" horiz-adv-x="1299" 
d="M523 1234h244v-746q100 19 153.5 80t53.5 175v491h258v-491q0 -195 -121.5 -305t-343.5 -133v-296h-244v296q-111 13 -198.5 47t-148 88.5t-93 130t-32.5 172.5v491h257v-491q0 -106 56 -170t159 -86v747z" />
    <glyph glyph-name="uni03A9" unicode="&#x3a9;" horiz-adv-x="1103" 
d="M544 1247q470 0 470 -628q0 -165 -38.5 -270t-113.5 -166h125v-174h-390v176q49 9 80.5 33.5t49.5 74t25 129t7 197.5q0 456 -215 456q-214 0 -214 -456q0 -116 7 -195t26 -129.5t51.5 -75.5t82.5 -34v-176h-388v174h125q-159 127 -159 436q0 628 469 628z" />
    <glyph glyph-name="Iotadieresis" unicode="&#x3aa;" horiz-adv-x="768" 
d="M124 1234h511v-159h-126v-908h126v-158h-511v158h121v908h-121v159zM587 1527q28 0 54 -9.5t45.5 -25.5t31.5 -38t12 -46q0 -25 -12 -46.5t-31.5 -37.5t-45.5 -25t-54 -9q-30 0 -56 9.5t-45 25.5t-30 37.5t-11 45.5t11 46t30.5 38t45 25.5t55.5 9.5zM171 1527
q29 0 55 -9.5t45.5 -25.5t31 -38t11.5 -46q0 -25 -11.5 -46.5t-31 -37.5t-45.5 -25t-55 -9t-55 9.5t-45.5 25.5t-30.5 37.5t-11 45.5t11.5 46t31 38t45 25.5t54.5 9.5z" />
    <glyph glyph-name="alphatonos" unicode="&#x3ac;" horiz-adv-x="922" 
d="M838 921v-912h-197l-10 61q-50 -38 -112 -57.5t-137 -19.5q-207 0 -275 137q-68 132 -68 329q0 193 74 337q75 144 287 144q75 0 133.5 -20t98.5 -49q3 14 5 26l4 24h197zM594 659q-45 112 -152 112q-43 0 -72 -22t-46.5 -60.5t-25 -91.5t-7.5 -115q0 -78 8.5 -141
t25.5 -107q31 -75 116 -75q124 0 153 109v391zM301 1008l101 280h297l-200 -280h-198z" />
    <glyph glyph-name="epsilontonos" unicode="&#x3ad;" horiz-adv-x="823" 
d="M707 715q-27 10 -59.5 19.5t-66.5 17t-67 12t-60 4.5q-79 0 -109.5 -25t-30.5 -79q0 -100 151 -100h163v-155h-118q-50 0 -89 -6t-66 -21t-41.5 -41t-14.5 -66q0 -29 7.5 -50t25 -35t46.5 -20.5t72 -6.5q59 0 127 15.5t146 47.5l66 -156q-172 -77 -339 -77q-91 0 -166 14
t-128 46.5t-82.5 84t-29.5 126.5q0 42 13 76t36.5 60.5t56 45.5t71.5 32q-68 23 -112 71.5t-44 126.5q0 62 30 111t81.5 82.5t120 51.5t144.5 18q100 0 182.5 -20.5t145.5 -51.5zM363 1302h321l-304 -252h-225z" />
    <glyph glyph-name="etatonos" unicode="&#x3ae;" horiz-adv-x="886" 
d="M9 919h204l14 -61q43 33 104 54.5t132 21.5q89 0 153 -21t105 -59.5t60 -92.5t19 -120v-932h-247v932q0 25 -5 48t-19.5 40.5t-40.5 28t-68 10.5q-163 0 -163 -193v-566h-248v910zM304 1008l101 280h297l-202 -280h-196z" />
    <glyph glyph-name="iotatonos" unicode="&#x3af;" horiz-adv-x="547" 
d="M134 760h-137v158h384v-909h-247v751zM137 1008l101 280h297l-201 -280h-197z" />
    <glyph glyph-name="upsilondieresistonos" unicode="&#x3b0;" horiz-adv-x="914" 
d="M444 -15q-240 0 -309 96q-74 103 -74 253v585h250l2 -585q0 -51 3.5 -85t17 -54.5t39.5 -28.5t71 -8t71.5 8t40 28.5t17.5 54.5t4 85v585h250v-585q0 -154 -74 -253q-71 -96 -309 -96zM653 1271q28 0 54 -9t45 -25t30.5 -37.5t11.5 -46.5q0 -24 -11.5 -45.5t-30.5 -37.5
t-45 -25.5t-54 -9.5q-30 0 -55.5 9.5t-44.5 25.5t-30 37.5t-11 45.5q0 25 11 46.5t30 37.5t45 25t55 9zM253 1271q28 0 54 -9t45 -25t30.5 -37.5t11.5 -46.5q0 -24 -11.5 -45.5t-30.5 -37.5t-45 -25.5t-54 -9.5q-29 0 -54.5 9.5t-45 25.5t-30.5 37.5t-11 45.5
q0 25 11.5 46.5t31 37.5t45 25t53.5 9zM367 1185l77 234h238l-153 -234h-162z" />
    <glyph glyph-name="alpha" unicode="&#x251;" horiz-adv-x="988" 
d="M872 921v-912h-196l-11 61q-50 -38 -112 -57.5t-137 -19.5q-206 0 -275 137q-68 134 -68 329q0 191 74 337q75 144 288 144q74 0 133 -20t98 -49l5.5 26t4.5 24h196zM628 659q-45 112 -152 112q-43 0 -72 -22t-46.5 -60.5t-25 -91.5t-7.5 -115q0 -78 8.5 -141t25.5 -107
q31 -75 116 -75q64 0 101.5 27.5t51.5 81.5v391z" />
    <glyph glyph-name="alpha" unicode="&#x3b1;" horiz-adv-x="988" 
d="M872 921v-912h-196l-11 61q-50 -38 -112 -57.5t-137 -19.5q-206 0 -275 137q-68 134 -68 329q0 191 74 337q75 144 288 144q74 0 133 -20t98 -49l5.5 26t4.5 24h196zM628 659q-45 112 -152 112q-43 0 -72 -22t-46.5 -60.5t-25 -91.5t-7.5 -115q0 -78 8.5 -141t25.5 -107
q31 -75 116 -75q64 0 101.5 27.5t51.5 81.5v391z" />
    <glyph glyph-name="beta" unicode="&#x3b2;" horiz-adv-x="988" 
d="M343 69l41 120q49 -18 87.5 -28t67.5 -10q165 0 165 208q0 63 -23 110t-62 78.5t-91.5 47t-111.5 15.5v152q46 5 84 19t65 38t42 58t15 79q0 141 -137 141q-142 0 -142 -208v-820zM568 -7q-57 0 -113 10t-112 30v-327h-248v1183q0 86 23 156.5t71.5 120.5t123 77.5
t177.5 27.5q77 0 145 -21.5t118.5 -60.5t79.5 -93.5t29 -121.5q0 -187 -200 -276q64 -15 118.5 -40.5t94.5 -66.5t62 -98t22 -135q0 -84 -29 -152t-80.5 -115t-123.5 -72.5t-158 -25.5z" />
    <glyph glyph-name="gamma" unicode="&#x3b3;" horiz-adv-x="976" 
d="M16 919h265l199 -592l102.5 297.5l102.5 294.5h261l-347 -901l2 5v-314h-248v314l2 -5z" />
    <glyph glyph-name="delta" unicode="&#x3b4;" horiz-adv-x="973" 
d="M484 1097q105 -51 184 -121t131.5 -151.5t79 -171.5t26.5 -180q0 -480 -416 -480q-99 0 -176.5 28t-131 84t-82 140t-28.5 196q0 159 72 297q75 138 252 138q63 0 99 -3q-38 42 -68 69t-54 42q-42 29 -106 58.5t-153 64.5v156h645v-166h-274zM493 161q44 0 75.5 18.5
t51.5 58.5t29.5 102t9.5 148q0 13 -5.5 41t-13 58.5t-15.5 57.5t-12 39l12 -7q-19 13 -36 23t-35 17t-38.5 10t-46.5 3q-85 0 -115 -87q-32 -89 -32 -197q0 -66 9.5 -119t29.5 -90t52.5 -56.5t79.5 -19.5z" />
    <glyph glyph-name="epsilon" unicode="&#x3b5;" horiz-adv-x="890" 
d="M728 715q-27 10 -59.5 19.5t-66 17t-66.5 12t-60 4.5q-40 0 -67 -6.5t-43.5 -19t-23.5 -32t-7 -46.5q0 -100 151 -100h164v-155h-118q-50 0 -89.5 -6t-66.5 -21t-41 -41t-14 -66q0 -29 7.5 -50t25 -35t46.5 -20.5t72 -6.5q58 0 126 15.5t147 47.5l66 -156
q-172 -77 -339 -77q-91 0 -166 14t-128 46.5t-82.5 84t-29.5 126.5q0 42 13 76t36.5 60.5t56 45.5t70.5 32q-68 23 -112 71.5t-44 126.5q0 62 30.5 111t82 82.5t119.5 51.5t144 18q100 0 182.5 -20.5t145.5 -51.5z" />
    <glyph glyph-name="zeta" unicode="&#x3b6;" horiz-adv-x="823" 
d="M18 1097v167h701v-152h-1l6 -10q-110 -56 -195.5 -125.5t-144 -153.5t-88.5 -183.5t-30 -216.5q0 -71 7 -120t27 -80t55.5 -45t91.5 -15q77 -2 130.5 -17.5t87 -44.5t48.5 -70.5t15 -94.5q0 -55 -16 -115t-39 -112h-215q1 5 3.5 13l5.5 17l5.5 17l4.5 14v-1q9 30 17.5 62
t8.5 66q0 47 -29 75t-100 33q-103 8 -171.5 38t-109.5 82t-58 126.5t-17 171.5q0 425 401 674h-401z" />
    <glyph glyph-name="eta" unicode="&#x3b7;" horiz-adv-x="935" 
d="M34 919h203l15 -61q43 33 103.5 54.5t131.5 21.5q89 0 153 -21t105 -59.5t60 -92.5t19 -120v-932h-247v932q0 25 -5 48t-19.5 40.5t-40 28t-67.5 10.5q-163 0 -163 -193v-566h-248v910z" />
    <glyph glyph-name="theta" unicode="&#x3b8;" horiz-adv-x="981" 
d="M483 1240q193 0 300 -133q111 -138 111 -491q0 -356 -111 -492h1q-104 -132 -301 -132t-303 132q-107 135 -107 492q0 356 107 491q107 133 303 133zM644 706q-9 226 -52 296q-45 73 -109 73q-63 0 -109 -73q-20 -37 -33.5 -111.5t-18.5 -184.5h322zM322 550
q2 -120 15 -199.5t34 -118.5q23 -37 52 -56.5t60 -19.5q32 0 60 19.5t51 56.5q20 40 33.5 120t16.5 198h-322z" />
    <glyph glyph-name="iota" unicode="&#x3b9;" horiz-adv-x="504" 
d="M150 760h-137v158h383v-909h-246v751z" />
    <glyph glyph-name="kappa" unicode="&#x3ba;" horiz-adv-x="972" 
d="M98 889h249v-268l127 150l127 150h279l-345 -407l91 -124.5l94.5 -129l94.5 -128l91 -123.5h-279l-280 373v-373h-249v880z" />
    <glyph glyph-name="lambda" unicode="&#x3bb;" horiz-adv-x="989" 
d="M24 9l310 912h63l-52 157l-52 155h249l418 -1224h-260l-220 661l-101 -331.5l-102 -329.5h-253z" />
    <glyph glyph-name="nu" unicode="&#x3bd;" horiz-adv-x="1002" 
d="M30 919h265l199 -648l52 166.5l49.5 158l49.5 158l52 165.5h261l-319 -910h-300z" />
    <glyph glyph-name="xi" unicode="&#x3be;" horiz-adv-x="821" 
d="M27 1263h702v-161q-99 -17 -179 -41t-136.5 -57t-87 -76.5t-30.5 -99.5q0 -123 143 -123h168v-160h-136q-46 0 -83 -16t-63 -44t-40 -66.5t-14 -83.5t9.5 -75.5t31.5 -50t57.5 -28.5t86.5 -12q60 -3 112 -17.5t90 -42.5t59.5 -70.5t21.5 -101.5q0 -115 -53 -228h-221
q17 48 32 98t15 100q0 22 -5.5 38t-21 27.5t-42.5 19t-70 10.5h1q-77 5 -141.5 25t-111 58t-73 96t-26.5 139q0 52 15.5 97.5t44.5 83.5t70 67.5t91 47.5q-44 12 -80 30t-62 44.5t-40.5 61.5t-14.5 80q0 48 20 87.5t56.5 72t88.5 58.5t116 47h-300v166z" />
    <glyph glyph-name="omicron" unicode="&#x3bf;" horiz-adv-x="987" 
d="M486 934q107 0 185.5 -32t130 -93t76.5 -149t25 -200t-25 -200t-76 -149t-129.5 -93t-186.5 -32q-107 0 -185.5 32t-129.5 93t-76 149t-25 200t25 200t76 149t129.5 93t185.5 32zM485 768q-85 0 -124.5 -75.5t-39.5 -231.5q0 -159 39.5 -232.5t124.5 -73.5
q86 0 125.5 74.5t39.5 231.5t-39.5 232t-125.5 75z" />
    <glyph glyph-name="pi" unicode="&#x3c0;" horiz-adv-x="1146" 
d="M72 750v169h963v-169h-129v-478q0 -99 95 -99v-164q-81 0 -144 14t-107 45.5t-67 81.5t-23 122v478h-216v-741h-250v741h-122z" />
    <glyph glyph-name="rho" unicode="&#x3c1;" horiz-adv-x="914" 
d="M90 507q0 241 116 339q111 93 278 93q74 0 142.5 -24t129.5 -70q66 -51 99.5 -128t33.5 -178q0 -116 -23.5 -207.5t-73.5 -155.5t-127 -97.5t-183 -33.5q-44 0 -80 5t-65 16v-368h-247v809zM337 231q55 -20 98 -20q56 0 94.5 19t62 57t34 96.5t10.5 138.5q0 59 -7 105.5
t-24.5 78.5t-46.5 49t-72 17q-68 0 -108.5 -46t-40.5 -126v-369z" />
    <glyph glyph-name="sigma1" unicode="&#x3c2;" horiz-adv-x="824" 
d="M459 169h9.5t10.5 -1q58 -6 107 -21.5t84 -43t55 -68.5t20 -98t-13 -114t-39 -114h-221q17 48 31.5 99.5t14.5 101.5q0 21 -5 38t-20 29t-41.5 18.5t-69.5 6.5q-134 0 -246 105q-120 114 -120 359q0 94 22.5 178.5t61.5 151.5q86 138 324 138q169 0 281 -65l-69 -159
q-109 56 -203 56q-49 0 -80 -22t-48.5 -61.5t-24 -94t-6.5 -119.5q0 -86 11.5 -144t34 -92.5t55.5 -49t77 -14.5h7z" />
    <glyph glyph-name="sigma" unicode="&#x3c3;" horiz-adv-x="1087" 
d="M1024 754q-54 0 -111.5 0.5t-105.5 2.5q18 -23 35.5 -52t32 -67t23.5 -85.5t9 -108.5q0 -451 -417 -451q-108 0 -186.5 31.5t-129 92.5t-75 149t-24.5 201q0 112 24.5 199.5t75.5 148.5t129 93t186 32q63 0 115.5 -2.5t105.5 -5.5q59 -4 141.5 -7.5t171.5 -3.5v-167z
M490 774q-87 0 -126 -75.5t-39 -231.5q0 -158 40 -232t125 -74t124.5 74.5t39.5 231.5q0 31 -3.5 72t-11 83t-18 81t-24.5 66q-4 0 -6.5 0.5t-6.5 0.5q-28 2 -51.5 3t-42.5 1z" />
    <glyph glyph-name="tau" unicode="&#x3c4;" horiz-adv-x="888" 
d="M28 921h817v-175h-285v-737h-248v737h-284v175z" />
    <glyph glyph-name="upsilon" unicode="&#x3c5;" horiz-adv-x="963" 
d="M473 -15q-238 0 -309 96q-73 101 -73 253v585h250l2 -585q0 -51 3.5 -85t17 -54.5t39 -28.5t70.5 -8t71.5 8t40 28.5t17.5 54.5t4 85v585h251v-585q0 -154 -75 -253q-69 -96 -309 -96z" />
    <glyph glyph-name="phi" unicode="&#x3c6;" horiz-adv-x="1344" 
d="M762 212q63 5 111.5 20.5t84.5 41.5q68 50 68 249q0 50 -5.5 95.5t-20.5 80t-41 55t-67 20.5q-17 0 -35 -3t-35.5 -7.5t-33 -10l-26.5 -9.5v-532zM762 -291h-247v337q-123 7 -212 35t-146 77.5t-84 121t-27 167.5q0 117 40 235t119 239h244q-70 -98 -112 -210.5
t-42 -248.5q0 -139 46 -190q44 -47 174 -59v614q38 21 79 41.5t86 36t96 25t110 9.5q103 0 177.5 -27.5t122.5 -80t71 -129.5t23 -175q0 -126 -30.5 -213.5t-94 -144t-161.5 -85.5t-232 -38v-337z" />
    <glyph glyph-name="chi" unicode="&#x3c7;" horiz-adv-x="1065" 
d="M84 921h255l185 -385l93.5 193l92.5 192h254l-297 -596l158 -308l157 -308h-255l-203 447l-102 -224.5l-102 -222.5h-253l314 616z" />
    <glyph glyph-name="psi" unicode="&#x3c8;" horiz-adv-x="1195" 
d="M477 921h228v-702q86 19 134 76.5t48 162.5v463h239v-463q0 -180 -108.5 -285.5t-312.5 -127.5v-336h-228v337q-101 11 -180.5 43.5t-135 84.5t-84.5 123.5t-29 160.5v463h239v-463q0 -201 190 -240v703z" />
    <glyph glyph-name="omega" unicode="&#x3c9;" horiz-adv-x="1432" 
d="M588 631h233v-349l-1 3q12 -49 39 -92h-1q28 -42 98 -42q38 0 63 18.5t39.5 49t20.5 71.5t6 86q0 59 -11.5 125.5t-32.5 137t-51 142t-66 140.5h246q76 -143 114.5 -276.5t38.5 -260.5q0 -391 -346 -391q-181 0 -272 128q-91 -128 -273 -128q-345 0 -345 391
q0 252 153 537h247q-39 -69 -69 -140.5t-50.5 -141.5t-31.5 -136.5t-11 -126.5q0 -45 6 -86t20.5 -72t39 -49t62.5 -18q69 0 97 42q27 42 39 93l-1 -4v349z" />
    <glyph glyph-name="iotadieresis" unicode="&#x3ca;" horiz-adv-x="760" 
d="M262 760h-137v158h384v-909h-247v751zM576 1282q28 0 54 -9.5t45.5 -25.5t31 -37.5t11.5 -45.5t-11.5 -45.5t-31 -37.5t-45.5 -25.5t-54 -9.5q-30 0 -55.5 9.5t-44.5 26t-30 37.5t-11 45t11 45.5t30 37.5t45 25.5t55 9.5zM164 1282q28 0 53.5 -9.5t45 -25.5t31.5 -37.5
t12 -45.5t-12 -45.5t-31.5 -37.5t-45 -25.5t-53.5 -9.5q-29 0 -55 9.5t-45.5 26t-30.5 37.5t-11 45t11.5 45.5t31 37.5t45 25.5t54.5 9.5z" />
    <glyph glyph-name="upsilondieresis" unicode="&#x3cb;" horiz-adv-x="948" 
d="M465 -15q-240 0 -309 96q-74 101 -74 253v585h250l2 -585q0 -51 3.5 -85t17 -54.5t39.5 -28.5t71 -8t71 8t39.5 28.5t17.5 54.5t4 85v585h251v-585q0 -154 -75 -253q-69 -96 -308 -96zM679 1282q28 0 53.5 -9.5t45 -25.5t31.5 -37.5t12 -45.5t-12 -45.5t-31.5 -37.5
t-45 -25.5t-53.5 -9.5q-29 0 -55 9.5t-45.5 26t-30.5 37.5t-11 45t11.5 45.5t31 37.5t45 25.5t54.5 9.5zM267 1282q28 0 54 -9.5t45 -25.5t30.5 -37.5t11.5 -45.5t-11.5 -45.5t-30.5 -37.5t-45 -25.5t-54 -9.5q-29 0 -55 9.5t-45 26t-30 37.5t-11 45t11 45.5t30 37.5
t45 25.5t55 9.5z" />
    <glyph glyph-name="omicrontonos" unicode="&#x3cc;" horiz-adv-x="931" 
d="M447 934q107 0 185.5 -32t129.5 -93t76 -149t25 -200t-25 -200t-76 -149t-129.5 -93t-185.5 -32q-108 0 -186.5 32t-129.5 93t-76 149t-25 200t25 200t76.5 149t130 93t185.5 32zM446 768q-85 0 -125 -75.5t-40 -231.5q0 -159 40 -232.5t125 -73.5t124.5 74.5t39.5 231.5
t-39.5 232t-124.5 75zM359 1008l100 280h297l-201 -280h-196z" />
    <glyph glyph-name="upsilontonos" unicode="&#x3cd;" horiz-adv-x="892" 
d="M427 -15q-238 0 -309 96q-73 101 -73 253v585h249l2 -585q0 -51 3.5 -85t17 -54.5t39.5 -28.5t71 -8t71.5 8t40 28.5t17.5 54.5t4 85v585h251v-585q0 -153 -75 -253q-69 -96 -309 -96zM321 1008l100 280h298l-201 -280h-197z" />
    <glyph glyph-name="omegatonos" unicode="&#x3ce;" horiz-adv-x="1356" 
d="M545 631h233v-349l-1 3q5 -26 15 -48.5t23 -43.5h-1q30 -42 99 -42q38 0 63 18.5t39.5 49t20.5 71.5t6 86q0 59 -11.5 125.5t-32.5 137t-51 142t-67 140.5h246q153 -285 153 -537q0 -391 -346 -391q-181 0 -272 128q-91 -128 -273 -128q-344 0 -344 391q0 252 153 537
h246q-38 -69 -68 -140.5t-50.5 -141.5t-31.5 -136.5t-11 -126.5q0 -45 6 -86t20.5 -72t39 -49t62.5 -18q70 0 96 42q14 21 23.5 44t16.5 49l-1 -4v349zM549 1008l101 280h296l-200 -280h-197z" />
    <glyph glyph-name="afii10023" unicode="&#x401;" horiz-adv-x="891" 
d="M88 1234h761v-173h-502v-335h446v-172h-446v-375h503v-170h-762v1225zM677 1542q28 0 54 -9.5t46 -26t31.5 -38t11.5 -46.5t-11.5 -46.5t-31.5 -37.5t-46 -25t-54 -9q-30 0 -56 9.5t-45 25.5t-30 37.5t-11 45.5q0 25 11 46.5t30.5 38t45 26t55.5 9.5zM261 1542
q29 0 55 -9.5t45.5 -26t31 -38t11.5 -46.5t-11.5 -46.5t-31 -37.5t-45.5 -25t-55 -9t-55 9.5t-45.5 25.5t-30.5 37.5t-11 45.5q0 25 11.5 46.5t31 38t45 26t54.5 9.5z" />
    <glyph glyph-name="afii10051" unicode="&#x402;" horiz-adv-x="1293" 
d="M681 221q101 -65 171 -65q39 0 63.5 22.5t38 62t18.5 94.5t5 121q0 87 -7.5 147t-24 98t-41.5 55t-59 17q-223 1 -225 -189v-575h-263v1044h-328v181h916v-181h-327v-170q50 33 121 49l-1 -1q21 6 49.5 8.5t63.5 2.5q94 0 159 -27.5t113 -76.5q53 -52 73.5 -142.5
t20.5 -215.5q0 -98 -17 -180.5t-52 -151.5q-86 -162 -289 -162q-142 0 -236 68z" />
    <glyph glyph-name="afii10052" unicode="&#x403;" horiz-adv-x="794" 
d="M63 1234h748v-173h-489v-1052h-259v1225zM469 1525h322l-303 -254h-228z" />
    <glyph glyph-name="afii10053" unicode="&#x404;" 
d="M546 1247q61 0 106 -5t81.5 -14t68 -21.5l65.5 -26.5l-77 -170q-25 12 -53.5 23t-57.5 19t-55.5 13t-46.5 5q-86 0 -147 -60t-92 -187v1q-5 -26 -10 -57.5t-7 -66.5h381v-160h-383q2 -37 5.5 -68.5t8.5 -61.5q21 -123 71 -182.5t136 -59.5q118 0 243 55l68 -168
q-32 -14 -65.5 -26t-71.5 -20.5t-83.5 -13.5t-100.5 -5q-125 0 -214 38.5t-145 117t-82 196.5t-26 277t33 277t95.5 196t152 116.5t202.5 38.5z" />
    <glyph glyph-name="afii10054" unicode="&#x405;" horiz-adv-x="991" 
d="M821 1008q-162 78 -309 78q-85 0 -127 -39.5t-42 -100.5q0 -34 12.5 -60.5t34.5 -48t53 -38.5t69 -31q90 -34 162.5 -72.5t123.5 -81.5q116 -98 116 -263q0 -92 -31 -160.5t-89.5 -114t-143 -68t-192.5 -22.5q-110 0 -207 25t-191 70l82 170q79 -31 154.5 -53.5
t147.5 -22.5q209 0 209 175q0 40 -16 73.5t-46 61.5t-72.5 51t-95.5 43q-67 26 -125.5 55.5t-106.5 65.5q-54 42 -82.5 102t-28.5 137q0 67 29.5 126t86 103.5t139 70.5t189.5 26t200 -25.5t171 -63.5z" />
    <glyph glyph-name="afii10055" unicode="&#x406;" horiz-adv-x="652" 
d="M66 1234h512v-159h-126v-908h126v-158h-512v158h121v908h-121v159z" />
    <glyph glyph-name="afii10056" unicode="&#x407;" horiz-adv-x="768" 
d="M111 1234h512v-159h-126v-908h126v-158h-512v158h121v908h-121v159zM592 1523q28 0 54 -9t46 -25t31.5 -37.5t11.5 -46.5t-11.5 -46.5t-31.5 -37.5t-46 -25.5t-54 -9.5q-30 0 -55.5 9.5t-45 25.5t-30.5 37.5t-11 46.5t11 46.5t30.5 37.5t45 25t55.5 9zM177 1523
q28 0 54 -9t45.5 -25t31.5 -37.5t12 -46.5t-12 -46.5t-31.5 -37.5t-45.5 -25.5t-54 -9.5q-30 0 -56 9.5t-45 25.5t-30 37.5t-11 46.5t11 46.5t30.5 37.5t45 25t55.5 9z" />
    <glyph glyph-name="afii10057" unicode="&#x408;" horiz-adv-x="840" 
d="M476 1234h262v-907q-1 -134 -89 -237q-87 -100 -332 -100q-100 0 -183.5 36.5t-152.5 92.5l131 158q42 -45 95.5 -75.5t118.5 -30.5q150 0 150 156v907z" />
    <glyph glyph-name="afii10058" unicode="&#x409;" horiz-adv-x="1742" 
d="M322 1234h790v-422h139q94 0 172.5 -23t134.5 -72t87.5 -127t31.5 -187q0 -107 -31 -181.5t-92 -122t-152.5 -69t-211.5 -21.5h-345v1047h-262q0 -204 -0.5 -407t-0.5 -408q-11 -258 -315 -258q-65 0 -116.5 8.5t-90.5 24.5l19 76l23 90q38 -12 69.5 -19t53.5 -7
q48 0 72 17.5t24 62.5zM1196 173q62 0 103.5 13.5t66 42t35 73t10.5 106.5q0 230 -151 230h-148v-465h84z" />
    <glyph glyph-name="afii10059" unicode="&#x40a;" horiz-adv-x="1691" 
d="M795 9v619h-430v-619h-262v1225h262v-427h430v427h259v-422h148q94 0 172 -23t134 -72t87.5 -127t31.5 -187q0 -107 -30.5 -181.5t-91.5 -122t-152.5 -69t-212.5 -21.5h-345zM1147 173q61 0 102.5 13.5t66.5 42t35.5 73t10.5 106.5q0 230 -151 230h-157v-465h93z" />
    <glyph glyph-name="afii10060" unicode="&#x40b;" horiz-adv-x="1258" 
d="M32 1234h916v-181h-328v-170q41 27 93.5 43t115.5 16q90 0 155 -21t106 -60t60.5 -93.5t19.5 -121.5v-637h-250v637q0 25 -5 48.5t-19.5 41t-40.5 28t-69 10.5q-163 0 -164 -190v-575h-262v1044h-328v181z" />
    <glyph glyph-name="afii10061" unicode="&#x40c;" horiz-adv-x="1009" 
d="M583 1523h324l-305 -253h-228zM60 1234h260v-493q5 1 11 1.5t11 2.5q30 7 44 35t23 74q11 55 24.5 104t28.5 81q14 29 36.5 57.5t51.5 54.5q53 45 140 68t215 23v-172q-101 0 -138 -9q-24 -5 -49 -28q-17 -14 -35 -56q-15 -33 -32 -130q-27 -146 -176 -200
q79 -35 127.5 -87.5t64.5 -124.5l-1 2l31.5 -89.5t21.5 -53.5q19 -43 39 -62h-1q25 -21 56 -29h-2q44 -10 149 -11l-1 -181q-141 1 -233 25t-149 72q-66 56 -95 122q-18 40 -31.5 90t-24.5 110h1q-11 51 -26.5 79.5t-48.5 36.5h-1l-15.5 4t-15.5 2v-543h-260v1225z" />
    <glyph glyph-name="afii10062" unicode="&#x40e;" horiz-adv-x="987" 
d="M16 1234h267l233 -679l95.5 340l94.5 339h257l-325 -1041q-16 -47 -38.5 -86.5t-55.5 -68t-78 -44t-105 -15.5q-94 0 -199 37l38 163q83 -26 123 -26q23 0 39.5 8t29.5 25.5t22.5 45t17.5 65.5h-58zM807 1503q-2 -55 -26.5 -103t-66 -83.5t-96.5 -56t-117 -20.5
q-61 0 -116 20.5t-96.5 55.5t-66.5 83t-26 104h189q1 -24 10.5 -45t25 -36.5t36 -24.5t44.5 -9q47 0 80 33t37 82h189z" />
    <glyph glyph-name="afii10145" unicode="&#x40f;" horiz-adv-x="1123" 
d="M689 -199h-268v208h-342v1225h259v-1048h430v1048h262v-1225h-341v-208z" />
    <glyph glyph-name="afii10017" unicode="&#x410;" horiz-adv-x="1098" 
d="M682 1234l378 -1225h-264l-76 273h-355l-38.5 -137l-37.5 -136h-264l378 1225h279zM542 921l-64 -233l-66 -236h261z" />
    <glyph glyph-name="afii10018" unicode="&#x411;" horiz-adv-x="998" 
d="M99 9v1225h762v-187h-498v-236h142q93 0 171.5 -23.5t135 -73t88 -126.5t31.5 -185q0 -107 -31 -181.5t-92.5 -122t-152.5 -69t-212 -21.5h-344zM363 172h86q63 0 104 13.5t66 42t35 73t10 107.5q0 229 -150 229h-151v-465z" />
    <glyph glyph-name="afii10019" unicode="&#x412;" horiz-adv-x="1036" 
d="M99 1234h346q194 0 320 -61h-1q143 -66 143 -251q0 -48 -13 -89t-36 -74t-54 -57.5t-66 -40.5q111 -30 167.5 -104.5t56.5 -193.5q0 -354 -418 -354h-445v1225zM368 1061v-326h158q56 0 90.5 39.5t34.5 126.5q0 88 -42 124t-133 36h-108zM368 564v-385h181q31 0 58 10.5
t47.5 33.5t32.5 58.5t12 85.5q0 48 -9.5 85t-32.5 61.5t-61 37.5t-94 13h-134z" />
    <glyph glyph-name="afii10020" unicode="&#x413;" horiz-adv-x="833" 
d="M98 1234h748v-173h-489v-1052h-259v1225z" />
    <glyph glyph-name="afii10021" unicode="&#x414;" horiz-adv-x="1110" 
d="M249 -180h-200l-1 365q41 8 70 22t47 39t26.5 62t8.5 91v401q0 193 83 321q81 126 319 126h345v-1057h64v-370h-199l-55 180h-453zM699 1091h-88q-47 0 -76.5 -18.5t-46 -54t-22.5 -87t-6 -116.5v-416q0 -74 -23.5 -123t-71.5 -86h334v901z" />
    <glyph glyph-name="afii10022" unicode="&#x415;" horiz-adv-x="915" 
d="M99 1234h761v-173h-502v-335h446v-172h-446v-375h503v-170h-762v1225z" />
    <glyph glyph-name="afii10024" unicode="&#x416;" horiz-adv-x="1742" 
d="M730 553q-49 -8 -74 -37t-36 -86h1q-21 -119 -56 -200q-30 -67 -96 -122q-57 -47 -149 -71.5t-233 -25.5l-1 181q106 1 150 11h-2q29 8 56 29h-1q19 19 39 62q8 17 21 53.5l31 89.5l-1 -2q33 142 193 212q-78 26 -121 76t-57 124q-18 102 -31 130q-17 40 -35 56
q-26 23 -49 28q-38 9 -138 9v172q131 0 216.5 -22t138.5 -69v1q29 -24 51.5 -54t36.5 -59q16 -32 29 -81t24 -104q10 -45 23.5 -73t42.5 -35h1q7 -2 12.5 -2.5t13.5 -2.5v493h263v-493q7 1 12 2t12 3q30 7 44 35t23 73q11 55 24 104t29 81q14 29 36.5 57.5t51.5 54.5
q53 45 140 68t215 23v-172q-101 0 -138 -9q-24 -5 -49 -28q-17 -14 -35 -56q-15 -33 -32 -130q-27 -146 -176 -200q159 -70 192 -212l-1 2l31.5 -89.5t21.5 -53.5q19 -43 39 -62h-1q13 -11 27 -18t28 -11h-2q46 -10 150 -11l-1 -181q-141 1 -233 25.5t-149 71.5
q-66 55 -96 122q-17 40 -31 90t-24 110h1q-6 30 -14.5 51.5t-20.5 36.5t-30 23.5t-44 11.5v-544h-263v544z" />
    <glyph glyph-name="afii10025" unicode="&#x417;" horiz-adv-x="946" 
d="M65 110q11 15 20.5 29.5l19.5 30.5q5 7 12.5 18.5l16 23.5l16 23t12.5 19q61 -39 117.5 -60t123.5 -21q48 0 88 15t68.5 43t44.5 67.5t16 87.5q0 129 -61 163q-73 40 -215 40v166q248 0 248 172q0 147 -151 147q-118 0 -257 -87l-10.5 15.5l-13.5 20l-13.5 20l-10.5 15.5
l-25.5 38.5t-24.5 38.5q42 28 84 49.5t86.5 36t92.5 22t101 7.5q184 0 286.5 -76t102.5 -229q0 -185 -204 -263q54 -14 98.5 -38.5t76 -61.5t48.5 -86.5t17 -112.5q0 -93 -36.5 -165t-100.5 -120.5t-150 -74t-185 -25.5q-102 0 -182 25t-146 66z" />
    <glyph glyph-name="afii10026" unicode="&#x418;" horiz-adv-x="1103" 
d="M746 9v801l-166 -402l-164 -399h-317v1225h244v-788l162.5 394.5l161.5 393.5h323v-1225h-244z" />
    <glyph glyph-name="afii10027" unicode="&#x419;" horiz-adv-x="1067" 
d="M813 1516q-2 -54 -27 -102t-66.5 -84t-96.5 -56.5t-117 -20.5q-61 0 -116 20.5t-96 56t-66 83.5t-26 103h189q0 -24 9.5 -44.5t25 -36t36.5 -24.5t44 -9q24 0 44.5 9t36 24.5t25 36t11.5 44.5h190zM730 9v801l-166 -402l-164 -399h-317v1225h245v-788l162 394.5
l162 393.5h322v-1225h-244z" />
    <glyph glyph-name="afii10028" unicode="&#x41a;" horiz-adv-x="1082" 
d="M99 1234h261v-493q5 1 11 1.5t10 2.5q31 7 44.5 35t23.5 74q11 55 24 104t29 81q27 59 87 112q54 45 141 68t215 23v-172q-100 0 -139 -9q-23 -5 -49 -28q-15 -14 -35 -56q-8 -17 -15.5 -49.5t-15.5 -80.5q-14 -73 -57.5 -123t-119.5 -77q160 -70 193 -212l-1 2l31 -89.5
t21 -53.5q20 -43 39 -62h-1q28 -22 56 -29h-2q44 -10 149 -11l-1 -181q-141 1 -232.5 25t-148.5 72q-66 55 -96 122q-35 81 -56 200h1q-11 51 -26.5 79.5t-48.5 36.5h-1l-14.5 4t-15.5 2v-543h-261v1225z" />
    <glyph glyph-name="afii10029" unicode="&#x41b;" horiz-adv-x="1203" 
d="M299 1234h789v-1225h-258v1047h-271q0 -204 -0.5 -407t-0.5 -408q-9 -258 -314 -258q-65 0 -116.5 8.5t-90.5 24.5l9.5 38.5l11 44l11 44t10.5 38.5q36 -11 67.5 -18t55.5 -7q48 0 72 17.5t24 62.5z" />
    <glyph glyph-name="afii10030" unicode="&#x41c;" horiz-adv-x="1285" 
d="M924 9v755l-82.5 -229.5l-81.5 -226.5h-233l-183 480v-779h-244v1225h334l211 -602l101.5 301.5l99.5 300.5h322v-1225h-244z" />
    <glyph glyph-name="afii10031" unicode="&#x41d;" horiz-adv-x="1164" 
d="M792 9v538h-432v-538h-260v1225h260v-508h432v508h258v-1225h-258z" />
    <glyph glyph-name="afii10032" unicode="&#x41e;" horiz-adv-x="1090" 
d="M540 1247q468 0 468 -628q0 -629 -468 -629q-471 0 -471 629q0 628 471 628zM540 1075q-216 0 -216 -456q0 -458 216 -458q213 0 213 458q0 456 -213 456z" />
    <glyph glyph-name="afii10033" unicode="&#x41f;" horiz-adv-x="1165" 
d="M792 9v1047h-431v-1047h-261v1225h951v-1225h-259z" />
    <glyph glyph-name="afii10034" unicode="&#x420;" horiz-adv-x="943" 
d="M99 1234h345q120 0 211.5 -22t152.5 -69.5t92 -122t31 -180.5q0 -109 -31.5 -186.5t-87.5 -127t-134.5 -73t-172.5 -23.5h-148v-421h-258v1225zM357 1070v-465h157q151 0 151 230q0 62 -10.5 106.5t-35.5 73t-66.5 42t-103.5 13.5h-92z" />
    <glyph glyph-name="afii10035" unicode="&#x421;" 
d="M545 1247q46 0 82 -2.5t65 -7t52 -11t44 -14.5h-1q7 -3 17.5 -7t22 -9t22.5 -9t18 -7l-77 -169q-25 12 -54 22.5t-57.5 19t-55.5 13t-47 4.5q-58 0 -105.5 -27t-81.5 -82.5t-52.5 -140.5t-18.5 -201q0 -118 12.5 -203.5t39 -140.5t68.5 -81t101 -26q118 0 243 55l68 -168
q-32 -14 -65 -26t-71.5 -20.5t-83.5 -13.5t-101 -5q-125 0 -213.5 38.5t-144.5 117t-82 196.5t-26 277t33 277t95 196t151.5 116.5t202.5 38.5z" />
    <glyph glyph-name="afii10036" unicode="&#x422;" horiz-adv-x="960" 
d="M16 1234h916v-181h-327v-1044h-261v1044h-328v181z" />
    <glyph glyph-name="afii10037" unicode="&#x423;" horiz-adv-x="1013" 
d="M40 1234h268l233 -679l95.5 340l94.5 339h256l-324 -1041q-15 -47 -38 -86.5t-56 -68t-78 -44t-105 -15.5q-92 0 -199 37l38 163q83 -26 123 -26q45 0 68 33.5t40 110.5h-57z" />
    <glyph glyph-name="afii10038" unicode="&#x424;" horiz-adv-x="1360" 
d="M792 -51h-245v161q-107 12 -196 44.5t-155 86.5q-76 63 -116 159.5t-40 227.5q0 261 145 385q65 57 155 89.5t207 43.5v165h245v-164q121 -11 216 -44t161 -95t100.5 -155.5t34.5 -224.5q0 -129 -41 -227t-117 -161q-66 -51 -157 -85t-197 -46v-160zM547 982
q-59 -11 -106.5 -36t-80.5 -67t-51 -104t-18 -147q0 -86 18.5 -147.5t52 -104t81 -67.5t104.5 -36v709zM792 272q58 10 106 35.5t82.5 68.5t53 105t18.5 147q0 84 -17.5 146t-51 105t-82 68.5t-109.5 36.5v-712z" />
    <glyph glyph-name="afii10039" unicode="&#x425;" horiz-adv-x="1154" 
d="M780 1234h271l-339 -585l184 -320l184 -320h-288l-224 431l-114 -216l-113 -215h-280l371 629l-171.5 298.5l-170.5 297.5h285l200 -376z" />
    <glyph glyph-name="afii10040" unicode="&#x426;" horiz-adv-x="1179" 
d="M322 1234v-1048h431v1048h261l1 -1049h64l-2 -365h-200l-58 189h-756v1225h259z" />
    <glyph glyph-name="afii10041" unicode="&#x427;" horiz-adv-x="1013" 
d="M277 813q0 -125 12 -141q8 -14 22 -34.5t31 -49.5q67 -106 186 -106q29 0 58.5 2t55.5 5v745h259v-1225h-259v304q-7 -1 -13.5 -1h-11.5q-25 -2 -51.5 -3t-52.5 -1q-492 0 -492 504v422h256v-421z" />
    <glyph glyph-name="afii10042" unicode="&#x428;" horiz-adv-x="1487" 
d="M360 1234v-1048h241v1048h263v-1048h241v1048h262v-1225h-1265v1225h258z" />
    <glyph glyph-name="afii10043" unicode="&#x429;" horiz-adv-x="1509" 
d="M322 1234v-1048h241v1048h263v-1048h241v1048h262v-1049h72v-365h-198l-58 189h-1082v1225h259z" />
    <glyph glyph-name="afii10044" unicode="&#x42a;" horiz-adv-x="1141" 
d="M533 1234v-422h149q94 0 172 -23t134 -72t87.5 -127t31.5 -187q0 -107 -30.5 -181.5t-91.5 -122t-152.5 -69t-212.5 -21.5h-345v1058h-232v167h490zM627 173q62 0 103.5 13.5t66 42t35 73t10.5 106.5q0 230 -151 230h-158v-465h94z" />
    <glyph glyph-name="afii10045" unicode="&#x42b;" horiz-adv-x="1324" 
d="M101 1234h257v-422h149q94 0 172 -23t134.5 -72t87.5 -127t31 -187q0 -107 -31 -181.5t-92 -122t-152.5 -69t-211.5 -21.5h-344v1225zM451 173q62 0 103.5 13.5t66.5 42t35.5 73t10.5 106.5q0 230 -151 230h-158v-465h93zM947 1234h260v-1225h-260v1225z" />
    <glyph glyph-name="afii10046" unicode="&#x42c;" horiz-adv-x="944" 
d="M99 1234h258v-422h148q94 0 172.5 -23t134.5 -72t87.5 -127t31.5 -187q0 -107 -31 -181.5t-92 -122t-152.5 -69t-211.5 -21.5h-345v1225zM449 173q62 0 103.5 13.5t66.5 42t35.5 73t10.5 106.5q0 230 -151 230h-157v-465h92z" />
    <glyph glyph-name="afii10047" unicode="&#x42d;" 
d="M381 1247q114 0 203.5 -38.5t151.5 -116.5t95 -196t33 -277t-26 -277t-82 -196.5t-144.5 -117t-213.5 -38.5q-56 0 -101 5t-83.5 13.5t-71.5 20.5t-65 26l68 168q125 -55 243 -55q85 0 135.5 59.5t71.5 182.5q5 29 8 62t5 68h-383v160h382q-2 35 -7 66.5t-11 57.5v-1
q-31 127 -92 187t-146 60q-21 0 -47.5 -4.5t-55.5 -13t-58 -19t-55 -22.5l-75 169l79 32q43 16 98.5 25.5t143.5 9.5z" />
    <glyph glyph-name="afii10048" unicode="&#x42e;" horiz-adv-x="1516" 
d="M948 1247q470 0 470 -628q0 -629 -470 -629q-223 0 -341 138t-128 419h-115v-538h-262v1225h262v-508h118q19 259 135 390t331 131zM948 1075q-215 0 -215 -456q0 -458 215 -458q214 0 214 458q0 456 -214 456z" />
    <glyph glyph-name="afii10049" unicode="&#x42f;" horiz-adv-x="1065" 
d="M691 489h-86l-136 -240.5l-137 -239.5h-290l307 517q-52 19 -93.5 49.5t-70.5 73t-44.5 99t-15.5 127.5q0 103 32.5 172t95.5 110.5t154.5 59t209.5 17.5h335v-1225h-261v480zM596 1070q-205 0 -205 -207q0 -206 159 -206h141v413h-95z" />
    <glyph glyph-name="afii10065" unicode="&#x430;" horiz-adv-x="964" 
d="M122 873q89 30 177 45.5t176 15.5q382 0 382 -306v-619h-203l-11 55q-45 -40 -102.5 -58t-132.5 -18q-168 0 -256.5 74t-88.5 218q1 69 26 124t81 93.5t146.5 59t222.5 20.5h66v76q0 113 -156 113q-60 0 -126.5 -13t-140.5 -40zM605 430h-62q-69 0 -112 -9.5t-67 -27.5
t-33 -44t-9 -58q0 -136 118 -136q37 0 67.5 11t52 30.5t33.5 45.5t12 56v132z" />
    <glyph glyph-name="afii10066" unicode="&#x431;" horiz-adv-x="955" 
d="M461 181q93 0 140.5 58.5t47.5 191.5q0 50 -10 91t-31.5 70t-55.5 44.5t-82 15.5q-100 0 -170 -43q-4 -28 -5.5 -58.5t-1.5 -62.5q0 -307 168 -307zM762 1124q-164 -53 -267.5 -133t-152.5 -201q38 17 79.5 25t97.5 8q85 0 154 -32t118 -87.5t75.5 -129t26.5 -156.5
q0 -98 -32 -174.5t-89.5 -128.5t-137 -79t-173.5 -27q-102 0 -180 33t-130 93.5t-78.5 146t-26.5 191.5q0 324 171 515q81 88 200 159t274 123z" />
    <glyph glyph-name="afii10067" unicode="&#x432;" horiz-adv-x="952" 
d="M100 9v907h364q78 0 148 -17.5t123 -50t84 -79.5t31 -106q0 -75 -44.5 -120t-114.5 -68q40 -13 73 -31t57 -43.5t37.5 -58t13.5 -73.5q0 -73 -30.5 -122t-85.5 -79.5t-131.5 -44t-169.5 -14.5h-355zM537 180q42 9 58 33.5t16 65.5q0 39 -14.5 64t-42.5 39t-69 19.5
t-93 5.5h-49v-234h111q48 0 83 7zM440 557q156 0 156 96q0 49 -31.5 73.5t-115.5 24.5h-106v-194h97z" />
    <glyph glyph-name="afii10068" unicode="&#x433;" horiz-adv-x="815" 
d="M359 738v-729h-260v907h713v-179z" />
    <glyph glyph-name="afii10069" unicode="&#x434;" horiz-adv-x="1035" 
d="M243 -178h-197v362q39 7 67.5 21t47 38.5t27 61.5t8.5 91v76q0 190 82 318q81 126 316 126h276v-727h63v-367h-200l-54 178h-382zM623 761h-21q-46 0 -75 -18.5t-45.5 -53.5t-22.5 -86t-6 -116v-91q0 -74 -23.5 -122.5t-70.5 -84.5h264v572z" />
    <glyph glyph-name="afii10070" unicode="&#x435;" horiz-adv-x="953" 
d="M636 538q-3 103 -35 167q-31 66 -124 66q-43 0 -72 -16.5t-47 -47t-27.5 -73.5t-12.5 -96h318zM318 395q4 -62 15 -107.5t33.5 -75t59 -43.5t90.5 -14q57 0 123.5 16.5t129.5 41.5l72 -156q-81 -33 -164.5 -52t-170.5 -19q-438 0 -438 469q0 205 90 343q88 136 307 136
q211 0 308.5 -104t97.5 -306v-129h-553z" />
    <glyph glyph-name="afii10072" unicode="&#x436;" horiz-adv-x="1619" 
d="M675 391q-39 -5 -56.5 -22t-25.5 -47q-10 -45 -22 -82t-28 -66q-24 -46 -91 -91q-52 -35 -136.5 -53.5t-218.5 -18.5l-1 172q52 1 89.5 2.5t54.5 6.5q20 3 37 16h2q2 2 9.5 13.5l14.5 22.5q6 12 16.5 35.5l26.5 61.5l-1 -2q23 87 124 140q-47 24 -74.5 59t-36.5 78
l-13.5 52.5t-10.5 30.5q-8 14 -14 23.5t-9 11.5q-9 6 -21.5 10.5t-32 6.5t-47.5 3t-67 1v167q121 0 204 -17.5t131 -50.5q27 -20 48 -42t34 -45q14 -27 26.5 -61t19.5 -75v1q7 -27 21.5 -42.5t47.5 -20.5v307h245v-307q32 5 46 20.5t20 40.5q9 38 21.5 74.5t25.5 62.5
q26 45 83 87q48 33 130.5 50.5t204.5 17.5v-167q-41 0 -69 -1t-47 -3t-31.5 -6.5t-21.5 -10.5q-2 -2 -8.5 -11t-14.5 -23q-10 -19 -22 -83q-19 -90 -113 -138q101 -53 124 -140l-1 2l27 -63.5t16 -33.5l15 -23t10 -13q19 -13 37 -16q17 -5 55 -6.5t90 -2.5l-1 -172
q-134 0 -218 18.5t-137 53.5q-67 45 -91 91q-15 29 -27.5 66t-21.5 82q-7 33 -24.5 48.5t-56.5 20.5v-382h-245v382z" />
    <glyph glyph-name="afii10073" unicode="&#x437;" horiz-adv-x="890" 
d="M85 867q64 31 146.5 51.5t182.5 20.5q76 0 144 -18t119.5 -51.5t81.5 -82.5t30 -111q0 -78 -43 -126.5t-112 -71.5q39 -13 71 -32.5t55.5 -45.5t36.5 -60t13 -76q0 -75 -29.5 -126.5t-82.5 -84t-128 -46.5t-166 -14q-167 0 -339 77l66 156q79 -32 147 -47.5t126 -15.5
q85 0 118.5 27t33.5 85q0 40 -14.5 66t-41.5 41t-66.5 21t-89.5 6h-118v155h164q151 0 151 100q0 53 -31 78.5t-110 25.5q-27 0 -60 -4.5t-67 -12t-67 -17t-60 -18.5z" />
    <glyph glyph-name="afii10074" unicode="&#x438;" horiz-adv-x="1045" 
d="M685 9v566l-136.5 -284l-134.5 -282h-314v907h242v-551l134 276l133 275h318v-907h-242z" />
    <glyph glyph-name="afii10075" unicode="&#x439;" horiz-adv-x="1001" 
d="M664 9v564l-137.5 -283l-134.5 -281h-313v907h242v-549l133 275l133 274h319v-907h-242zM796 1298q-2 -55 -26.5 -102.5t-65.5 -83t-95.5 -56t-115.5 -20.5t-115.5 20.5t-96 55.5t-66 83t-25.5 103h187q1 -24 10.5 -44.5t25.5 -36t36.5 -24.5t43.5 -9q22 0 42.5 9
t36 24.5t25.5 36t11 44.5h188z" />
    <glyph glyph-name="afii10076" unicode="&#x43a;" horiz-adv-x="1024" 
d="M98 889h249v-319q31 5 44.5 20.5t19.5 39.5q9 38 21.5 74.5t25.5 62.5q26 45 83 87q48 33 130.5 50.5t204.5 17.5v-167q-41 0 -69 -1t-47 -3t-31.5 -6.5t-21.5 -10.5q-2 -2 -8.5 -11t-14.5 -23q-10 -19 -22 -83q-19 -89 -112 -138q100 -53 123 -140v2l26.5 -63.5
t15.5 -33.5l15 -23t10 -13q19 -13 37 -16q17 -5 55 -6.5t90 -2.5l-1 -172q-134 0 -218 18.5t-137 53.5q-67 45 -91 91q-15 29 -27.5 66t-21.5 82q-7 33 -24 48.5t-55 20.5v-382h-249v880z" />
    <glyph glyph-name="afii10077" unicode="&#x43b;" horiz-adv-x="1050" 
d="M464 208q0 -48 -17.5 -87t-49 -66.5t-75.5 -42.5t-97 -15q-35 0 -77.5 7t-93.5 20l40 164q28 -8 51 -13t38 -5q33 0 33 38v708h716v-907h-256v729h-211z" />
    <glyph glyph-name="afii10078" unicode="&#x43c;" horiz-adv-x="1170" 
d="M807 9v448l-55.5 -150l-54.5 -148h-233l-121 314v-464h-242v907h330l151 -436l74.5 219l73.5 217h319v-907h-242z" />
    <glyph glyph-name="afii10079" unicode="&#x43d;" horiz-adv-x="1049" 
d="M676 9v365h-316v-365h-260v907h260v-364h316v364h255v-907h-255z" />
    <glyph glyph-name="afii10080" unicode="&#x43e;" horiz-adv-x="987" 
d="M486 934q107 0 185.5 -32t130 -93t76.5 -149t25 -200t-25 -200t-76 -149t-129.5 -93t-186.5 -32q-107 0 -185.5 32t-129.5 93t-76 149t-25 200t25 200t76 149t129.5 93t185.5 32zM485 768q-85 0 -124.5 -75.5t-39.5 -231.5q0 -159 39.5 -232.5t124.5 -73.5
q86 0 125.5 74.5t39.5 231.5t-39.5 232t-125.5 75z" />
    <glyph glyph-name="afii10081" unicode="&#x43f;" horiz-adv-x="1049" 
d="M676 9v729h-316v-729h-260v907h831v-907h-255z" />
    <glyph glyph-name="afii10082" unicode="&#x440;" horiz-adv-x="926" 
d="M100 919h199l15 -66q92 81 228 81q89 0 156 -22.5t111.5 -71t67 -124t22.5 -181.5q0 -116 -23.5 -207.5t-73 -155.5t-126.5 -98t-184 -34q-87 0 -145 21v-367h-247v1225zM347 226q22 -9 47.5 -15t50.5 -6q56 0 94.5 19t62.5 57.5t34.5 97t10.5 137.5q0 59 -7.5 106
t-24.5 79.5t-46.5 49.5t-72.5 17q-68 0 -108.5 -46t-40.5 -127v-369z" />
    <glyph glyph-name="afii10083" unicode="&#x441;" horiz-adv-x="845" 
d="M684 710q-108 56 -202 56q-49 0 -80 -22t-48.5 -61.5t-24 -94t-6.5 -119.5q0 -87 10 -146.5t31 -97t52.5 -54t73.5 -16.5q83 0 202 56l67 -158q-138 -67 -275 -67q-110 0 -189 27.5t-130 85.5t-75.5 149t-24.5 218q0 94 22.5 178.5t61.5 151.5q86 138 324 138
q169 0 281 -65z" />
    <glyph glyph-name="afii10084" unicode="&#x442;" horiz-adv-x="892" 
d="M28 916h818v-179h-272v-728h-259v728h-287v179z" />
    <glyph glyph-name="afii10085" unicode="&#x443;" horiz-adv-x="1000" 
d="M43 919h264l224 -655l92 329l91 326h255l-317 -1013q-15 -47 -38 -86t-56 -67t-77.5 -43.5t-103.5 -15.5q-45 0 -94 9t-103 26l37 162q42 -13 72 -19.5t50 -6.5q23 0 39.5 8.5t29 26t22 44.5t17.5 65h-57z" />
    <glyph glyph-name="afii10086" unicode="&#x444;" horiz-adv-x="1427" 
d="M579 1224h247v-345q80 55 194 55q90 0 157 -22.5t112 -71t67 -124t22 -181.5q0 -116 -23.5 -207.5t-73 -155.5t-126 -98t-183.5 -34q-43 0 -80 5t-66 16v-367h-247v367q-29 -11 -65 -16t-81 -5q-106 0 -183 34t-126.5 98t-73 155.5t-23.5 207.5q0 106 22.5 181.5t67 124
t111.5 71t156 22.5q59 0 106.5 -13t88.5 -42v345zM568 667q-19 48 -54.5 74.5t-83.5 26.5q-44 0 -72.5 -17t-46 -49.5t-24.5 -79.5t-7 -106q0 -79 10.5 -137.5t34 -97t62 -57.5t94.5 -19q25 0 50.5 6t47.5 15v377q-1 36 -11 65v-1zM862 214q30 -9 61 -9q56 0 95 19t63 57.5
t34.5 97t10.5 137.5q0 59 -7.5 106t-24.5 79.5t-46 49.5t-72 17q-50 0 -86 -26.5t-54 -74.5q-5 -12 -7 -28.5t-3 -35.5v-377q8 -3 17 -6t18 -5z" />
    <glyph glyph-name="afii10087" unicode="&#x445;" horiz-adv-x="1078" 
d="M968 919l-296 -435l80.5 -117l84 -120.5l84 -120.5l80.5 -117h-288l-183 293l-91 -147l-91 -146h-289l330 475l-148.5 218l-147.5 217h278l159 -256l81 129l79 127h278z" />
    <glyph glyph-name="afii10088" unicode="&#x446;" horiz-adv-x="1044" 
d="M304 911v-726h314v726h260v-728h63l-1 -361h-199l-57 187h-635v902h255z" />
    <glyph glyph-name="afii10089" unicode="&#x447;" horiz-adv-x="921" 
d="M806 9h-248v350q-37 -24 -90.5 -42.5t-114.5 -18.5q-90 0 -154 21t-105 59.5t-60 92.5t-19 120v325h248v-325q0 -25 5 -47.5t19.5 -40t40 -28t67.5 -10.5q163 0 163 193v258h248v-907z" />
    <glyph glyph-name="afii10090" unicode="&#x448;" horiz-adv-x="1396" 
d="M360 918v-734q51 -1 95.5 -0.5t100.5 -0.5v733h260v-734h195v734h259v-910l-1167 3v909h257z" />
    <glyph glyph-name="afii10091" unicode="&#x449;" horiz-adv-x="1403" 
d="M303 916v-731h201v731h259v-731h195v731h259v-733h72v-361h-197l-57 187h-987v907h255z" />
    <glyph glyph-name="afii10092" unicode="&#x44a;" horiz-adv-x="1052" 
d="M246 9v761h-194v146h437v-342h142q78 0 147 -17t118 -48q29 -19 50.5 -36t34.5 -34q17 -22 26.5 -56.5t9.5 -80.5q0 -52 -8.5 -91t-24.5 -66q-14 -22 -35.5 -42t-53.5 -38q-53 -29 -128 -42t-166 -14h-355zM761 296q1 42 -4.5 60.5t-19.5 27.5q-35 26 -120 26h-128v-237
h111q48 0 83 7l-2 -1q21 6 35 13t23 19.5t14 32.5t8 52z" />
    <glyph glyph-name="afii10093" unicode="&#x44b;" horiz-adv-x="1292" 
d="M911 914h257v-906h-257v906zM102 9v907h243v-342h143q78 0 146 -17t119 -48q62 -39 85 -70q35 -46 35 -137q0 -101 -32 -157q-13 -22 -34.5 -42t-54.5 -38q-53 -29 -128 -42t-166 -14h-356zM618 296q0 42 -5.5 60.5t-19.5 27.5q-18 14 -46.5 20t-73.5 6h-128v-237h113
q48 0 82 7l-2 -1q21 6 35.5 13t23.5 19.5t14 32.5t7 52z" />
    <glyph glyph-name="afii10094" unicode="&#x44c;" horiz-adv-x="886" 
d="M100 9v907h243v-342h142q78 0 147 -17t118 -48q29 -19 50.5 -36t34.5 -34q17 -22 26.5 -56.5t9.5 -80.5q0 -101 -32 -157q-27 -44 -90 -80q-53 -29 -128 -42t-166 -14h-355zM615 296q1 42 -4.5 60.5t-19.5 27.5q-35 26 -120 26h-128v-237h111q48 0 83 7l-2 -1
q21 6 35.5 13t23.5 19.5t13.5 32.5t7.5 52z" />
    <glyph glyph-name="afii10095" unicode="&#x44d;" horiz-adv-x="845" 
d="M78 869q113 65 280 65q239 0 325 -138q39 -67 61.5 -151.5t22.5 -178.5q0 -127 -24.5 -218t-75.5 -149t-130 -85.5t-188 -27.5q-138 0 -276 67l67 159q62 -29 112 -43t91 -14q120 0 155 164q2 14 4 32t4 38h-298v176h297q-1 6 -1.5 12.5t-2.5 14.5q-10 79 -45.5 126.5
t-105.5 47.5q-94 0 -203 -56z" />
    <glyph glyph-name="afii10096" unicode="&#x44e;" horiz-adv-x="1474" 
d="M950 934q106 0 184.5 -32t130 -93t76.5 -149t25 -200t-25 -200t-76 -149t-129.5 -93t-185.5 -32q-165 0 -261.5 71t-131.5 210q-7 28 -12.5 57t-8.5 55h-87v-370h-247v751h-136v158h383v-381h86q3 32 8.5 63t13.5 59q36 134 133 204.5t260 70.5zM949 768
q-86 0 -125.5 -75.5t-39.5 -231.5q0 -159 40 -232.5t125 -73.5t124.5 74.5t39.5 231.5t-39.5 232t-124.5 75z" />
    <glyph glyph-name="afii10097" unicode="&#x44f;" horiz-adv-x="974" 
d="M320 9h-262l240 365q-53 15 -91 40q-30 20 -51.5 37t-33.5 34q-35 44 -35 138q-1 50 6.5 89t24.5 66v-1q13 23 36 43.5t54 38.5q52 29 127.5 42.5t166.5 14.5h356v-907h-243v342h-85zM341 628q-1 -42 5 -60.5t20 -28.5l-1 1q20 -13 49 -19t73 -6h128v236h-112
q-24 0 -44.5 -1t-38.5 -5l2 1q-21 -6 -35 -13t-23.5 -19.5t-14.5 -32.5t-8 -53z" />
    <glyph glyph-name="afii10071" unicode="&#x451;" horiz-adv-x="947" 
d="M635 538q-3 103 -35 167q-31 66 -124 66q-43 0 -72 -16.5t-47 -47t-27.5 -73.5t-12.5 -96h318zM317 395q4 -62 15 -107.5t33.5 -75t59 -43.5t90.5 -14q57 0 123.5 16.5t129.5 41.5l72 -156q-81 -33 -164 -52t-171 -19q-438 0 -438 469q0 205 90 343q88 136 307 136
q211 0 308.5 -104t97.5 -306v-129h-553zM673 1282q28 0 53.5 -9.5t45 -25.5t31 -37.5t11.5 -45.5t-11.5 -45.5t-31 -37.5t-45 -25.5t-53.5 -9.5q-30 0 -55.5 9.5t-45 26t-30.5 37.5t-11 45t11 45.5t30.5 37.5t45 25.5t55.5 9.5zM261 1282q28 0 53.5 -9.5t45 -25.5
t31.5 -37.5t12 -45.5t-12 -45.5t-31.5 -37.5t-45 -25.5t-53.5 -9.5q-29 0 -55 9.5t-45.5 26t-30.5 37.5t-11 45t11.5 45.5t31 37.5t45 25.5t54.5 9.5z" />
    <glyph glyph-name="afii10099" unicode="&#x452;" horiz-adv-x="978" 
d="M656 641q0 25 -5 48t-19.5 40.5t-40 28t-67.5 10.5q-163 0 -163 -193v-566h-248v975h-79v159h79v81h248v-81h235v-159h-235v-111q38 26 88 43.5t116 17.5q90 0 154 -21t105 -59.5t60 -92.5t19 -120v-697q0 -250 -300 -250q-64 0 -116 8.5t-90 23.5q5 17 9.5 37.5
l8.5 37.5l22 89q38 -11 69.5 -18t54.5 -7q48 0 71.5 17.5t23.5 61.5v697z" />
    <glyph glyph-name="afii10100" unicode="&#x453;" horiz-adv-x="768" 
d="M328 738v-729h-259v907h713v-179zM354 1302h320l-303 -252h-226z" />
    <glyph glyph-name="afii10101" unicode="&#x454;" horiz-adv-x="845" 
d="M684 710q-108 56 -202 56q-34 0 -59.5 -13t-44 -36.5t-30 -55t-17.5 -68.5q-1 -5 -1.5 -8t-0.5 -5.5t-0.5 -5.5l-1.5 -9h297v-176h-298q3 -43 8 -70q19 -85 57 -124.5t99 -39.5q83 0 202 56l67 -158q-138 -67 -275 -67q-110 0 -189 27.5t-130 85.5t-75.5 149t-24.5 218
q0 94 22.5 178.5t61.5 151.5q86 138 324 138q169 0 281 -65z" />
    <glyph glyph-name="afii10102" unicode="&#x455;" horiz-adv-x="872" 
d="M693 695q-125 72 -238 73q-115 -6 -115 -94q0 -21 11 -36.5t29.5 -26.5t42.5 -19.5l50 -17.5h-1q74 -23 133.5 -50t101 -62.5t64 -82.5t22.5 -110q0 -150 -128 -221q-57 -30 -123 -46t-142 -16q-106 0 -189 24.5t-149 62.5q7 15 17 34.5l20 40.5l20 41.5l18 36.5
l63 -24.5t62.5 -19.5t69 -13t82.5 -5q25 0 47 4.5t38.5 15.5t26.5 29t10 46q0 31 -14.5 53.5t-39 39.5t-57 30t-68.5 25h1q-272 83 -272 264q0 94 75 181q37 36 109.5 59t172.5 23q107 0 188 -21.5t146 -52.5q-5 -8 -11.5 -21.5t-11.5 -21.5q-4 -8 -7.5 -16t-7.5 -16z" />
    <glyph glyph-name="afii10103" unicode="&#x456;" horiz-adv-x="477" 
d="M250 1312q31 0 59 -10.5t48.5 -28.5t32.5 -42t12 -50t-12.5 -49.5t-33.5 -41t-48.5 -27.5t-57.5 -10q-31 0 -58.5 10t-48.5 27.5t-33 41t-12 49.5q0 27 12 50.5t32.5 41.5t48 28.5t59.5 10.5zM125 760h-136v158h383v-909h-247v751z" />
    <glyph glyph-name="afii10104" unicode="&#x457;" horiz-adv-x="760" 
d="M262 760h-137v158h384v-909h-247v751zM576 1282q28 0 54 -9.5t45.5 -25.5t31 -37.5t11.5 -45.5t-11.5 -45.5t-31 -37.5t-45.5 -25.5t-54 -9.5q-30 0 -55.5 9.5t-44.5 26t-30 37.5t-11 45t11 45.5t30 37.5t45 25.5t55 9.5zM164 1282q28 0 53.5 -9.5t45 -25.5t31.5 -37.5
t12 -45.5t-12 -45.5t-31.5 -37.5t-45 -25.5t-53.5 -9.5q-29 0 -55 9.5t-45.5 26t-30.5 37.5t-11 45t11.5 45.5t31 37.5t45 25.5t54.5 9.5z" />
    <glyph glyph-name="afii10105" unicode="&#x458;" horiz-adv-x="592" 
d="M242 760h-135v158h382v-974q0 -250 -300 -250q-64 0 -115.5 8.5t-89.5 23.5q2 8 4.5 20.5t4.5 21.5l4 16.5l4 16.5l22 89q38 -11 69.5 -18t54.5 -7q48 0 71.5 17.5t23.5 61.5v816zM367 1312q31 0 59 -10.5t48.5 -28t32.5 -41.5t12 -51q0 -26 -12 -49.5t-33 -41
t-48.5 -27.5t-58.5 -10q-30 0 -57.5 9.5t-48.5 27t-33.5 41t-12.5 50.5t12.5 51t33.5 42t48.5 28t57.5 10z" />
    <glyph glyph-name="afii10106" unicode="&#x459;" horiz-adv-x="1546" 
d="M697 9v729h-210q0 -133 -1 -265t-1 -265q0 -48 -17 -87t-48 -66.5t-75 -42.5t-98 -15q-35 0 -78 7t-94 20l41 164q28 -8 50.5 -13t37.5 -5q34 0 34 38v708h716v-342h140q78 0 147 -17t118 -48q29 -19 50.5 -36t34.5 -34q17 -22 26.5 -56.5t9.5 -80.5q0 -95 -32 -153
q-28 -49 -90 -84q-53 -29 -128 -42t-166 -14h-367zM1224 296q1 42 -4.5 60.5t-19.5 27.5q-35 26 -120 26h-126v-237h109q48 0 83 7l-2 -1q21 6 35 13t23 19.5t14 32.5t8 52z" />
    <glyph glyph-name="afii10107" unicode="&#x45a;" horiz-adv-x="1526" 
d="M680 9v399h-316v-399h-259v907h259v-348h316v348h255v-342h139q78 0 146.5 -17t117.5 -48q29 -18 50.5 -35t34.5 -34q36 -45 36 -138q0 -107 -32 -158q-25 -41 -90 -79q-52 -29 -127 -42t-166 -14h-364zM1205 296q0 42 -6 60.5t-20 27.5q-35 26 -120 26h-124v-237h108
q48 0 82 7h-2q22 6 36.5 13t23.5 19.5t14 32.5t8 51z" />
    <glyph glyph-name="afii10108" unicode="&#x45b;" horiz-adv-x="1012" 
d="M73 984v159h79v81h248v-81h236v-159h-236v-111q38 26 88.5 43.5t116.5 17.5q90 0 154 -21t105 -59.5t60 -92.5t19 -120v-632h-247v632q0 25 -5 48t-19.5 40.5t-40.5 28t-68 10.5q-163 0 -163 -193v-566h-248v975h-79z" />
    <glyph glyph-name="afii10109" unicode="&#x45c;" horiz-adv-x="936" 
d="M482 1271h321l-303 -251h-225zM54 889h249v-319q31 5 44.5 20.5t19.5 39.5q8 38 21 74.5t26 62.5q26 45 83 87q48 33 130.5 50.5t204.5 17.5v-167q-41 0 -69 -1t-47.5 -3t-31.5 -6.5t-21 -10.5q-2 -2 -8.5 -11t-14.5 -23q-5 -11 -11 -31.5t-11 -51.5q-19 -90 -113 -138
q101 -53 124 -140l-1 2l27 -63.5t16 -33.5l15 -23t10 -13q19 -13 37 -16q17 -5 54.5 -6.5t90.5 -2.5l-1 -172q-134 0 -218.5 18.5t-136.5 53.5q-67 45 -91 91q-16 29 -28 66t-22 82q-6 33 -23 48.5t-55 20.5v-382h-249v880z" />
    </font>
</defs>
</svg>
